<svg width="24" height="24" viewBox="0 0 24 24" fill="none" xmlns="http://www.w3.org/2000/svg">
<g clip-path="url(#clip0_1_438)">
<path d="M23.4044 5.57045C22.8658 3.40909 20.5913 1.13318 18.4299 0.594545C16.309 0.202705 14.1571 0.00371039 12.0003 0C9.84362 0.00384473 7.69166 0.202838 5.5708 0.594545C3.40944 1.13318 1.13489 3.40909 0.596256 5.57045C-0.198752 9.81995 -0.198752 14.18 0.596256 18.4295C1.13489 20.5909 3.40944 22.8682 5.5708 23.4055C7.69166 23.7972 9.84362 23.9962 12.0003 24C12.6113 24 13.2203 23.9841 13.8276 23.9523C15.3717 23.8678 16.9089 23.6856 18.4299 23.4068C20.5967 22.8695 22.8658 20.5977 23.4044 18.4309C23.8091 16.242 24.0086 14.0201 24.0003 11.7941C23.9839 9.70612 23.7845 7.62361 23.4044 5.57045ZM15.8022 10.5805L15.5608 12.6695C15.5511 12.765 15.5065 12.8536 15.4355 12.9183C15.3646 12.9829 15.2723 13.0192 15.1763 13.02H12.9944L12.9835 19.2177C12.9843 19.2912 12.9561 19.362 12.905 19.4148C12.854 19.4676 12.7842 19.4982 12.7108 19.5H10.5003C10.4636 19.5 10.4272 19.4926 10.3934 19.4782C10.3596 19.4639 10.329 19.4428 10.3035 19.4163C10.2781 19.3898 10.2582 19.3584 10.2452 19.3241C10.2321 19.2897 10.2262 19.2531 10.2276 19.2164V13.02H8.59126C8.53986 13.0195 8.48907 13.0088 8.4418 12.9887C8.39452 12.9685 8.35167 12.9392 8.31571 12.9025C8.27975 12.8658 8.25137 12.8223 8.2322 12.7746C8.21303 12.7269 8.20344 12.6759 8.20398 12.6245L8.1958 10.5341C8.19508 10.4825 8.20453 10.4313 8.2236 10.3834C8.24267 10.3355 8.271 10.2918 8.30696 10.2548C8.34292 10.2178 8.38582 10.1883 8.43319 10.1679C8.48057 10.1475 8.5315 10.1366 8.58307 10.1359H10.2276V8.11773C10.2276 5.775 11.6185 4.5 13.6585 4.5H15.3303C15.382 4.50053 15.4331 4.51127 15.4806 4.53158C15.5282 4.5519 15.5712 4.5814 15.6073 4.6184C15.6435 4.65539 15.6719 4.69915 15.6911 4.74716C15.7102 4.79517 15.7197 4.84649 15.719 4.89818V6.65864C15.7197 6.71033 15.7102 6.76165 15.6911 6.80966C15.6719 6.85767 15.6435 6.90143 15.6073 6.93842C15.5712 6.97542 15.5282 7.00492 15.4806 7.02523C15.4331 7.04555 15.382 7.05628 15.3303 7.05682H14.3049C13.1963 7.05682 12.9808 7.60227 12.9808 8.38909V10.1359H15.4176C15.4731 10.1368 15.5278 10.1494 15.578 10.1729C15.6283 10.1963 15.6731 10.2302 15.7094 10.2721C15.7457 10.3141 15.7727 10.3632 15.7887 10.4164C15.8047 10.4695 15.8093 10.5254 15.8022 10.5805Z" fill="white"/>
</g>
<defs>
<clipPath id="clip0_1_438">
<rect width="24" height="24" fill="white"/>
</clipPath>
</defs>
</svg>
