<svg width="24" height="24" viewBox="0 0 24 24" fill="none" xmlns="http://www.w3.org/2000/svg">
<g clip-path="url(#clip0_1_442)">
<path d="M23.4044 5.57045C22.8658 3.40909 20.5913 1.13318 18.4299 0.594545C16.309 0.202705 14.1571 0.00371039 12.0003 0C9.84362 0.00384473 7.69166 0.202838 5.5708 0.594545C3.40944 1.13318 1.13489 3.40909 0.596256 5.57045C-0.198752 9.81995 -0.198752 14.18 0.596256 18.4295C1.13489 20.5909 3.40944 22.8682 5.5708 23.4055C7.69166 23.7972 9.84362 23.9962 12.0003 24C12.6113 24 13.2203 23.9841 13.8276 23.9523C15.3717 23.8678 16.9089 23.6856 18.4299 23.4068C20.5967 22.8695 22.8658 20.5977 23.4044 18.4309C23.8091 16.242 24.0086 14.0201 24.0003 11.7941C23.9839 9.70612 23.7845 7.62361 23.4044 5.57045ZM19.4717 7.46045C19.1157 7.99229 18.6823 8.46798 18.1858 8.87182C18.1216 8.92351 18.0698 8.98892 18.0342 9.06325C17.9985 9.13758 17.98 9.21894 17.9799 9.30136V9.35045C17.9744 10.4221 17.7776 11.4842 17.399 12.4868C17.0091 13.5377 16.43 14.5082 15.6903 15.3505C14.917 16.2334 13.9676 16.945 12.9031 17.4395C12.6093 17.5727 12.3078 17.6884 12.0003 17.7859C11.0607 18.0909 10.0783 18.2437 9.09035 18.2386C7.52578 18.237 5.9894 17.8221 4.63671 17.0359C4.58827 17.0084 4.55019 16.9657 4.52827 16.9145C4.50635 16.8633 4.50181 16.8063 4.51535 16.7523C4.52906 16.6988 4.56029 16.6515 4.60404 16.6179C4.64779 16.5843 4.70154 16.5663 4.75671 16.5668H5.13035C6.32109 16.5694 7.48545 16.2161 8.47398 15.5523C7.88461 15.4564 7.33309 15.1998 6.88008 14.8108C6.42707 14.4218 6.09011 13.9154 5.90626 13.3473C5.89723 13.3194 5.89562 13.2896 5.90159 13.2609C5.90755 13.2321 5.92089 13.2055 5.94028 13.1834C5.95968 13.1614 5.98447 13.1449 6.01221 13.1353C6.03996 13.1258 6.0697 13.1236 6.09853 13.1291C6.27834 13.1633 6.46095 13.1806 6.64398 13.1809H6.71217C6.14272 12.9193 5.66129 12.4982 5.32611 11.9687C4.99093 11.4392 4.81637 10.8239 4.82353 10.1973C4.82376 10.1678 4.83166 10.139 4.84647 10.1135C4.86128 10.0881 4.88247 10.0669 4.90796 10.0522C4.93344 10.0375 4.96233 10.0296 4.99177 10.0295C5.02121 10.0293 5.05017 10.0369 5.0758 10.0514C5.30692 10.1799 5.55473 10.2758 5.81217 10.3364C5.30224 9.83223 4.97404 9.17312 4.87902 8.46238C4.78401 7.75164 4.92756 7.02946 5.28717 6.40909C5.30108 6.38632 5.32018 6.36717 5.34292 6.35319C5.36565 6.33922 5.39137 6.33083 5.41797 6.3287C5.44457 6.32657 5.4713 6.33077 5.49596 6.34095C5.52063 6.35113 5.54254 6.367 5.55989 6.38727C6.2741 7.27 7.1584 8.0002 8.16029 8.53453C9.16218 9.06885 10.2612 9.3964 11.3922 9.49773H11.4044C11.4213 9.4975 11.4378 9.49374 11.4531 9.48669C11.4684 9.47965 11.482 9.46947 11.4931 9.45682C11.5038 9.44462 11.5119 9.43032 11.5169 9.41483C11.5218 9.39933 11.5234 9.38299 11.5217 9.36682C11.4794 8.97035 11.5053 8.56958 11.5981 8.18182C11.6796 7.84284 11.818 7.52011 12.0072 7.22727C12.4048 6.60276 13.0105 6.13904 13.7172 5.91818C14.0486 5.81426 14.3939 5.76093 14.7413 5.76C15.529 5.75922 16.2899 6.04632 16.8808 6.56727C16.9561 6.63418 17.0528 6.67191 17.1535 6.67364C17.1867 6.67309 17.2197 6.66851 17.2517 6.66C17.8069 6.51928 18.3392 6.29978 18.8322 6.00818C18.8616 5.99047 18.8958 5.98217 18.9301 5.98437C18.9644 5.98657 18.9972 5.99918 19.0242 6.02051C19.0511 6.04184 19.071 6.07088 19.081 6.10376C19.091 6.13664 19.0908 6.1718 19.0803 6.20455C18.9154 6.72083 18.6227 7.18708 18.2294 7.56C18.5839 7.47534 18.9299 7.35849 19.2631 7.21091C19.2967 7.19594 19.3342 7.19233 19.3701 7.20063C19.4059 7.20893 19.438 7.22869 19.4616 7.2569C19.4852 7.28512 19.499 7.32026 19.5008 7.35699C19.5026 7.39372 19.4924 7.43004 19.4717 7.46045Z" fill="white"/>
</g>
<defs>
<clipPath id="clip0_1_442">
<rect width="24" height="24" fill="white"/>
</clipPath>
</defs>
</svg>
