<svg width="24" height="24" viewBox="0 0 24 24" fill="none" xmlns="http://www.w3.org/2000/svg">
<g clip-path="url(#clip0_1_427)">
<path d="M14.3717 12.0081C14.3717 12.4771 14.2326 12.9356 13.9721 13.3255C13.7115 13.7155 13.3411 14.0195 12.9078 14.1989C12.4745 14.3784 11.9977 14.4254 11.5377 14.3339C11.0777 14.2424 10.6552 14.0165 10.3235 13.6849C9.99191 13.3533 9.76606 12.9307 9.67456 12.4707C9.58306 12.0107 9.63002 11.5339 9.8095 11.1006C9.98898 10.6673 10.2929 10.2969 10.6829 10.0364C11.0729 9.7758 11.5313 9.63672 12.0004 9.63672C12.3119 9.63618 12.6205 9.69715 12.9085 9.81613C13.1964 9.93512 13.4581 10.1098 13.6784 10.3301C13.8987 10.5504 14.0733 10.812 14.1923 11.1C14.3113 11.3879 14.3723 11.6965 14.3717 12.0081Z" fill="white"/>
<path d="M15.0317 6.01758H8.96899C8.1843 6.01794 7.43186 6.32982 6.877 6.88467C6.32214 7.43953 6.01026 8.19198 6.0099 8.97667V15.0421C6.0099 15.4307 6.08645 15.8154 6.23518 16.1743C6.3839 16.5332 6.60189 16.8594 6.87668 17.134C7.15148 17.4087 7.4777 17.6265 7.8367 17.7751C8.19571 17.9237 8.58046 18 8.96899 17.9999H15.0344C15.4229 17.9997 15.8074 17.923 16.1662 17.7742C16.525 17.6254 16.851 17.4074 17.1255 17.1326C17.4 16.8578 17.6177 16.5317 17.7662 16.1727C17.9147 15.8138 17.991 15.4292 17.9908 15.0408V8.97667C17.9904 8.19198 17.6786 7.43953 17.1237 6.88467C16.5689 6.32982 15.8164 6.01794 15.0317 6.01758ZM12.0004 15.8876C11.2338 15.887 10.4847 15.6593 9.84754 15.2331C9.21042 14.8069 8.71394 14.2014 8.42085 13.4931C8.12776 12.7848 8.05122 12.0055 8.20089 11.2538C8.35057 10.502 8.71974 9.81145 9.26176 9.26944C9.80378 8.72742 10.4943 8.35824 11.2461 8.20857C11.9979 8.05889 12.7771 8.13544 13.4854 8.42853C14.1937 8.72161 14.7992 9.21809 15.2254 9.85522C15.6516 10.4923 15.8794 11.2415 15.8799 12.008C15.8799 12.5175 15.7796 13.022 15.5846 13.4927C15.3896 13.9634 15.1039 14.391 14.7436 14.7513C14.3834 15.1115 13.9557 15.3973 13.485 15.5923C13.0143 15.7872 12.5098 15.8876 12.0004 15.8876ZM15.9017 9.08712C15.7129 9.08712 15.5284 9.03114 15.3714 8.92625C15.2144 8.82137 15.0921 8.67229 15.0198 8.49787C14.9476 8.32345 14.9287 8.13152 14.9655 7.94636C15.0023 7.76119 15.0933 7.59111 15.2268 7.45761C15.3603 7.32412 15.5303 7.23321 15.7155 7.19637C15.9007 7.15954 16.0926 7.17845 16.267 7.25069C16.4414 7.32294 16.5905 7.44529 16.6954 7.60226C16.8003 7.75924 16.8563 7.94379 16.8563 8.13258C16.8563 8.38574 16.7557 8.62853 16.5767 8.80754C16.3977 8.98656 16.1549 9.08712 15.9017 9.08712Z" fill="white"/>
<path d="M23.4058 5.57045C22.8672 3.40909 20.5913 1.13318 18.4299 0.594545C16.309 0.202705 14.1571 0.00371039 12.0003 0C9.84362 0.00384473 7.69166 0.202838 5.5708 0.594545C3.40944 1.13318 1.13489 3.40909 0.596256 5.57045C-0.198752 9.81995 -0.198752 14.18 0.596256 18.4295C1.13489 20.5909 3.40944 22.8682 5.5708 23.4055C7.69166 23.7972 9.84362 23.9962 12.0003 24C12.6094 24 13.2185 23.9841 13.8276 23.9523C15.3717 23.8677 16.9088 23.6856 18.4299 23.4068C20.5967 22.8695 22.8672 20.5977 23.4058 18.4309C23.8108 16.2416 24.0098 14.0192 24.0003 11.7927C23.985 9.70522 23.786 7.62311 23.4058 5.57045ZM19.5003 15.0395C19.4989 16.2243 19.0276 17.36 18.1899 18.1978C17.3522 19.0355 16.2164 19.5067 15.0317 19.5082H8.96898C7.78427 19.5067 6.64849 19.0355 5.81077 18.1978C4.97306 17.36 4.50179 16.2243 4.50035 15.0395V8.97682C4.50179 7.79211 4.97306 6.65633 5.81077 5.81861C6.64849 4.98089 7.78427 4.50963 8.96898 4.50818H15.0317C16.2164 4.50963 17.3522 4.98089 18.1899 5.81861C19.0276 6.65633 19.4989 7.79211 19.5003 8.97682V15.0395Z" fill="white"/>
</g>
<defs>
<clipPath id="clip0_1_427">
<rect width="24" height="24" fill="white"/>
</clipPath>
</defs>
</svg>
