<svg width="24" height="24" viewBox="0 0 24 24" fill="none" xmlns="http://www.w3.org/2000/svg">
<g clip-path="url(#clip0_1_434)">
<path d="M23.4044 5.56909C22.8658 3.40909 20.5912 1.13318 18.4299 0.594545C16.309 0.202705 14.1571 0.00371039 12.0003 0C9.84361 0.00384473 7.69165 0.202838 5.57079 0.594545C3.40942 1.13318 1.13488 3.40909 0.596242 5.56909C-0.198747 9.81905 -0.198747 14.1796 0.596242 18.4295C1.13488 20.5909 3.40942 22.8682 5.57079 23.4041C6.78306 23.6236 7.96261 23.7818 9.13124 23.8786C9.38488 23.9005 9.63715 23.9182 9.88942 23.9345C10.5944 23.9782 11.2967 24 12.0003 24C12.6112 24 13.2194 23.9823 13.8276 23.9509C15.3717 23.8665 16.9088 23.6843 18.4299 23.4055C20.5912 22.8682 22.8658 20.5909 23.4044 18.4295C23.579 17.4682 23.714 16.5205 23.8135 15.5836C23.8899 14.8482 23.9431 14.1168 23.9731 13.3895C23.9949 12.8568 24.0044 12.3245 24.0017 11.7927C23.9847 9.70472 23.7849 7.62222 23.4044 5.56909ZM8.31851 18.9927C8.31869 19.0593 8.30574 19.1252 8.2804 19.1867C8.25505 19.2483 8.21782 19.3042 8.17082 19.3513C8.12383 19.3985 8.06799 19.4359 8.00653 19.4614C7.94506 19.4869 7.87916 19.5 7.81261 19.5H5.6567C5.59009 19.5002 5.52411 19.4872 5.46256 19.4617C5.40101 19.4363 5.34511 19.3989 5.29808 19.3517C5.25105 19.3046 5.21382 19.2486 5.18854 19.187C5.16326 19.1253 5.15043 19.0593 5.15079 18.9927V9.95455C5.15061 9.88799 5.16356 9.82206 5.18891 9.76052C5.21425 9.69899 5.25149 9.64305 5.29848 9.59593C5.34548 9.54881 5.40131 9.51142 5.46278 9.48591C5.52425 9.4604 5.59014 9.44727 5.6567 9.44727H7.81261C7.94691 9.44763 8.07558 9.50124 8.17042 9.59633C8.26526 9.69142 8.31852 9.82024 8.31851 9.95455V18.9927ZM6.73533 8.59091C6.33078 8.59091 5.93531 8.47095 5.59894 8.24619C5.26257 8.02143 5.0004 7.70197 4.84558 7.32822C4.69076 6.95446 4.65026 6.54319 4.72918 6.14641C4.80811 5.74963 5.00292 5.38516 5.28898 5.0991C5.57504 4.81304 5.93951 4.61823 6.33628 4.5393C6.73306 4.46038 7.14434 4.50089 7.5181 4.6557C7.89185 4.81052 8.21131 5.07269 8.43607 5.40906C8.66082 5.74543 8.78079 6.1409 8.78079 6.54545C8.78079 7.08794 8.56528 7.60821 8.18169 7.99181C7.79809 8.37541 7.27782 8.59091 6.73533 8.59091ZM19.5876 19.0282C19.5878 19.0895 19.5758 19.1502 19.5525 19.2069C19.5291 19.2635 19.4948 19.315 19.4514 19.3584C19.4081 19.4017 19.3566 19.436 19.2999 19.4594C19.2433 19.4828 19.1825 19.4947 19.1212 19.4945H16.8031C16.7418 19.4947 16.681 19.4828 16.6244 19.4594C16.5677 19.436 16.5162 19.4017 16.4729 19.3584C16.4295 19.315 16.3952 19.2635 16.3718 19.2069C16.3485 19.1502 16.3365 19.0895 16.3367 19.0282V14.7941C16.3367 14.1614 16.5222 12.0232 14.6826 12.0232C13.2576 12.0232 12.9672 13.4864 12.9099 14.1436V19.0336C12.9099 19.1562 12.8617 19.2738 12.7757 19.361C12.6897 19.4483 12.5728 19.4982 12.4503 19.5H10.2112C10.1501 19.5 10.0895 19.4879 10.033 19.4645C9.97647 19.441 9.92515 19.4066 9.88196 19.3633C9.83876 19.32 9.80453 19.2686 9.78125 19.212C9.75796 19.1554 9.74606 19.0948 9.74624 19.0336V9.915C9.74606 9.85382 9.75796 9.79321 9.78125 9.73663C9.80453 9.68006 9.83876 9.62864 9.88196 9.58531C9.92515 9.54199 9.97647 9.50762 10.033 9.48416C10.0895 9.46071 10.1501 9.44864 10.2112 9.44864H12.4503C12.574 9.44864 12.6926 9.49777 12.7801 9.58523C12.8676 9.67269 12.9167 9.79131 12.9167 9.915V10.7032C13.4458 9.90818 14.2299 9.29727 15.9031 9.29727C19.6081 9.29727 19.5849 12.7582 19.5849 14.6591L19.5876 19.0282Z" fill="white"/>
</g>
<defs>
<clipPath id="clip0_1_434">
<rect width="24" height="24" fill="white"/>
</clipPath>
</defs>
</svg>
