<svg width="24" height="24" viewBox="0 0 24 24" fill="none" xmlns="http://www.w3.org/2000/svg">
<g clip-path="url(#clip0_1_446)">
<path d="M16.1502 7.85021L16.1202 7.82021C15.1395 6.83925 13.8411 6.24039 12.4583 6.13133C11.0756 6.02226 9.69927 6.41016 8.57698 7.22525C7.45469 8.04034 6.66006 9.22913 6.33602 10.5778C6.01197 11.9265 6.17978 13.3465 6.80926 14.5825L7.06562 15.087L6.58835 17.4052L6.58153 17.4352L8.88471 16.8898L9.40971 17.1557C10.5021 17.6983 11.7371 17.8849 12.941 17.6893C14.1449 17.4936 15.2573 16.9254 16.1215 16.0648C17.2086 14.9775 17.8219 13.5046 17.8275 11.9671C17.8331 10.4296 17.2307 8.95219 16.1515 7.85702L16.1502 7.85021ZM15.9156 14.3575C15.6333 14.802 15.1874 15.3448 14.627 15.4798C13.6452 15.7184 12.1383 15.4879 10.2633 13.7411L10.2402 13.7193C8.59153 12.192 8.16335 10.9198 8.26698 9.91066C8.32426 9.33657 8.80153 8.81975 9.2038 8.48021C9.26751 8.42621 9.34293 8.3878 9.42408 8.36804C9.50522 8.34828 9.58986 8.34771 9.67126 8.36637C9.75266 8.38504 9.8286 8.42242 9.89303 8.47556C9.95746 8.52869 10.0086 8.59612 10.0424 8.67248L10.6493 10.0443C10.689 10.1327 10.7038 10.2302 10.692 10.3264C10.6802 10.4225 10.6423 10.5136 10.5824 10.5898L10.2756 10.9879C10.2114 11.0696 10.1726 11.1683 10.1641 11.2719C10.1556 11.3754 10.1778 11.4792 10.2279 11.5702C10.3997 11.8702 10.8115 12.3134 11.2683 12.7252C11.7811 13.1875 12.3497 13.6116 12.7097 13.7575C12.8063 13.7961 12.9121 13.8052 13.0138 13.7836C13.1156 13.762 13.2086 13.7107 13.2811 13.6361L13.637 13.2775C13.7057 13.2098 13.7911 13.1615 13.8845 13.1375C13.9779 13.1136 14.076 13.1148 14.1688 13.1411L15.6102 13.5502C15.6899 13.5745 15.7629 13.6168 15.8238 13.6738C15.8846 13.7308 15.9316 13.8009 15.9611 13.8789C15.9906 13.9568 16.0018 14.0405 15.9939 14.1234C15.986 14.2064 15.9593 14.2865 15.9156 14.3575Z" fill="white"/>
<path d="M23.4044 5.56909C22.8658 3.40909 20.5912 1.13318 18.4299 0.594545C16.309 0.202705 14.1571 0.00371039 12.0003 0C9.8436 0.00384473 7.69165 0.202838 5.57079 0.594545C3.40942 1.13318 1.13488 3.40909 0.596242 5.56909C-0.198747 9.81905 -0.198747 14.1796 0.596242 18.4295C1.13488 20.5909 3.40942 22.8682 5.57079 23.4041C6.78306 23.6236 7.9626 23.7818 9.13124 23.8786C10.0926 23.9605 11.0403 24 11.9949 24C12.6058 24 13.214 23.9823 13.8222 23.9509C15.3662 23.8665 16.9034 23.6843 18.4244 23.4055C20.5912 22.8682 22.8658 20.5909 23.4044 18.4295C23.7103 16.7629 23.8998 15.077 23.9717 13.3841C23.9935 12.8514 24.0031 12.3191 24.0003 11.7873C23.9835 9.70113 23.7841 7.62046 23.4044 5.56909ZM19.4362 12.1773C19.396 13.4231 19.0435 14.6388 18.411 15.7129C17.7785 16.787 16.8864 17.685 15.8165 18.3245C14.7465 18.9639 13.5331 19.3244 12.2876 19.3728C11.0421 19.4212 9.80436 19.1559 8.68806 18.6014L4.93124 19.4918C4.8743 19.5051 4.81468 19.5009 4.76019 19.4797C4.70569 19.4585 4.65885 19.4214 4.62579 19.3732C4.60347 19.3412 4.58797 19.3049 4.58023 19.2667C4.57249 19.2285 4.57268 19.1891 4.58079 19.1509L5.37033 15.3177C4.85534 14.3065 4.5785 13.1908 4.561 12.0561C4.5435 10.9214 4.78579 9.79779 5.26935 8.77114C5.75291 7.7445 6.46492 6.84208 7.35089 6.13293C8.23686 5.42378 9.27331 4.9267 10.3809 4.67973C11.4886 4.43275 12.638 4.44243 13.7413 4.70801C14.8446 4.9736 15.8726 5.48806 16.7465 6.21202C17.6204 6.93598 18.3171 7.85027 18.7833 8.88491C19.2495 9.91955 19.4728 11.0471 19.4362 12.1814V12.1773Z" fill="white"/>
</g>
<defs>
<clipPath id="clip0_1_446">
<rect width="24" height="24" fill="white"/>
</clipPath>
</defs>
</svg>
