<svg width="48" height="48" viewBox="0 0 48 48" fill="none" xmlns="http://www.w3.org/2000/svg">
<rect width="48" height="48" rx="8" fill="#ED5729"/>
<path fill-rule="evenodd" clip-rule="evenodd" d="M16.9237 13.0878C16.6788 13.2108 16.5477 13.4379 16.5477 13.739C16.5477 13.9598 16.5674 14.0115 16.7118 14.1714L16.8759 14.353V15.1793V16.0057L15.5282 16.006C14.787 16.0062 14.0435 16.0277 13.8759 16.0539C13.0014 16.1903 12.2395 16.9111 12.0541 17.7775C11.9829 18.1101 11.9816 21.3457 12.0526 21.6869C12.1655 22.2304 12.5613 22.8107 13.0123 23.0941C13.1135 23.1577 13.3228 23.2604 13.4775 23.3225L13.7587 23.4353L17.4307 23.4486C19.8025 23.4573 21.1966 23.4449 21.3681 23.4138C21.7566 23.3432 22.2574 23.0794 22.541 22.7958C22.8203 22.5165 23.0869 22.0146 23.1571 21.636C23.2188 21.3033 23.218 18.1548 23.1561 17.8287C22.9873 16.9385 22.2195 16.1927 21.329 16.0539C21.1614 16.0277 20.4073 16.0062 19.6532 16.006L18.2821 16.0057V15.1935V14.3814L18.4037 14.2677C18.7898 13.9071 18.728 13.3123 18.2812 13.0878C18.0481 12.9707 17.1567 12.9707 16.9237 13.0878ZM23.6823 13.1054C23.4519 13.2194 23.2977 13.4691 23.2977 13.7278C23.2977 13.845 23.51 14.3168 24.0477 15.3948L24.7977 16.8984V19.141C24.7977 20.4344 24.8175 21.4903 24.8445 21.636C24.9147 22.0146 25.1813 22.5165 25.4606 22.7958C25.7442 23.0794 26.245 23.3432 26.6335 23.4138C26.8051 23.4449 28.1974 23.4571 30.5709 23.4482C34.2177 23.4346 34.2447 23.4338 34.5124 23.332C35.2636 23.0461 35.7892 22.4441 35.9484 21.6869C35.984 21.5179 36.0005 20.4085 36 18.2182C35.9992 14.7069 35.9957 14.6532 35.7299 14.1594C35.4453 13.6306 34.8376 13.1844 34.2289 13.0575C34.0564 13.0215 32.4367 13.0057 28.9321 13.0057L23.8836 13.0058L23.6823 13.1054ZM25.1727 14.4592C25.1727 14.4852 25.4047 14.9702 25.6883 15.5369L26.2039 16.5674L26.2049 18.9701C26.2059 21.2011 26.2121 21.3862 26.2921 21.5603C26.3945 21.7833 26.499 21.8833 26.7314 21.9804C26.8815 22.0431 27.3581 22.0524 30.386 22.0522C32.5264 22.0521 33.9319 22.0342 34.034 22.0058C34.2225 21.9534 34.4707 21.7184 34.5447 21.5221C34.578 21.4338 34.5945 20.3437 34.5945 18.2277C34.5945 15.6466 34.5826 15.0374 34.5299 14.9143C34.4519 14.7319 34.2436 14.5296 34.0641 14.4618C33.8851 14.3942 25.1727 14.3916 25.1727 14.4592ZM28.3011 16.0727C28.2042 16.1072 28.0921 16.1628 28.0519 16.1961C27.8325 16.3782 27.775 16.843 27.939 17.1084C28.1264 17.4116 28.1287 17.4119 30.396 17.4119C32.6035 17.4119 32.677 17.4045 32.8346 17.1638C33.1229 16.7238 32.9423 16.1879 32.4617 16.0572C32.1698 15.9778 28.5289 15.9914 28.3011 16.0727ZM13.9535 17.4803C13.7352 17.5581 13.5777 17.6994 13.4801 17.9052C13.4184 18.0353 13.4072 18.3142 13.4072 19.7245C13.4072 20.785 13.4252 21.4381 13.4569 21.5221C13.5309 21.7184 13.7791 21.9534 13.9676 22.0058C14.0697 22.0342 15.4752 22.0521 17.6156 22.0522C20.6435 22.0524 21.1201 22.0431 21.2702 21.9804C21.5026 21.8833 21.6071 21.7833 21.7095 21.5603C21.7879 21.3897 21.7956 21.2249 21.7956 19.7322C21.7956 18.2395 21.7879 18.0747 21.7095 17.9041C21.604 17.6743 21.4836 17.5631 21.25 17.4798C20.9853 17.3854 14.2184 17.3858 13.9535 17.4803ZM15.343 19.142C14.9162 19.4089 14.9355 20.0802 15.3775 20.3399C15.6186 20.4816 16.2235 20.4752 16.4607 20.3285C16.8612 20.0809 16.8921 19.5364 16.5251 19.1931C16.4121 19.0875 16.3552 19.0746 15.9464 19.0621C15.5589 19.0502 15.4713 19.0618 15.343 19.142ZM18.7538 19.1382C18.3092 19.3766 18.3173 20.113 18.7671 20.3521C18.9788 20.4647 19.6113 20.4638 19.8193 20.3507C20.2672 20.1071 20.2718 19.3518 19.8268 19.1217C19.6262 19.018 18.9587 19.0282 18.7538 19.1382ZM28.1398 19.1444C27.9431 19.2642 27.8445 19.4639 27.8447 19.7416C27.8449 20.0139 27.9663 20.2331 28.1823 20.351C28.3205 20.4265 28.4742 20.4353 29.6492 20.4353C31.1092 20.4353 31.1752 20.423 31.362 20.1166C31.487 19.9116 31.4841 19.5578 31.3556 19.3499C31.1762 19.0596 31.1352 19.0525 29.6398 19.0527C28.3836 19.0528 28.2794 19.0592 28.1398 19.1444ZM13.733 25.1164C12.9071 25.2942 12.2278 25.9848 12.0527 26.8243C12.0178 26.9918 12.0011 28.1204 12.0016 30.293C12.0024 33.8043 12.0059 33.858 12.2717 34.3518C12.5524 34.8734 13.1732 35.3292 13.7727 35.4538C13.9411 35.4888 15.1804 35.5055 17.6183 35.5055C21.5376 35.5055 21.481 35.509 22.0256 35.2359C22.5601 34.9679 23.0378 34.3117 23.1564 33.6827C23.1844 33.534 23.2039 32.508 23.2039 31.1877V28.9452L23.9539 27.4416C24.4427 26.4617 24.7039 25.8869 24.7039 25.7913C24.7039 25.5348 24.534 25.2568 24.3113 25.149C24.1135 25.0533 24.0693 25.0525 19.0524 25.0564C15.3183 25.0593 13.925 25.075 13.733 25.1164ZM30.2586 25.0799C28.942 25.2673 27.952 25.743 27.0951 26.5999C26.0005 27.6945 25.4349 29.2379 25.5923 30.7003C25.8321 32.9271 27.0934 34.5487 29.0937 35.2016C30.2862 35.5908 31.7585 35.5282 32.9094 35.0391C34.4696 34.3761 35.5539 33.0023 35.8844 31.2698C36.0507 30.3978 36.0204 29.6346 35.7875 28.8259C35.2689 27.0251 33.7537 25.5972 31.9295 25.1902C31.5404 25.1034 30.5519 25.0381 30.2586 25.0799ZM13.9511 26.5074C13.7754 26.5599 13.5534 26.7699 13.4717 26.9611C13.419 27.0842 13.4072 27.6933 13.4072 30.2744C13.4072 32.3949 13.4236 33.4804 13.457 33.5689C13.5249 33.7484 13.7271 33.9567 13.9096 34.0347C14.0332 34.0876 14.7005 34.0993 17.6126 34.0992C21.5937 34.0991 21.3378 34.121 21.6303 33.7551L21.7743 33.5751L21.7977 31.0598L21.8211 28.5446L22.325 27.549C22.6022 27.0014 22.8289 26.532 22.8289 26.506C22.8289 26.4467 14.1495 26.448 13.9511 26.5074ZM30.0711 26.5247C28.8526 26.7624 27.8768 27.5434 27.3331 28.716C27.0657 29.2927 26.9845 29.6655 26.9824 30.3258C26.981 30.7741 27.0023 30.9644 27.0874 31.2627C27.2125 31.7015 27.4046 32.1205 27.6119 32.4068L27.76 32.6112L28.0346 32.3069C28.1857 32.1395 28.4574 31.9014 28.6385 31.7776L28.9677 31.5527L28.8751 31.4029C28.5048 30.8037 28.481 29.9988 28.8135 29.318C29.4816 27.9501 31.2641 27.6465 32.3151 28.7217C32.6549 29.0693 32.8444 29.4339 32.9415 29.9269C33.031 30.381 32.9658 30.8304 32.7476 31.264L32.5982 31.5609L32.8888 31.7519C33.0486 31.857 33.319 32.0937 33.4895 32.2779C33.6601 32.4622 33.8063 32.6045 33.8145 32.5943C33.939 32.4388 34.1627 32.0619 34.267 31.8319C34.8923 30.4529 34.5872 28.7879 33.4993 27.6423C32.9773 27.0927 32.4183 26.756 31.7351 26.5798C31.3173 26.472 30.4829 26.4444 30.0711 26.5247ZM15.4931 28.1219C14.9489 28.3173 14.8585 29.0714 15.3437 29.3673C15.4858 29.4539 15.5961 29.4583 17.6024 29.4582C19.59 29.4581 19.7195 29.4529 19.8458 29.3697C20.1572 29.1644 20.2589 28.7122 20.0652 28.3946C19.8704 28.0749 19.8856 28.077 17.6727 28.0652C16.0394 28.0565 15.6468 28.0667 15.4931 28.1219ZM30.5475 29.5161C29.9843 29.665 29.7966 30.4233 30.2185 30.8451C30.7876 31.4143 31.726 30.8854 31.5485 30.0954C31.447 29.6441 31.0133 29.393 30.5475 29.5161ZM15.3437 31.1907C14.9819 31.4113 14.9209 31.9616 15.2229 32.2811C15.4132 32.4824 15.6818 32.5152 16.9931 32.4977C18.0136 32.4841 18.1848 32.4712 18.3193 32.3978C18.7666 32.1536 18.7706 31.4233 18.3261 31.1849C18.1821 31.1077 18.0349 31.0993 16.8297 31.0995C15.5889 31.0996 15.4824 31.1062 15.3437 31.1907ZM30.1736 32.5759C29.6797 32.7117 29.0624 33.1409 28.8855 33.4716C28.8367 33.5629 28.856 33.5819 29.1339 33.7174C29.6802 33.9838 30.0909 34.0728 30.7742 34.0728C31.2635 34.0728 31.4555 34.0522 31.7487 33.9685C32.1882 33.8429 32.7195 33.6085 32.7195 33.5401C32.7195 33.4462 32.1328 32.9019 31.8957 32.7757C31.4094 32.5171 30.6908 32.4337 30.1736 32.5759Z" fill="white"/>
</svg>
