<svg width="48" height="48" viewBox="0 0 48 48" fill="none" xmlns="http://www.w3.org/2000/svg">
<rect width="48" height="48" rx="8" fill="#EEF3ED"/>
<g clip-path="url(#clip0_4_62)">
<path fill-rule="evenodd" clip-rule="evenodd" d="M21.9635 12.0581C21.9534 12.0906 21.9124 12.3884 21.8724 12.7198C21.7926 13.3815 21.7245 13.5517 21.471 13.7225C21.2832 13.849 20.97 13.8628 20.7418 13.7545C20.6415 13.7069 20.4422 13.4905 20.1786 13.143C19.9542 12.8472 19.7528 12.6113 19.7312 12.619C19.5944 12.6671 16.268 14.6092 16.2669 14.6416C16.2662 14.6637 16.3743 14.9379 16.5072 15.251C16.7909 15.9195 16.8183 16.1608 16.6401 16.4209C16.3597 16.8301 16.0563 16.8489 15.251 16.5072C14.9379 16.3743 14.6637 16.266 14.6416 16.2666C14.6095 16.2674 12.6667 19.5938 12.6198 19.7283C12.6126 19.7489 12.8481 19.9497 13.143 20.1746C13.4907 20.4396 13.7055 20.6386 13.7537 20.7402C13.8627 20.9699 13.8493 21.2828 13.7225 21.471C13.5495 21.7277 13.3818 21.7932 12.6719 21.8817L12.0234 21.9625V24V26.0375L12.6719 26.1183C13.3818 26.2068 13.5495 26.2723 13.7225 26.529C13.849 26.7168 13.8628 27.03 13.7545 27.2582C13.7071 27.3579 13.4889 27.5597 13.1435 27.823C12.848 28.0484 12.6122 28.2502 12.6195 28.2715C12.6647 28.4035 14.6091 31.7319 14.6416 31.733C14.6637 31.7338 14.9379 31.6257 15.251 31.4928C16.0563 31.1511 16.3597 31.1699 16.6401 31.5791C16.8183 31.8392 16.7909 32.0805 16.5072 32.749C16.3743 33.0621 16.2662 33.3363 16.2669 33.3584C16.268 33.3907 19.5944 35.3329 19.7312 35.381C19.7528 35.3887 19.9542 35.1528 20.1786 34.857C20.4422 34.5095 20.6415 34.2931 20.7418 34.2455C20.97 34.1372 21.2832 34.151 21.471 34.2775C21.7277 34.4505 21.7932 34.6182 21.8817 35.3281L21.9625 35.9766H24H26.0375L26.1183 35.3281C26.2068 34.6182 26.2723 34.4505 26.529 34.2775C26.7168 34.151 27.03 34.1372 27.2582 34.2455C27.3584 34.293 27.5574 34.509 27.8198 34.8549C28.0433 35.1495 28.2365 35.3906 28.249 35.3906C28.2706 35.3906 31.6887 33.4278 31.7314 33.3908C31.7427 33.381 31.6707 33.1784 31.5715 32.9404C31.1626 31.9602 31.1497 31.8161 31.4413 31.4933C31.7545 31.1467 31.9505 31.1543 32.894 31.5498C33.158 31.6605 33.3815 31.742 33.3906 31.731C33.4326 31.6802 35.3906 28.2682 35.3906 28.2457C35.3906 28.2317 35.1499 28.0394 34.8556 27.8183C34.5041 27.5543 34.2951 27.3628 34.2463 27.2598C34.1373 27.0301 34.1507 26.7172 34.2775 26.529C34.45 26.2731 34.6193 26.2062 35.3049 26.1233C35.6485 26.0818 35.9561 26.0274 35.9883 26.0025C36.0335 25.9676 36.0469 25.5019 36.0469 23.9573V21.9574L35.8945 21.9467C35.3751 21.9101 34.6556 21.7868 34.5286 21.7127C34.3095 21.5847 34.1719 21.3506 34.1719 21.1056C34.1719 20.7566 34.2741 20.6184 34.8556 20.1817C35.1499 19.9606 35.3906 19.7683 35.3906 19.7543C35.3906 19.7318 33.4326 16.3198 33.3906 16.269C33.3815 16.258 33.158 16.3395 32.894 16.4502C31.9505 16.8457 31.7545 16.8533 31.4413 16.5067C31.1497 16.1839 31.1626 16.0398 31.5715 15.0596C31.6707 14.8216 31.7427 14.619 31.7314 14.6092C31.6887 14.5722 28.2706 12.6094 28.249 12.6094C28.2365 12.6094 28.0433 12.8505 27.8198 13.1451C27.5574 13.491 27.3584 13.707 27.2582 13.7545C27.03 13.8628 26.7168 13.849 26.529 13.7225C26.2723 13.5495 26.2068 13.3818 26.1183 12.6719L26.0375 12.0234L24.0097 12.0112C22.4107 12.0016 21.978 12.0115 21.9635 12.0581ZM23.1583 13.6289C22.9221 14.5679 22.0567 15.2344 21.0739 15.2344C20.4977 15.2344 20.021 15.0435 19.59 14.6405L19.374 14.4384L18.7305 14.8086C18.3765 15.0121 18.0768 15.1889 18.0644 15.2012C18.052 15.2136 18.0764 15.3941 18.1186 15.6023C18.2617 16.3085 18.0527 17.0027 17.5394 17.5261C17.0303 18.0451 16.3169 18.2633 15.6023 18.1186C15.3941 18.0764 15.2136 18.052 15.2012 18.0644C15.1889 18.0768 15.0121 18.3765 14.8086 18.7305L14.4384 19.374L14.6405 19.59C15.0435 20.021 15.2344 20.4977 15.2344 21.0739C15.2344 22.0567 14.5679 22.9221 13.6289 23.1583L13.4062 23.2142V24V24.7858L13.6289 24.8417C14.5708 25.0787 15.2344 25.9402 15.2344 26.9261C15.2344 27.5023 15.0435 27.979 14.6405 28.41L14.4384 28.626L14.8086 29.2695C15.0121 29.6235 15.1889 29.9232 15.2012 29.9356C15.2136 29.948 15.3981 29.9228 15.6112 29.8796C15.9369 29.8136 16.0512 29.8098 16.3287 29.8556C17.2828 30.0132 17.9952 30.7299 18.1427 31.6805C18.1862 31.961 18.1821 32.0842 18.1186 32.3977C18.0764 32.6059 18.052 32.7864 18.0644 32.7988C18.0768 32.8111 18.3765 32.9879 18.7305 33.1914L19.374 33.5616L19.59 33.3595C20.021 32.9565 20.4977 32.7656 21.0739 32.7656C22.0567 32.7656 22.9221 33.4321 23.1583 34.3711L23.2142 34.5937H24H24.7858L24.8417 34.3711C25.0779 33.4321 25.9432 32.7656 26.9261 32.7656C27.5023 32.7656 27.979 32.9565 28.41 33.3595L28.626 33.5616L29.2695 33.1914C29.6235 32.9879 29.9232 32.8111 29.9356 32.7988C29.948 32.7864 29.9228 32.6019 29.8796 32.3888C29.814 32.0647 29.8099 31.947 29.8547 31.6687C30.0056 30.7315 30.7315 30.0056 31.6687 29.8547C31.947 29.8099 32.0647 29.814 32.3888 29.8796C32.6019 29.9228 32.7864 29.948 32.7988 29.9356C32.8111 29.9232 32.9879 29.6235 33.1914 29.2695L33.5616 28.626L33.3595 28.41C32.9565 27.979 32.7656 27.5023 32.7656 26.9261C32.7656 25.9432 33.4321 25.0779 34.3711 24.8417L34.5937 24.7858V24V23.2142L34.3711 23.1583C33.435 22.9228 32.7656 22.0537 32.7656 21.0739C32.7656 20.4977 32.9565 20.021 33.3595 19.59L33.5616 19.374L33.1914 18.7305C32.9879 18.3765 32.8111 18.0768 32.7988 18.0644C32.7864 18.052 32.6059 18.0764 32.3977 18.1186C32.0842 18.1821 31.961 18.1862 31.6805 18.1427C30.7352 17.9961 30.0063 17.2729 29.8547 16.3313C29.8099 16.053 29.814 15.9353 29.8796 15.6112C29.9228 15.3981 29.948 15.2136 29.9356 15.2012C29.9232 15.1889 29.6235 15.0121 29.2695 14.8086L28.626 14.4384L28.41 14.6405C27.979 15.0435 27.5023 15.2344 26.9261 15.2344C25.9432 15.2344 25.0779 14.5679 24.8417 13.6289L24.7858 13.4062H24H23.2142L23.1583 13.6289ZM23.0391 15.7794C22.4869 15.8617 21.8312 16.0169 21.3541 16.1782C18.5519 17.1261 16.527 19.431 15.8829 22.4062C15.789 22.8397 15.7763 23.0299 15.7763 24C15.7763 24.9701 15.789 25.1603 15.8829 25.5937C16.6108 28.9557 19.0846 31.4213 22.4297 32.1187C22.883 32.2132 23.0755 32.2259 24.0234 32.2241C24.9608 32.2224 25.1658 32.2083 25.5937 32.1164C28.9507 31.3949 31.4211 28.9165 32.1187 25.5703C32.2132 25.117 32.2259 24.9245 32.2241 23.9766C32.2224 23.0392 32.2083 22.8342 32.1164 22.4062C31.3984 19.0658 28.9428 16.6033 25.6172 15.8888C25.2414 15.8081 24.9532 15.7852 24.1641 15.7733C23.6227 15.7652 23.1164 15.7679 23.0391 15.7794ZM23.1094 17.1875C22.4544 17.2754 21.5522 17.5583 20.9297 17.8711C20.0308 18.3226 19.0964 19.1074 18.4896 19.9203C17.9426 20.6531 17.4745 21.6952 17.2672 22.6419C17.1425 23.2112 17.1425 24.7888 17.2672 25.3581C17.5491 26.6451 18.1487 27.7825 19.0312 28.7043C20.0301 29.7474 21.1545 30.3855 22.5679 30.711C23.1803 30.8521 24.3645 30.8826 25.0553 30.775C26.0887 30.6142 27.2627 30.1237 28.0797 29.5115C28.6011 29.1209 29.3458 28.343 29.6773 27.8426C30.1825 27.0801 30.5479 26.2115 30.7317 25.3359C30.857 24.7392 30.8574 23.215 30.7324 22.6419C30.5443 21.7793 30.1736 20.9065 29.6773 20.1574C29.3466 19.6582 28.6024 18.8804 28.0797 18.4875C27.3888 17.9682 26.3082 17.481 25.3828 17.2716C25.057 17.1978 23.4695 17.1391 23.1094 17.1875ZM24.7115 20.8242C24.6621 20.9338 24.0177 22.3164 23.2796 23.8967C22.5414 25.477 21.9375 26.7869 21.9375 26.8075C21.9375 26.8446 23.1573 27.4368 23.1818 27.4116C23.2167 27.3755 26.0625 21.2446 26.0625 21.2054C26.0625 21.1595 24.9484 20.625 24.8526 20.625C24.8243 20.625 24.7609 20.7146 24.7115 20.8242ZM19.6874 22.6642L18.352 24.0002L19.6991 25.3473L21.0461 26.6944L21.5389 26.2033L22.0316 25.7122L21.1764 24.8561L20.3212 24L21.1764 23.1439L22.0316 22.2877L21.5502 21.8079C21.2854 21.544 21.0584 21.3281 21.0457 21.3281C21.0331 21.3281 20.4219 21.9293 19.6874 22.6642ZM26.449 21.8082L25.9689 22.2883L26.8238 23.1442L27.6787 24L26.8236 24.8561L25.9684 25.7122L26.4611 26.2033L26.9539 26.6944L28.3009 25.3473L29.648 24.0002L28.3126 22.6642C27.5781 21.9293 26.9663 21.3281 26.9531 21.3281C26.94 21.3281 26.7131 21.5442 26.449 21.8082ZM12.0215 24C12.0215 25.1215 12.0276 25.5803 12.0351 25.0195C12.0426 24.4588 12.0426 23.5412 12.0351 22.9805C12.0276 22.4197 12.0215 22.8785 12.0215 24Z" fill="black" fill-opacity="0.5"/>
</g>
<defs>
<clipPath id="clip0_4_62">
<rect width="24" height="24" fill="white" transform="translate(12 12)"/>
</clipPath>
</defs>
</svg>
