<svg width="48" height="48" viewBox="0 0 48 48" fill="none" xmlns="http://www.w3.org/2000/svg">
<rect width="48" height="48" rx="8" fill="#ED5729"/>
<g clip-path="url(#clip0_1_246)">
<path fill-rule="evenodd" clip-rule="evenodd" d="M12.3562 12.1113C11.9918 12.3319 12.0044 12.2278 12.0022 15.037C12.0004 17.3994 12.0051 17.5445 12.0892 17.7093C12.1923 17.9115 12.4819 18.0938 12.6999 18.0938C12.928 18.0938 13.1834 17.9388 13.3014 17.7289C13.4059 17.5431 13.4065 17.5295 13.4065 15.4741V13.4063H15.4709C17.4053 13.4063 17.5462 13.4007 17.7096 13.3173C17.9129 13.2136 18.094 12.9243 18.094 12.7031C18.094 12.482 17.9129 12.1927 17.7096 12.0889C17.5448 12.0049 17.3977 12 15.0373 12.0003L12.5393 12.0005L12.3562 12.1113ZM30.2624 12.1113C29.7948 12.3944 29.7996 13.036 30.2714 13.3012C30.4572 13.4057 30.4708 13.4063 32.5262 13.4063H34.594V15.4706C34.594 17.8084 34.5901 17.7814 34.9589 17.9887C35.3054 18.1834 35.7015 18.0736 35.8952 17.7289L36.0003 17.542V15.0469V12.5518L35.8952 12.3648C35.8335 12.2551 35.7181 12.1411 35.6158 12.0889C35.4511 12.0049 35.3039 12 32.9436 12.0003L30.4456 12.0005L30.2624 12.1113ZM16.4768 14.9255C15.6638 15.1273 15.0407 15.8015 14.898 16.6338C14.7495 17.4998 15.1939 18.4068 15.9611 18.8035L16.2656 18.961L16.2657 20.485L16.2659 22.0091L16.0198 22.1242C15.6991 22.2742 15.2444 22.7328 15.0822 23.0702C14.5938 24.0854 14.9903 25.3328 15.9611 25.8348L16.2656 25.9922L16.2657 27.5163L16.2659 29.0404L16.0198 29.1555C15.6991 29.3054 15.2444 29.7641 15.0822 30.1014C14.47 31.3741 15.2427 32.8637 16.6393 33.1032C17.4964 33.2501 18.4105 32.7999 18.8054 32.0361L18.9612 31.7347H20.4847H22.0081L22.1639 32.0361C22.5588 32.7999 23.4729 33.2501 24.33 33.1032C24.9815 32.9915 25.5513 32.5879 25.8367 32.0361L25.9925 31.7347H27.5159H29.0393L29.1952 32.0361C29.5912 32.8021 30.5039 33.2502 31.3664 33.1023C32.2633 32.9485 32.9491 32.261 33.1034 31.361C33.2504 30.5039 32.8001 29.5898 32.0363 29.1949L31.735 29.0391V27.5156V25.9922L32.0363 25.8364C32.5882 25.5511 32.9917 24.9813 33.1034 24.3297C33.2504 23.4726 32.8001 22.5586 32.0363 22.1636L31.735 22.0078V20.4844V18.961L32.0363 18.8051C32.8001 18.4102 33.2504 17.4962 33.1034 16.639C32.9906 15.9811 32.5923 15.4233 32.0208 15.123C31.409 14.8015 30.7155 14.7867 30.1017 15.082C29.7644 15.2442 29.3057 15.6988 29.1557 16.0195L29.0407 16.2656L27.5166 16.2655L25.9925 16.2653L25.835 15.9608C25.3331 14.9901 24.0857 14.5936 23.0704 15.082C22.7331 15.2442 22.2744 15.6988 22.1245 16.0195L22.0094 16.2656L20.4853 16.2655L18.9612 16.2653L18.8038 15.9608C18.3807 15.1426 17.3858 14.6999 16.4768 14.9255ZM16.6297 16.3623C16.4318 16.4668 16.2659 16.7433 16.2659 16.9688C16.2659 17.3153 16.6207 17.6719 16.9656 17.6719C17.3256 17.6719 17.6722 17.327 17.6722 16.9688C17.6722 16.7362 17.5064 16.4661 17.2984 16.36C17.0674 16.2422 16.8559 16.2429 16.6297 16.3623ZM23.6609 16.3623C23.463 16.4668 23.2972 16.7433 23.2972 16.9688C23.2972 17.3153 23.652 17.6719 23.9968 17.6719C24.3569 17.6719 24.7034 17.327 24.7034 16.9688C24.7034 16.7362 24.5376 16.4661 24.3296 16.36C24.0987 16.2422 23.8871 16.2429 23.6609 16.3623ZM30.6922 16.3623C30.4943 16.4668 30.3284 16.7433 30.3284 16.9688C30.3284 17.3153 30.6832 17.6719 31.0281 17.6719C31.3881 17.6719 31.7347 17.327 31.7347 16.9688C31.7347 16.7362 31.5689 16.4661 31.3609 16.36C31.1299 16.2422 30.9184 16.2429 30.6922 16.3623ZM18.9123 17.7721C18.8852 17.8575 19.1921 18.184 20.9886 19.9804C22.7851 21.7769 23.1116 22.0839 23.1969 22.0568C23.2966 22.0251 23.2972 22.0166 23.2972 20.4923V18.9596L23.0511 18.8446C22.735 18.6968 22.2722 18.234 22.1245 17.918L22.0094 17.6719H20.4767C18.9524 17.6719 18.9439 17.6725 18.9123 17.7721ZM25.8761 17.918C25.8126 18.0537 25.6342 18.2908 25.4783 18.4468C25.3223 18.6027 25.0852 18.7811 24.9495 18.8446L24.7034 18.9596V20.4923C24.7034 22.0166 24.704 22.0251 24.8036 22.0568C24.889 22.0839 25.2155 21.7769 27.0119 19.9804C28.8084 18.184 29.1154 17.8575 29.0883 17.7721C29.0566 17.6725 29.0482 17.6719 27.5238 17.6719H25.9912L25.8761 17.918ZM17.7307 18.9217C17.6856 18.9399 17.6722 19.2955 17.6722 20.4772V22.0091L17.9182 22.1242C18.2343 22.272 18.6971 22.7348 18.8448 23.0508L18.9599 23.2969H20.4926C22.0164 23.2969 22.0254 23.2963 22.057 23.1968C22.084 23.1115 21.7769 22.7847 19.9861 20.9937C18.8297 19.837 17.8623 18.8923 17.8364 18.8943C17.8105 18.8964 17.763 18.9087 17.7307 18.9217ZM28.0144 20.9937C26.2237 22.7847 25.9165 23.1115 25.9436 23.1968C25.9752 23.2963 25.9841 23.2969 27.508 23.2969H29.0407L29.1557 23.0508C29.3035 22.7348 29.7663 22.272 30.0823 22.1242L30.3284 22.0091V20.4783C30.3284 18.8908 30.3284 18.8906 30.1486 18.8906C30.1312 18.8906 29.1709 19.837 28.0144 20.9937ZM16.6297 23.3935C16.4318 23.498 16.2659 23.7746 16.2659 24C16.2659 24.3465 16.6207 24.7031 16.9656 24.7031C17.3256 24.7031 17.6722 24.3583 17.6722 24C17.6722 23.7674 17.5064 23.4974 17.2984 23.3913C17.0674 23.2735 16.8559 23.2742 16.6297 23.3935ZM23.6609 23.3935C23.463 23.498 23.2972 23.7746 23.2972 24C23.2972 24.3465 23.652 24.7031 23.9968 24.7031C24.3569 24.7031 24.7034 24.3583 24.7034 24C24.7034 23.7674 24.5376 23.4974 24.3296 23.3913C24.0987 23.2735 23.8871 23.2742 23.6609 23.3935ZM30.6922 23.3935C30.4943 23.498 30.3284 23.7746 30.3284 24C30.3284 24.3465 30.6832 24.7031 31.0281 24.7031C31.3881 24.7031 31.7347 24.3583 31.7347 24C31.7347 23.7674 31.5689 23.4974 31.3609 23.3913C31.1299 23.2735 30.9184 23.2742 30.6922 23.3935ZM18.8448 24.9492C18.6971 25.2653 18.2343 25.7281 17.9182 25.8758L17.6722 25.9909V27.5236C17.6722 29.0479 17.6727 29.0564 17.7724 29.088C17.8577 29.1151 18.1842 28.8082 19.9807 27.0117C21.7772 25.2152 22.0841 24.8887 22.057 24.8034C22.0254 24.7037 22.0169 24.7031 20.4926 24.7031H18.9599L18.8448 24.9492ZM25.9435 24.8034C25.9164 24.8887 26.2234 25.2152 28.0199 27.0117C29.8163 28.8082 30.1428 29.1151 30.2282 29.088C30.3278 29.0564 30.3284 29.0479 30.3284 27.5236V25.9909L30.0823 25.8758C29.7663 25.7281 29.3035 25.2653 29.1557 24.9492L29.0407 24.7031H27.508C25.9837 24.7031 25.9752 24.7037 25.9435 24.8034ZM20.9832 28.0249C19.1924 29.816 18.8853 30.1428 18.9123 30.2281C18.9439 30.3276 18.9529 30.3281 20.4767 30.3281H22.0094L22.1245 30.082C22.2722 29.766 22.735 29.3032 23.0511 29.1555L23.2972 29.0404V27.5096C23.2972 25.922 23.2972 25.9219 23.1173 25.9219C23.1 25.9219 22.1396 26.8683 20.9832 28.0249ZM24.762 25.9529C24.7168 25.9712 24.7034 26.3268 24.7034 27.5085V29.0404L24.9495 29.1555C25.2655 29.3032 25.7283 29.766 25.8761 30.082L25.9912 30.3281H27.5238C29.0477 30.3281 29.0566 30.3276 29.0882 30.2281C29.1153 30.1428 28.8081 29.816 27.0174 28.0249C25.8609 26.8683 24.8935 25.9236 24.8677 25.9256C24.8418 25.9276 24.7942 25.9399 24.762 25.9529ZM12.3562 30.0176C11.9918 30.2381 12.0044 30.134 12.0022 32.9433C12.0004 35.3056 12.0051 35.4507 12.0892 35.6155C12.1414 35.7178 12.2554 35.8332 12.3651 35.8949L12.5521 36H15.0437C17.3976 36 17.5449 35.9951 17.7096 35.9111C17.9129 35.8074 18.094 35.518 18.094 35.2969C18.094 35.0757 17.9129 34.7864 17.7096 34.6827C17.5462 34.5993 17.4053 34.5938 15.4709 34.5938H13.4065V32.5259C13.4065 30.4705 13.4059 30.457 13.3014 30.2711C13.1058 29.9231 12.6945 29.8128 12.3562 30.0176ZM34.9499 30.0176C34.5912 30.2348 34.5982 30.1853 34.596 32.5195L34.594 34.5938H32.5262C30.4708 34.5938 30.4572 34.5944 30.2714 34.6989C29.7969 34.9655 29.7969 35.6283 30.2714 35.8949L30.4583 36H32.9499C35.3038 36 35.4511 35.9951 35.6158 35.9111C35.7181 35.8589 35.8335 35.7449 35.8952 35.6352L36.0003 35.4482V32.9531V30.4581L35.8952 30.2711C35.6996 29.9231 35.2883 29.8128 34.9499 30.0176ZM16.6297 30.4248C16.4318 30.5293 16.2659 30.8058 16.2659 31.0313C16.2659 31.3778 16.6207 31.7344 16.9656 31.7344C17.3256 31.7344 17.6722 31.3895 17.6722 31.0313C17.6722 30.7987 17.5064 30.5286 17.2984 30.4225C17.0674 30.3047 16.8559 30.3054 16.6297 30.4248ZM23.6609 30.4248C23.463 30.5293 23.2972 30.8058 23.2972 31.0313C23.2972 31.3778 23.652 31.7344 23.9968 31.7344C24.3569 31.7344 24.7034 31.3895 24.7034 31.0313C24.7034 30.7987 24.5376 30.5286 24.3296 30.4225C24.0987 30.3047 23.8871 30.3054 23.6609 30.4248ZM30.6922 30.4248C30.4943 30.5293 30.3284 30.8058 30.3284 31.0313C30.3284 31.3778 30.6832 31.7344 31.0281 31.7344C31.3881 31.7344 31.7347 31.3895 31.7347 31.0313C31.7347 30.7987 31.5689 30.5286 31.3609 30.4225C31.1299 30.3047 30.9184 30.3054 30.6922 30.4248Z" fill="white"/>
</g>
<defs>
<clipPath id="clip0_1_246">
<rect width="24" height="24" fill="white" transform="translate(12 12)"/>
</clipPath>
</defs>
</svg>
