<svg width="48" height="48" viewBox="0 0 48 48" fill="none" xmlns="http://www.w3.org/2000/svg">
<rect width="48" height="48" rx="8" fill="#ED5729"/>
<g clip-path="url(#clip0_1_257)">
<path fill-rule="evenodd" clip-rule="evenodd" d="M14.0364 12.1327C13.5648 12.2969 13.2098 12.5302 12.8559 12.9085C12.5207 13.2668 12.3719 13.5143 12.2011 13.9973L12.0703 14.3671L12.0576 20.7991C12.0435 27.9854 12.0272 27.6004 12.3746 28.2908C12.6832 28.904 13.0967 29.3123 13.7247 29.6239C14.2872 29.9029 14.3124 29.9048 17.6133 29.9055C19.5967 29.906 20.625 29.9223 20.625 29.9533C20.625 29.9791 20.0555 31.1392 19.3594 32.5312C18.0139 35.2217 17.9992 35.2592 18.1631 35.5763C18.3826 36.0008 18.9849 36.0716 19.2901 35.7089C19.359 35.627 20.0513 34.2879 20.8286 32.7331L22.2418 29.9062H23.672H25.1022L26.4847 32.6778C27.2451 34.2023 27.9265 35.5328 27.999 35.6346C28.2969 36.0529 28.8556 36.0482 29.1445 35.625C29.3681 35.2974 29.3693 35.3008 27.9844 32.5312C27.2883 31.1392 26.7188 29.9791 26.7188 29.9533C26.7188 29.9222 27.8712 29.906 30.1055 29.9055C33.8171 29.9048 33.8007 29.9058 34.369 29.6239C35.1307 29.246 35.6667 28.6249 35.9123 27.836C35.9963 27.5661 36 27.2721 35.9994 20.9372L35.9987 14.3203L35.8675 13.9453C35.7087 13.4913 35.5508 13.2347 35.2111 12.8784C34.8701 12.5208 34.5173 12.2928 34.0573 12.1327L33.6797 12.0012H24.0469H14.4141L14.0364 12.1327ZM14.572 13.4325C14.2533 13.5309 13.9193 13.7735 13.7465 14.0319C13.4467 14.4806 13.4531 14.3909 13.4531 18.1138V21.4919L14.7433 20.2018L16.0335 18.9116L15.9347 18.6315C15.8018 18.2545 15.7994 17.6165 15.9295 17.245C16.2528 16.3219 17.0468 15.7478 18.0076 15.7421C18.638 15.7384 19.1311 15.9398 19.5722 16.3808C20.1556 16.9643 20.3677 17.8426 20.1098 18.6082L20.009 18.9072L21.3131 20.2096L22.6172 21.5121L22.875 21.3482C23.3946 21.0179 23.9932 20.9233 24.6003 21.0756L24.9019 21.1512L25.0573 20.9936C25.1427 20.9069 25.8766 20.0878 26.688 19.1734L28.1634 17.5109L28.0788 17.345C27.8625 16.9209 27.8177 16.2105 27.978 15.745C28.4247 14.4475 29.8377 13.8637 31.0666 14.4689C31.4666 14.6659 31.8451 15.0446 32.04 15.443L32.1673 15.7031H33.4088H34.6503L34.6337 15.1278C34.6183 14.5894 34.6073 14.5325 34.4639 14.2411C34.2883 13.8845 34.0763 13.6787 33.7053 13.5047L33.4453 13.3828L24.1172 13.3741C16.1415 13.3666 14.7576 13.3751 14.572 13.4325ZM29.7336 15.7004C29.1388 15.9705 29.1355 16.8289 29.7281 17.1372C29.7978 17.1735 29.956 17.203 30.0797 17.2029C30.5892 17.2025 30.9567 16.7426 30.8446 16.2458C30.7877 15.9936 30.6646 15.8393 30.4209 15.7148C30.1703 15.5867 29.9922 15.583 29.7336 15.7004ZM17.835 17.153C17.4676 17.2408 17.2366 17.5407 17.2366 17.9296C17.2366 18.6468 18.0707 18.9917 18.5781 18.4843C18.8532 18.2093 18.8907 17.7894 18.6703 17.4531C18.5191 17.2224 18.1298 17.0826 17.835 17.153ZM32.0403 17.4007C31.8603 17.7755 31.4618 18.1813 31.0891 18.3694L30.7969 18.5169V23.511V28.5052L32.168 28.4909L33.5391 28.4765L33.7734 28.3515C34.077 28.1897 34.374 27.8808 34.5095 27.5859L34.6172 27.3515L34.6299 22.2304L34.6426 17.1093L33.4111 17.1099L32.1797 17.1105L32.0403 17.4007ZM27.7031 20.1365C26.891 21.0514 26.1695 21.8694 26.0998 21.9542L25.973 22.1084L26.0938 22.4077C26.2682 22.8395 26.2945 23.3679 26.163 23.8008C25.9792 24.406 25.4744 24.9909 24.9494 25.2071L24.7503 25.289L24.7502 26.8945L24.75 28.5H27.0703H29.3906V23.5128C29.3906 19.0084 29.3835 18.5228 29.3165 18.4972C29.2757 18.4815 29.2283 18.4696 29.211 18.4708C29.1938 18.4719 28.5152 19.2215 27.7031 20.1365ZM15.2438 21.717L13.4491 23.5122L13.4628 25.4319C13.4763 27.3208 13.4783 27.3553 13.5843 27.5859C13.7198 27.8808 14.0168 28.1897 14.3203 28.3515L14.5547 28.4765L15.9258 28.4909L17.2969 28.5052V24.262C17.2969 20.1149 17.2948 20.0178 17.2062 19.9703C17.1563 19.9437 17.0982 19.9218 17.0771 19.9218C17.0559 19.9218 16.231 20.7297 15.2438 21.717ZM18.8086 19.979L18.7031 20.0299V24.2649V28.5H21.0234H23.3438L23.3436 26.8945L23.3434 25.289L23.1443 25.2071C22.3826 24.8935 21.8205 23.9963 21.8511 23.1433L21.8641 22.7787L20.4363 21.3503C19.6509 20.5646 18.9872 19.9232 18.9612 19.925C18.9353 19.9268 18.8666 19.9511 18.8086 19.979ZM23.6484 22.5127C23.429 22.6354 23.25 22.9467 23.25 23.2057C23.25 23.6107 23.6405 24 24.0469 24C24.3128 24 24.6093 23.8192 24.7358 23.58C25.1104 22.8717 24.3466 22.122 23.6484 22.5127Z" fill="white"/>
</g>
<defs>
<clipPath id="clip0_1_257">
<rect width="24" height="24" fill="white" transform="translate(12 12)"/>
</clipPath>
</defs>
</svg>
