<svg width="48" height="48" viewBox="0 0 48 48" fill="none" xmlns="http://www.w3.org/2000/svg">
<rect width="48" height="48" rx="8" fill="white"/>
<g clip-path="url(#clip0_1_105)">
<path fill-rule="evenodd" clip-rule="evenodd" d="M23.5075 12.0662C22.4489 12.3289 21.7467 13.3838 21.9278 14.4395C21.9864 14.7813 22.1414 15.1414 22.3488 15.4175L22.4687 15.5772L18.4179 23.6792L14.3671 31.7813H14.1466C12.8394 31.7813 11.8212 32.9616 12.038 34.2256C12.1914 35.1203 12.8814 35.8086 13.7793 35.9626C14.6364 36.1095 15.5505 35.6593 15.9454 34.8955L16.1012 34.5941H23.9997H31.8981L32.0539 34.8955C32.4499 35.6615 33.3627 36.1096 34.2252 35.9617C34.6535 35.8882 35.1345 35.6375 35.4081 35.3449C35.6506 35.0857 35.8902 34.6381 35.9344 34.362C35.9513 34.2563 35.9834 34.1585 36.0058 34.1447C36.0282 34.1309 36.0465 33.993 36.0465 33.8383C36.0465 33.6836 36.0281 33.5684 36.0055 33.5824C35.983 33.5963 35.9504 33.5199 35.9333 33.4125C35.9161 33.3052 35.8262 33.0731 35.7335 32.8966C35.3747 32.2138 34.6425 31.7813 33.8453 31.7813H33.6174L29.5819 23.7182C27.3625 19.2835 25.5465 15.6329 25.5465 15.6057C25.5465 15.5785 25.5969 15.4891 25.6585 15.4071C26.0133 14.9341 26.1659 14.3297 26.0707 13.7745C25.863 12.5635 24.6801 11.7751 23.5075 12.0662ZM23.6603 13.503C23.4624 13.6074 23.2965 13.884 23.2965 14.1094C23.2965 14.4559 23.6514 14.8125 23.9962 14.8125C24.3562 14.8125 24.7028 14.4677 24.7028 14.1094C24.7028 13.8768 24.537 13.6068 24.329 13.5007C24.098 13.3829 23.8865 13.3836 23.6603 13.503ZM16.968 14.8364L16.4772 15.3289L17.5196 16.3713L18.562 17.4137L19.0656 16.9101L19.5693 16.4064L18.5388 15.3751C17.972 14.8079 17.4972 14.3438 17.4836 14.3438C17.47 14.3438 17.238 14.5654 16.968 14.8364ZM29.4605 15.3751L28.43 16.4064L28.9337 16.9101L29.4373 17.4137L30.4797 16.3713L31.5221 15.3289L31.0313 14.8364C30.7613 14.5654 30.5293 14.3438 30.5157 14.3438C30.5022 14.3438 30.0273 14.8079 29.4605 15.3751ZM22.0054 19.6473C21.0642 21.5329 20.3024 23.084 20.3125 23.0941C20.3226 23.1043 20.5077 23.0027 20.7239 22.8684C21.4441 22.421 22.282 22.0821 23.0387 21.9322C23.2204 21.8962 23.6492 21.8672 23.9997 21.8672C24.3501 21.8672 24.7789 21.8962 24.9606 21.9322C25.7176 22.0822 26.6685 22.4688 27.3252 22.8936C27.5087 23.0123 27.6687 23.1094 27.6807 23.1094C27.6928 23.1094 26.9276 21.559 25.9802 19.6641L24.2577 16.2188H23.9873H23.7168L22.0054 19.6473ZM14.8699 18.3052C14.7092 18.6278 14.5778 18.9124 14.5778 18.9379C14.5778 18.9804 17.2494 20.3438 17.3328 20.3438C17.3772 20.3438 17.9808 19.1369 17.9505 19.1085C17.927 19.0864 15.1954 17.7188 15.1749 17.7188C15.1678 17.7188 15.0305 17.9827 14.8699 18.3052ZM31.4293 18.4062C30.6817 18.7815 30.0604 19.0975 30.0488 19.1085C30.0185 19.1369 30.6221 20.3438 30.6665 20.3438C30.7499 20.3438 33.4215 18.9804 33.4215 18.9379C33.4215 18.8743 32.8432 17.7182 32.813 17.7213C32.7996 17.7227 32.177 18.0309 31.4293 18.4062ZM14.1559 22.5469V23.25H15.9137H17.6715V22.5469V21.8438H15.9137H14.1559V22.5469ZM30.3278 22.5469V23.25H32.0856H33.8434V22.5469V21.8438H32.0856H30.3278V22.5469ZM23.3487 23.2997C22.9912 23.3636 22.3249 23.5938 21.9478 23.7837C21.2089 24.1559 20.2252 24.9132 19.4982 25.6698C19.0845 26.1003 18.5622 26.7134 18.5622 26.7684C18.5622 26.8324 19.4498 27.8321 19.8136 28.1779C20.8607 29.1732 21.8699 29.8093 22.8983 30.122C23.2746 30.2365 23.393 30.2503 23.9997 30.2503C24.6063 30.2503 24.7247 30.2365 25.101 30.122C26.4479 29.7124 27.857 28.6785 29.1259 27.1687C29.297 26.9649 29.4372 26.7836 29.4372 26.7657C29.4372 26.7478 29.297 26.5664 29.1259 26.3627C27.8536 24.8488 26.4258 23.8027 25.101 23.4137C24.6262 23.2744 23.7937 23.2202 23.3487 23.2997ZM23.5075 24.7224C22.4465 24.9857 21.7467 26.0398 21.9286 27.1006C22.1251 28.2462 23.2105 29.0295 24.3346 28.8367C25.4816 28.64 26.2637 27.5561 26.0707 26.4308C25.863 25.2198 24.6801 24.4314 23.5075 24.7224ZM23.6603 26.1592C23.4624 26.2637 23.2965 26.5402 23.2965 26.7657C23.2965 27.1122 23.6514 27.4688 23.9962 27.4688C24.3562 27.4688 24.7028 27.1239 24.7028 26.7657C24.7028 26.5331 24.537 26.263 24.329 26.1569C24.098 26.0391 23.8865 26.0398 23.6603 26.1592ZM16.7121 30.2512C16.1312 31.4206 15.6559 32.3888 15.6559 32.4028C15.6559 32.4167 15.7323 32.541 15.8257 32.679C15.9191 32.8169 16.0161 32.9878 16.0412 33.0586L16.087 33.1875H23.9997H31.9123L31.9581 33.0586C31.9832 32.9878 32.0825 32.8137 32.1787 32.6719L32.3536 32.4141L31.2825 30.2695C30.6933 29.0899 30.1975 28.1302 30.1806 28.1367C30.1638 28.1431 29.9831 28.3278 29.7791 28.5469C28.1679 30.278 26.652 31.2386 24.9606 31.6005C24.5824 31.6814 23.4501 31.6806 23.0387 31.5991C21.4131 31.2771 19.7402 30.2132 18.1872 28.5138C17.9938 28.3022 17.8204 28.1282 17.8019 28.1271C17.7834 28.1259 17.293 29.0818 16.7121 30.2512ZM13.7697 33.2842C13.5718 33.3887 13.4059 33.6652 13.4059 33.8907C13.4059 34.2372 13.7607 34.5938 14.1056 34.5938C14.4656 34.5938 14.8122 34.2489 14.8122 33.8907C14.8122 33.6581 14.6464 33.388 14.4384 33.2819C14.2074 33.1641 13.9959 33.1648 13.7697 33.2842ZM33.5509 33.2842C33.353 33.3887 33.1872 33.6652 33.1872 33.8907C33.1872 34.2372 33.542 34.5938 33.8868 34.5938C34.2469 34.5938 34.5934 34.2489 34.5934 33.8907C34.5934 33.6581 34.4276 33.388 34.2196 33.2819C33.9887 33.1641 33.7771 33.1648 33.5509 33.2842ZM12.0147 33.8907C12.0147 34.0582 12.0232 34.1268 12.0335 34.043C12.0439 33.9592 12.0439 33.8221 12.0335 33.7383C12.0232 33.6545 12.0147 33.7231 12.0147 33.8907Z" fill="black"/>
</g>
<defs>
<clipPath id="clip0_1_105">
<rect width="24" height="24" fill="white" transform="translate(12 12)"/>
</clipPath>
</defs>
</svg>
