<svg width="48" height="48" viewBox="0 0 48 48" fill="none" xmlns="http://www.w3.org/2000/svg">
<rect width="48" height="48" rx="8" fill="#ED5729"/>
<g clip-path="url(#clip0_1_292)">
<path fill-rule="evenodd" clip-rule="evenodd" d="M13.6406 12.0851C12.8659 12.2876 12.2559 12.9124 12.0722 13.6916C11.966 14.1425 11.9638 28.6225 12.0699 29.0301C12.2656 29.7812 12.7831 30.3447 13.5272 30.6167C13.7882 30.7121 13.9067 30.7193 15.5273 30.7388L17.25 30.7596L17.2504 32.1962C17.2508 33.8965 17.2858 34.2805 17.4792 34.707C17.6542 35.0931 18.0485 35.516 18.4158 35.7118C18.9892 36.0173 18.4971 36 26.605 36C31.3432 36 34.0617 35.9832 34.2241 35.9529C34.8069 35.8441 35.4445 35.3754 35.7292 34.8463C36.0186 34.3086 36.0011 34.9685 36.0172 23.9532C36.0254 18.4231 36.0195 15.0903 36.0043 16.5469C35.989 18.0036 35.961 19.111 35.9421 19.0078C35.8846 18.6954 35.6417 18.2465 35.3809 17.9707C35.1034 17.6773 34.878 17.5315 34.4728 17.3834C34.2118 17.288 34.0933 17.2808 32.4773 17.2613L30.7594 17.2406L30.7387 15.5227C30.7192 13.9067 30.712 13.7882 30.6166 13.5272C30.5608 13.3746 30.4646 13.1634 30.4027 13.0578C30.2485 12.7947 29.8311 12.4098 29.5399 12.2622C28.9951 11.9862 29.4254 11.9998 21.3534 12.0028C14.5389 12.0052 13.9209 12.0118 13.6406 12.0851ZM13.8984 13.4727C13.7237 13.5507 13.522 13.7623 13.4561 13.9367C13.4216 14.0279 13.4065 16.3293 13.407 21.3898L13.4078 28.711L13.5132 28.8971C13.6526 29.1432 13.872 29.2843 14.1703 29.3196C14.3044 29.3354 17.6309 29.3421 21.5625 29.3344L28.7109 29.3203L28.9046 29.2093C29.0165 29.1452 29.1452 29.0166 29.2093 28.9047L29.3203 28.711V22.5703V16.4297L24.8906 16.4063C20.5288 16.3832 20.4573 16.3813 20.2222 16.2846C19.3982 15.9459 18.8023 15.1383 18.7948 14.3506C18.7909 13.934 18.637 13.6577 18.3183 13.4951C18.1553 13.4119 18.0155 13.4064 16.0917 13.4081C14.4812 13.4096 14.0088 13.4235 13.8984 13.4727ZM20.0856 13.5335C20.1043 13.6054 20.1453 13.8598 20.1766 14.099C20.2364 14.5552 20.304 14.6967 20.5492 14.8799C20.6737 14.9729 20.7451 14.9771 22.4367 14.99C24.1059 15.0027 24.1936 14.9991 24.1695 14.9196C24.1021 14.6975 24.0491 14.3961 24.048 14.2297C24.0464 13.9753 23.8942 13.6867 23.6878 13.5469L23.5148 13.4297L21.7832 13.4163L20.0515 13.403L20.0856 13.5335ZM25.34 13.5118C25.4143 13.7433 25.4509 13.9556 25.452 14.1606C25.4535 14.4555 25.6214 14.7608 25.8551 14.8938C26.0358 14.9967 26.0684 14.9985 27.6914 14.9993L29.3437 15L29.3426 14.6133C29.3407 13.9531 29.2424 13.7117 28.894 13.5125C28.7139 13.4095 28.6837 13.4078 27.0086 13.407L25.3062 13.4063L25.34 13.5118ZM12.0229 21.375C12.0229 25.4871 12.0284 27.1693 12.0352 25.1133C12.0419 23.0572 12.0419 19.6928 12.0352 17.6368C12.0284 15.5807 12.0229 17.2629 12.0229 21.375ZM30.75 19.4766V20.2969H32.6719H34.5937L34.593 19.793C34.5923 19.3583 34.5778 19.264 34.4875 19.106C34.3582 18.8799 34.197 18.7567 33.9573 18.7011C33.8562 18.6777 33.0932 18.658 32.2617 18.6574L30.75 18.6563V19.4766ZM22.1202 20.0274C21.9836 20.1178 21.7898 20.4725 20.7563 22.5235C19.7152 24.5896 19.5514 24.9434 19.5493 25.1298C19.5421 25.7684 20.3128 26.0616 20.7494 25.5865C20.9077 25.4143 23.2033 20.7801 23.2021 20.6351C23.2004 20.4257 23.0337 20.119 22.866 20.0168C22.652 19.8863 22.3263 19.8909 22.1202 20.0274ZM17.2006 20.4315C17.086 20.5056 16.5672 20.996 16.0478 21.5213C15.2524 22.3259 15.095 22.508 15.0499 22.6758C14.9456 23.0638 14.9856 23.1215 16.1822 24.3132C16.8938 25.0217 17.3192 25.411 17.4049 25.4322C17.5755 25.4743 17.8392 25.4303 17.9838 25.3356C18.2414 25.1668 18.3652 24.7221 18.2294 24.454C18.2008 24.3977 17.8477 24.0194 17.4447 23.6133L16.712 22.875L17.4447 22.1368C17.8477 21.7307 18.2008 21.3524 18.2294 21.2961C18.3118 21.1335 18.2911 20.8058 18.1877 20.6363C17.9728 20.2837 17.5615 20.1984 17.2006 20.4315ZM24.7961 20.3838C24.6101 20.4828 24.4238 20.7734 24.4226 20.9664C24.4212 21.2189 24.5598 21.4053 25.2831 22.1233L26.0133 22.8481L25.2713 23.5999C24.734 24.1443 24.5132 24.4009 24.4709 24.5304C24.2908 25.0823 24.8465 25.6092 25.3915 25.4033C25.5684 25.3365 27.5553 23.3608 27.6379 23.1695C27.7219 22.9752 27.7211 22.7167 27.6359 22.5563C27.5552 22.4043 25.5671 20.4227 25.4211 20.3488C25.2662 20.2704 24.9791 20.2865 24.7961 20.3838ZM30.7485 25.0664C30.7477 26.9618 30.7272 28.583 30.7015 28.7808C30.5903 29.6383 30.0367 30.3157 29.2006 30.6175L28.8984 30.7266L23.7773 30.7401L18.6562 30.7536L18.6574 32.2635C18.658 33.094 18.6777 33.8562 18.7011 33.9574C18.7598 34.2103 18.8828 34.3641 19.1259 34.4883L19.3324 34.5938H26.6319C31.6754 34.5938 33.9722 34.5784 34.0634 34.5439C34.2429 34.4761 34.4512 34.2738 34.5292 34.0914C34.5829 33.9659 34.5937 32.9131 34.5937 27.8218V21.7032H32.6719H30.75L30.7485 25.0664Z" fill="white"/>
</g>
<defs>
<clipPath id="clip0_1_292">
<rect width="24" height="24" fill="white" transform="translate(12 12)"/>
</clipPath>
</defs>
</svg>
