<svg width="48" height="48" viewBox="0 0 48 48" fill="none" xmlns="http://www.w3.org/2000/svg">
<rect width="48" height="48" rx="8" fill="#ED5729"/>
<g clip-path="url(#clip0_1_303)">
<path fill-rule="evenodd" clip-rule="evenodd" d="M22.852 12.0531C21.1052 12.2203 19.2806 12.8332 17.7426 13.7694C16.2373 14.6857 14.6862 16.2368 13.7698 17.7422C12.8839 19.1976 12.34 20.7418 12.0857 22.5234C12.0069 23.0754 12.0069 24.9246 12.0857 25.4766C12.3015 26.9885 12.6867 28.2117 13.3555 29.5084C13.9447 30.6509 14.5679 31.4954 15.5365 32.464C16.5026 33.43 17.3428 34.0506 18.492 34.6468C21.4585 36.1858 24.8824 36.4169 28.052 35.292C28.6757 35.0707 29.7971 34.5281 30.3286 34.1905C31.8322 33.2353 33.2311 31.8366 34.1914 30.3281C34.4827 29.8706 35.0575 28.692 35.2685 28.1196C35.6102 27.193 35.9527 25.5957 35.9533 24.9258C35.9535 24.8033 35.9747 24.7031 36.0005 24.7031C36.0298 24.7031 36.047 24.4184 36.0466 23.9414C36.0461 23.4323 36.0308 23.203 36.0005 23.25C35.9677 23.3006 35.9547 23.2546 35.9541 23.0859C35.9513 22.4005 35.6163 20.8244 35.2764 19.8984C35.0638 19.3191 34.4904 18.1426 34.1911 17.6719C33.2341 16.1665 31.8324 14.7648 30.3286 13.8095C29.7971 13.4719 28.6757 12.9293 28.052 12.7079C26.3887 12.1177 24.5697 11.8886 22.852 12.0531ZM22.4067 13.5247C20.5125 13.822 18.6095 14.6847 17.2036 15.8836L17.0395 16.0235L17.6325 16.6251C18.0979 17.097 18.2365 17.2672 18.2761 17.4156C18.4167 17.9413 17.9379 18.4198 17.4154 18.2755C17.2755 18.2369 17.0875 18.0833 16.6272 17.6319L16.0227 17.0391L15.8834 17.2031C14.575 18.7449 13.616 21.0047 13.4713 22.8869L13.4397 23.2969H14.2794C15.2009 23.2969 15.3376 23.3296 15.538 23.598C15.6755 23.7822 15.6706 24.2055 15.5287 24.4044C15.3395 24.6696 15.1983 24.7031 14.2716 24.7031H13.4397L13.4713 25.1131C13.6155 26.9901 14.5847 29.273 15.8841 30.7969L16.024 30.9609L16.6255 30.3679C17.0975 29.9026 17.2677 29.764 17.416 29.7243C17.9418 29.5837 18.4202 30.0626 18.276 30.585C18.2374 30.7248 18.0852 30.9114 17.6393 31.3655C17.3171 31.6937 17.067 31.9843 17.0836 32.0112C17.1406 32.1033 18.1641 32.8454 18.5641 33.0846C20.9172 34.4916 23.7817 34.9373 26.4363 34.3095C27.892 33.9653 29.4644 33.1956 30.6208 32.2613C30.7952 32.1204 30.938 31.9926 30.938 31.9774C30.938 31.9622 30.6765 31.6851 30.3569 31.3616C29.9088 30.908 29.7643 30.7309 29.7251 30.5874C29.5812 30.0613 30.0618 29.5808 30.5879 29.7246C30.7313 29.7638 30.9084 29.9084 31.362 30.3565C31.6855 30.676 31.9626 30.9375 31.9779 30.9375C32.0309 30.9375 32.5249 30.2939 32.8621 29.7856C33.7423 28.4584 34.4185 26.5592 34.5307 25.0987L34.5612 24.7031H33.7215C32.9938 24.7031 32.8602 24.6915 32.72 24.6164C32.4596 24.4767 32.3676 24.3158 32.3676 24C32.3676 23.6842 32.4596 23.5233 32.72 23.3836C32.8602 23.3084 32.9938 23.2969 33.7215 23.2969H34.5612L34.5307 22.9012C34.3857 21.0141 33.4234 18.742 32.1175 17.2031L31.9782 17.0391L31.3731 17.6325C30.905 18.0916 30.7257 18.2374 30.5819 18.2761C30.0591 18.4169 29.5844 17.9403 29.7248 17.4156C29.7644 17.2672 29.903 17.097 30.3684 16.6251L30.9614 16.0235L30.7973 15.8836C29.2668 14.5785 26.9988 13.6157 25.1136 13.4708L24.7036 13.4393V14.2711C24.7036 15.1979 24.67 15.3391 24.4048 15.5283C24.206 15.6701 23.7826 15.675 23.5985 15.5376C23.3305 15.3374 23.2973 15.1998 23.2973 14.2859V13.4531L23.0512 13.4577C22.9159 13.4601 22.6258 13.4903 22.4067 13.5247ZM23.4504 21.8691C23.0614 21.9739 22.7375 22.1617 22.4498 22.4494C21.5731 23.3261 21.5825 24.6882 22.4713 25.5716C23.1257 26.2219 24.9149 27.3279 27.2303 28.5134C28.0473 28.9318 28.1589 28.9766 28.3278 28.9539C28.6512 28.9106 28.911 28.6506 28.9545 28.3269C28.9773 28.157 28.9316 28.0449 28.4886 27.1826C26.9112 24.1118 25.7841 22.436 25.0439 22.0609C24.5365 21.8038 23.9536 21.7336 23.4504 21.8691ZM23.603 23.3103C23.2388 23.5166 23.1019 23.9918 23.2966 24.3736C23.4501 24.6745 24.3353 25.3056 25.6645 26.0618C25.9481 26.2231 26.2726 26.4079 26.3856 26.4723C26.4986 26.5367 26.5805 26.571 26.5676 26.5486C26.5547 26.5262 26.3698 26.2019 26.1568 25.8281C25.3029 24.3296 24.6881 23.4563 24.3741 23.2962C24.1317 23.1725 23.8368 23.1779 23.603 23.3103ZM12.0195 24C12.0195 24.4254 12.0267 24.5994 12.0353 24.3867C12.044 24.174 12.044 23.8259 12.0353 23.6133C12.0267 23.4006 12.0195 23.5746 12.0195 24ZM21.3868 30.1873C20.937 30.4615 20.9389 31.0438 21.3906 31.3785C21.521 31.4751 21.5601 31.4766 24.0005 31.4766C26.4408 31.4766 26.48 31.4751 26.6103 31.3785C27.062 31.0438 27.0639 30.4615 26.6142 30.1873C26.4668 30.0974 26.3735 30.0941 24.0005 30.0941C21.6274 30.0941 21.5341 30.0974 21.3868 30.1873Z" fill="white"/>
</g>
<defs>
<clipPath id="clip0_1_303">
<rect width="24" height="24" fill="white" transform="translate(12 12)"/>
</clipPath>
</defs>
</svg>
