<svg width="48" height="48" viewBox="0 0 48 48" fill="none" xmlns="http://www.w3.org/2000/svg">
<rect width="48" height="48" rx="8" fill="white"/>
<g clip-path="url(#clip0_1_89)">
<path fill-rule="evenodd" clip-rule="evenodd" d="M18.2575 12.0663C17.7468 12.193 17.2589 12.5373 16.9685 12.9757C16.6486 13.4586 16.5435 14.2584 16.7302 14.7897C16.7797 14.9305 17.5497 16.3773 18.4412 18.0047L20.0622 20.9637V22.1069V23.2501L18.8083 23.2512L17.5544 23.2524L15.6911 25.7669L13.8278 28.2814V28.8595V29.4376H15.7028H17.5778V32.7189V36.0001H23.9997H30.4215V32.7189V29.4376H32.2965H34.1715V28.8594V28.2811L32.3083 25.7669L30.445 23.2527L29.1911 23.2514L27.9372 23.2501V22.1158V20.9816L29.4892 18.149C30.3429 16.5912 31.1069 15.1768 31.187 15.006C31.3107 14.7424 31.3354 14.6281 31.3506 14.2501C31.3776 13.577 31.1851 13.0813 30.7214 12.6307C30.0643 11.992 29.1239 11.8488 28.2819 12.2591C27.7783 12.5044 27.5373 12.7967 26.9762 13.8425C26.7184 14.3231 26.4969 14.7162 26.484 14.7162C26.4711 14.7161 26.3899 14.5926 26.3035 14.4417C25.5909 13.1968 23.8744 12.7697 22.6169 13.5244C22.2504 13.7442 21.897 14.095 21.6911 14.4431L21.526 14.722L21.4107 14.5212C21.3473 14.4108 21.1185 13.9962 20.9023 13.5998C20.6194 13.0814 20.4386 12.8086 20.258 12.628C19.7377 12.1077 18.9648 11.8907 18.2575 12.0663ZM12.5151 12.5394L12.0244 13.0317L12.8903 13.8986L13.7562 14.7654L14.2373 14.2859C14.5019 14.0223 14.7184 13.7848 14.7184 13.7583C14.7184 13.711 13.0763 12.047 13.0296 12.047C13.0165 12.047 12.785 12.2686 12.5151 12.5394ZM34.1125 12.8795C33.6551 13.3374 33.2809 13.7333 33.2809 13.7592C33.2809 13.7852 33.4974 14.0223 33.762 14.2859L34.2431 14.7654L35.109 13.8986L35.9749 13.0317L35.4842 12.5394C35.2143 12.2686 34.9824 12.047 34.9687 12.047C34.9551 12.047 34.5698 12.4216 34.1125 12.8795ZM18.4144 13.501C18.1795 13.625 18.0465 13.8545 18.0465 14.1357C18.0465 14.3406 18.1282 14.5113 18.919 15.9583C19.3989 16.8364 19.8089 17.5736 19.8302 17.5965C19.8621 17.6307 20.93 17.0475 21.0605 16.9246C21.1018 16.8857 19.4523 13.8247 19.294 13.6464C19.0791 13.4044 18.712 13.3437 18.4144 13.501ZM28.9961 13.4758C28.8953 13.5117 28.7749 13.5793 28.7286 13.6261C28.6603 13.6948 27.3374 16.0741 26.9959 16.7423L26.908 16.9141L27.5205 17.2748C27.8655 17.4781 28.1506 17.6179 28.1735 17.595C28.1958 17.5727 28.5973 16.8584 29.0657 16.0077C29.7786 14.7128 29.921 14.4222 29.9402 14.2227C29.9751 13.86 29.7898 13.5762 29.4419 13.4598C29.2454 13.3939 29.2236 13.3947 28.9961 13.4758ZM23.5874 14.6202C23.2584 14.7338 23.0334 14.9232 22.8562 15.2357C22.7205 15.475 22.7095 15.5292 22.6941 16.0381C22.6734 16.7217 22.7451 17.0023 23.0201 17.3148C23.3165 17.6515 23.522 17.7411 23.9997 17.7417C24.3502 17.7423 24.4244 17.7268 24.6168 17.6137C25.1554 17.2971 25.3311 16.8948 25.3052 16.0381C25.2898 15.5297 25.2787 15.4746 25.1433 15.2345C24.9688 14.9251 24.6911 14.7 24.3641 14.6029C24.0545 14.5109 23.8933 14.5145 23.5874 14.6202ZM12.0981 16.0836C12.1008 16.1709 12.1271 16.4849 12.1567 16.7814L12.2106 17.3204L12.6559 17.3503C13.3882 17.3994 13.9905 17.6543 14.4868 18.1251L14.7473 18.3723L15.2689 17.9401C15.5557 17.7024 15.7918 17.4844 15.7935 17.4558C15.7952 17.4271 15.6951 17.3087 15.5711 17.1927C14.719 16.3957 13.7952 16.0004 12.6676 15.9504L12.0934 15.925L12.0981 16.0836ZM34.8981 15.9677C34.1214 16.1263 33.6027 16.3254 33.1082 16.6547C32.733 16.9046 32.2015 17.3749 32.2058 17.4533C32.2075 17.4833 32.4431 17.702 32.7294 17.9392L33.2499 18.3705L33.5205 18.12C34.036 17.6427 34.6125 17.3993 35.3434 17.3503L35.7887 17.3204L35.8426 16.7814C35.8722 16.4849 35.8986 16.1737 35.9012 16.09L35.9059 15.9376L35.4489 15.9431C35.1975 15.9461 34.9497 15.9571 34.8981 15.9677ZM21.1637 18.5006C20.8286 18.6977 20.5471 18.8645 20.5383 18.8713C20.5295 18.8781 20.7352 19.2716 20.9954 19.7455L21.4684 20.6073V21.9287V23.2501H23.9997H26.5309V21.9379V20.6257L27.0064 19.7571C27.2679 19.2794 27.4735 18.8815 27.4634 18.873C27.417 18.8338 26.2916 18.1828 26.2283 18.1585C26.1827 18.141 26.0814 18.2089 25.9475 18.3466C25.6683 18.6339 25.2361 18.9076 24.8523 19.0402C24.5954 19.129 24.4413 19.1486 23.9997 19.1486C23.5581 19.1486 23.4039 19.129 23.147 19.0402C22.7654 18.9083 22.3314 18.6342 22.0565 18.3514C21.9439 18.2355 21.8341 18.1411 21.8124 18.1415C21.7908 18.142 21.4989 18.3035 21.1637 18.5006ZM15.609 21.1395V21.8439H16.3134H17.0178L17.0048 21.1525L16.9919 20.4611L16.3004 20.4481L15.609 20.4351V21.1395ZM31.0153 20.4689C30.9981 20.486 30.984 20.8024 30.984 21.172V21.8439H31.6872H32.3903V21.1407V20.4376H31.7184C31.3489 20.4376 31.0325 20.4517 31.0153 20.4689ZM18.984 29.6251V34.5939H20.4372H21.8903V29.6251V24.6564H20.4372H18.984V29.6251ZM23.2965 29.6251V34.5939H23.9997H24.7028V29.6251V24.6564H23.9997H23.2965V29.6251ZM26.109 29.6251V34.5939H27.5622H29.0153V29.6251V24.6564H27.5622H26.109V29.6251ZM16.6872 26.7749C16.2102 27.4219 15.8129 27.9693 15.8044 27.9913C15.7957 28.0133 16.1913 28.0314 16.6833 28.0314H17.5778V26.8126C17.5778 26.1423 17.5725 25.5949 17.5661 25.5962C17.5596 25.5975 17.1641 26.1279 16.6872 26.7749ZM30.4215 26.8048V28.0314H31.3122C31.802 28.0314 32.2028 28.0206 32.2028 28.0074C32.2028 27.9903 30.5946 25.7957 30.4371 25.5978C30.4285 25.587 30.4215 26.1302 30.4215 26.8048Z" fill="black"/>
</g>
<defs>
<clipPath id="clip0_1_89">
<rect width="24" height="24" fill="white" transform="translate(12 12)"/>
</clipPath>
</defs>
</svg>
