<svg width="48" height="48" viewBox="0 0 48 48" fill="none" xmlns="http://www.w3.org/2000/svg">
<rect width="48" height="48" rx="8" fill="#ED5729"/>
<g clip-path="url(#clip0_1_220)">
<g clip-path="url(#clip1_1_220)">
<path fill-rule="evenodd" clip-rule="evenodd" d="M23.4375 12.0295C23.1161 12.0709 22.4842 12.2452 22.1688 12.3794C21.4012 12.7061 20.7915 13.1483 20.0599 13.9094L19.5322 14.4583L18.4262 14.4628C17.2804 14.4675 16.9722 14.5025 16.1917 14.7167C14.1064 15.2887 12.7833 16.9018 12.672 19.0077C12.6002 20.3668 13.0746 22.0904 13.9404 23.6162L14.1578 23.9993L14.0318 24.1988C13.7801 24.5976 13.3179 25.6105 13.1326 26.1697C12.6584 27.6004 12.5567 28.9949 12.8445 30.1203C13.2013 31.5149 14.391 32.698 15.9434 33.2017C16.8121 33.4836 17.1732 33.5325 18.4274 33.5385L19.5344 33.5438L20.061 34.0916C20.6051 34.6575 21.0425 35.0154 21.5531 35.3123C22.7706 36.0203 24.1361 36.1793 25.4263 35.7633C26.3463 35.4667 26.9484 35.0739 27.8203 34.2015L28.4766 33.5448L29.5781 33.5391C30.7537 33.5329 31.0762 33.4937 31.899 33.2572C33.267 32.8641 34.3527 31.9641 34.9074 30.7637C35.6832 29.0844 35.3805 26.7674 34.0792 24.4236L33.8439 23.9999L34.0792 23.5762C35.7715 20.5283 35.7463 17.6779 34.0117 15.9602C32.9285 14.8875 31.3227 14.3778 29.2576 14.451L28.4836 14.4785L27.9733 13.944C27.0065 12.9316 26.1945 12.419 25.1222 12.144C24.732 12.044 23.811 11.9813 23.4375 12.0295ZM23.5312 13.4362C22.9317 13.5562 22.4587 13.7553 21.9467 14.1031C21.6498 14.3048 21.1875 14.7072 21.1875 14.7639C21.1875 14.784 21.2666 14.8133 21.3633 14.8292C21.6704 14.8794 22.7834 15.2321 23.4006 15.4747L23.9965 15.709L24.6733 15.4484C25.3182 15.2002 26.263 14.9051 26.638 14.8347C26.734 14.8167 26.8125 14.7859 26.8125 14.7663C26.8125 14.7176 26.4696 14.4058 26.156 14.1693C25.8287 13.9225 25.2311 13.6237 24.8672 13.5249C24.5841 13.4481 23.7491 13.3926 23.5312 13.4362ZM17.3851 15.8938C15.8925 16.1131 14.8686 16.7601 14.3857 17.789C13.9579 18.7001 13.9671 19.8671 14.4124 21.2075C14.6215 21.837 14.9716 22.6419 15.0348 22.6387C15.0543 22.6377 15.1401 22.542 15.2255 22.426C15.5159 22.0313 16.1004 21.3544 16.5847 20.852L17.0679 20.3507L17.1823 19.8433C17.4684 18.5733 17.8535 17.4514 18.3498 16.4413L18.6435 15.8437L18.146 15.8494C17.8723 15.8525 17.5299 15.8725 17.3851 15.8938ZM29.6472 16.4352C30.1465 17.4514 30.531 18.5707 30.8177 19.8433L30.9321 20.3507L31.4152 20.852C31.8996 21.3544 32.4841 22.0313 32.7745 22.426C32.8599 22.542 32.9469 22.6377 32.9679 22.6387C33.0226 22.6413 33.3442 21.9284 33.5333 21.3848C33.9742 20.1181 34.0446 18.9325 33.7302 18.0664C33.4551 17.3084 32.9035 16.6882 32.1925 16.3375C31.5364 16.0139 30.9754 15.8857 30.0854 15.856L29.3505 15.8315L29.6472 16.4352ZM19.9032 16.4882C19.6046 17.0165 19.2914 17.708 19.0821 18.3009L18.9357 18.7155L19.0904 18.5976C19.8665 18.0056 21.2114 17.1204 21.9248 16.732C22.0855 16.6446 22.2015 16.5584 22.1827 16.5406C22.0975 16.4598 20.4685 16.0328 20.241 16.0316C20.1892 16.0313 20.0714 16.1906 19.9032 16.4882ZM27.1509 16.1492C26.6107 16.2742 25.8691 16.4916 25.8182 16.5397C25.7998 16.5571 25.9686 16.6741 26.1932 16.7997C26.954 17.2251 28.1268 18.0005 28.8903 18.5828L29.0643 18.7155L28.9179 18.3009C28.7086 17.708 28.3954 17.0165 28.0968 16.4882C27.7995 15.9622 27.8621 15.9847 27.1509 16.1492ZM23.3333 17.5764C21.7099 18.4038 19.7479 19.7546 18.667 20.7889L18.373 21.0702L18.306 21.5624C18.0924 23.1326 18.0923 24.8602 18.3057 26.4374L18.3722 26.9296L18.69 27.229C19.8252 28.2988 21.7253 29.6057 23.3346 30.4237L23.9958 30.7598L24.619 30.4469C26.2113 29.6474 28.1944 28.2882 29.3063 27.2343L29.6277 26.9296L29.6947 26.4374C29.9046 24.8937 29.9047 23.1096 29.6948 21.5624L29.6281 21.0702L29.2867 20.7503C28.4721 19.9869 27.1273 18.9957 25.9453 18.2872C25.3049 17.9034 24.083 17.2499 24.0058 17.2499C23.9883 17.2499 23.6857 17.3969 23.3333 17.5764ZM22.3884 19.6875C22.211 19.7426 22.0347 19.9087 21.9549 20.0961C21.9148 20.1903 21.8906 20.4234 21.8906 20.7172C21.8906 21.1186 21.8796 21.1874 21.815 21.1874C21.6615 21.1874 21.3643 21.3996 21.2764 21.5719C21.2275 21.6677 21.1875 21.7769 21.1875 21.8143C21.1875 21.869 21.0819 21.8856 20.6517 21.8982C20.0737 21.9152 19.9722 21.9534 19.7634 22.2331C19.6349 22.4052 19.6349 22.7821 19.7634 22.9542C19.9722 23.2339 20.0737 23.2721 20.6517 23.2891L21.1875 23.3048V23.9999V24.695L20.6517 24.7107C20.0737 24.7277 19.9722 24.7659 19.7634 25.0456C19.6349 25.2177 19.6349 25.5946 19.7634 25.7667C19.9722 26.0464 20.0737 26.0846 20.6517 26.1016C21.0819 26.1142 21.1875 26.1308 21.1875 26.1855C21.1875 26.2229 21.2275 26.3321 21.2764 26.4279C21.3633 26.5983 21.661 26.8124 21.8109 26.8124C21.8701 26.8124 21.8853 26.9057 21.8983 27.3482C21.9153 27.9262 21.9535 28.0277 22.2332 28.2365C22.4053 28.365 22.7822 28.365 22.9543 28.2365C23.234 28.0277 23.2722 27.9262 23.2892 27.3482L23.3049 26.8124H24H24.6951L24.7108 27.3482C24.7278 27.9262 24.766 28.0277 25.0457 28.2365C25.2178 28.365 25.5947 28.365 25.7668 28.2365C26.0465 28.0277 26.0847 27.9262 26.1017 27.3482C26.1143 26.918 26.1309 26.8124 26.1856 26.8124C26.223 26.8124 26.3322 26.7724 26.428 26.7235C26.5984 26.6366 26.8125 26.3389 26.8125 26.189C26.8125 26.1298 26.9058 26.1146 27.3483 26.1016C27.9263 26.0846 28.0278 26.0464 28.2366 25.7667C28.3651 25.5946 28.3651 25.2177 28.2366 25.0456C28.0278 24.7659 27.9263 24.7277 27.3483 24.7107L26.8125 24.695V23.9999V23.3048L27.3483 23.2891C27.801 23.2758 27.9042 23.2583 28.0134 23.1767C28.2457 23.003 28.3305 22.847 28.3305 22.5937C28.3305 22.3403 28.2457 22.1843 28.0134 22.0106C27.9042 21.929 27.801 21.9115 27.3483 21.8982C26.9058 21.8852 26.8125 21.87 26.8125 21.8108C26.8125 21.6609 26.5984 21.3632 26.428 21.2763C26.3322 21.2274 26.223 21.1874 26.1856 21.1874C26.1309 21.1874 26.1143 21.0818 26.1017 20.6516C26.0884 20.1989 26.0709 20.0957 25.9893 19.9865C25.8156 19.7542 25.6596 19.6694 25.4062 19.6694C25.1529 19.6694 24.9969 19.7542 24.8232 19.9865C24.7416 20.0957 24.7241 20.1989 24.7108 20.6516L24.6951 21.1874H24H23.3049L23.2892 20.6516C23.2759 20.1989 23.2584 20.0957 23.1768 19.9865C22.9726 19.7134 22.6722 19.5995 22.3884 19.6875ZM22.5937 23.9999V25.4062H24H25.4062V23.9999V22.5937H24H22.5937V23.9999ZM16.5585 23.0038C16.2539 23.3714 15.8437 23.9443 15.8437 24.0024C15.8437 24.0595 16.5869 25.0688 16.695 25.1586C16.7472 25.2019 16.7578 25.0058 16.7578 23.9959C16.7578 23.3278 16.7545 22.7812 16.7504 22.7812C16.7464 22.7812 16.66 22.8813 16.5585 23.0038ZM31.2422 23.9999C31.2422 24.9985 31.2531 25.2017 31.3042 25.1593C31.3968 25.0823 32.0649 24.1866 32.1203 24.0649C32.1625 23.9722 32.1194 23.894 31.7681 23.4263C31.548 23.1332 31.3395 22.8699 31.305 22.8412C31.2528 22.7979 31.2422 22.9933 31.2422 23.9999ZM14.8042 25.7694C14.5739 26.2672 14.2849 27.1238 14.1756 27.6327C14.0638 28.1531 14.061 29.2112 14.1704 29.6249C14.4322 30.6152 15.1505 31.4011 16.1454 31.7858C16.71 32.0041 17.2466 32.1076 17.9854 32.1405L18.6505 32.1703L18.3533 31.5655C17.8535 30.5484 17.4691 29.4294 17.1823 28.1565L17.0679 27.6491L16.5847 27.1478C16.1004 26.6454 15.5159 25.9685 15.2255 25.5738C15.1401 25.4578 15.0531 25.3621 15.0321 25.3611C15.0111 25.3601 14.9085 25.5439 14.8042 25.7694ZM32.8725 25.4494C32.7416 25.6591 31.8204 26.7316 31.3942 27.1707L30.9327 27.6461L30.8181 28.155C30.5309 29.4295 30.1467 30.548 29.6467 31.5655L29.3495 32.1703L30.0146 32.1405C30.7534 32.1076 31.29 32.0041 31.8546 31.7858C32.8495 31.4011 33.5678 30.6152 33.8296 29.6249C33.9513 29.1644 33.9368 28.1489 33.7998 27.5433C33.6289 26.7876 33.0846 25.3593 32.9674 25.3593C32.9462 25.3593 32.9035 25.3998 32.8725 25.4494ZM19.0258 29.5379C19.273 30.2543 20.0644 31.9075 20.1817 31.9524C20.3046 31.9996 22.08 31.5637 22.1826 31.461C22.2015 31.4422 22.0855 31.3552 21.9248 31.2678C21.2122 30.8798 19.8665 29.9942 19.092 29.4036L18.9391 29.2869L19.0258 29.5379ZM28.6641 29.5837C28.1177 29.9982 27.0663 30.6921 26.3713 31.097C25.6892 31.4943 25.692 31.4464 26.3403 31.6395C26.7391 31.7583 27.6426 31.9676 27.759 31.9682C27.9102 31.969 28.5775 30.6634 28.9157 29.7052C28.995 29.4805 29.0552 29.2973 29.0495 29.298C29.0437 29.2987 28.8703 29.4272 28.6641 29.5837ZM23.6016 32.4458C23.1706 32.6283 22.0067 33.0144 21.5625 33.1222C21.3691 33.1692 21.2019 33.2138 21.1909 33.2214C21.1214 33.2694 21.7443 33.7811 22.2187 34.0657C23.6721 34.9374 25.2831 34.7048 26.6367 33.428C26.8312 33.2445 26.8533 33.1877 26.7305 33.1869C26.5657 33.1858 25.3335 32.8055 24.6816 32.5545C24.3133 32.4127 23.9935 32.299 23.9709 32.3018C23.9482 32.3046 23.782 32.3694 23.6016 32.4458Z" fill="white"/>
</g>
</g>
<defs>
<clipPath id="clip0_1_220">
<rect width="24" height="24" fill="white" transform="translate(12 12)"/>
</clipPath>
<clipPath id="clip1_1_220">
<rect width="24" height="24" fill="white" transform="translate(12 12)"/>
</clipPath>
</defs>
</svg>
