<svg width="48" height="48" viewBox="0 0 48 48" fill="none" xmlns="http://www.w3.org/2000/svg">
<rect width="48" height="48" rx="8" fill="#EEF3ED"/>
<g clip-path="url(#clip0_4_62)">
<path fill-rule="evenodd" clip-rule="evenodd" d="M12 24.0003V34.7346L24.0117 34.7228L36.0234 34.7109L36.0353 23.9766L36.0471 13.2422L24.0235 13.2541L12 13.266V24.0003ZM12.023 24C12.023 29.9168 12.0285 32.3373 12.0352 29.3789C12.0418 26.4205 12.0418 21.5795 12.0352 18.6211C12.0285 15.6627 12.023 18.0832 12.023 24ZM13.4062 16.7578V18.8906H24H34.5938V16.7578V14.625H24H13.4062V16.7578ZM28.9688 16.7812V17.4844H29.6719H30.375V16.7812V16.0781H29.6719H28.9688V16.7812ZM31.7812 16.7812V17.4844H32.4844H33.1875V16.7812V16.0781H32.4844H31.7812V16.7812ZM13.4062 26.8359V33.375H24H34.5938V26.8359V20.2969H24H13.4062V26.8359ZM23.4069 26.4463C22.3023 28.3589 21.3926 29.9463 21.3855 29.9738C21.3734 30.0206 22.5369 30.7292 22.57 30.6952C22.5783 30.6867 23.4968 29.1013 24.6109 27.1722C25.7583 25.1854 26.6188 23.6472 26.5957 23.6243C26.5327 23.5622 25.5002 22.9688 25.4552 22.9688C25.4333 22.9688 24.5116 24.5336 23.4069 26.4463ZM18.2927 25.4651L16.9219 26.8365L18.2935 28.2076L19.6652 29.5787L20.1563 29.0859L20.6475 28.593L19.7692 27.7148L18.8909 26.8365L19.7693 25.9572L20.6477 25.0779L20.1556 24.5858L19.6635 24.0937L18.2927 25.4651ZM27.8438 24.5858L27.3529 25.0785L28.231 25.9575L29.1091 26.8365L28.2305 27.7151L27.352 28.5937L27.8443 29.0859L28.3365 29.5782L29.7073 28.2067L31.0781 26.8353L29.7065 25.4643L28.3348 24.0932L27.8438 24.5858Z" fill="black" fill-opacity="0.5"/>
</g>
<defs>
<clipPath id="clip0_4_62">
<rect width="24" height="24" fill="white" transform="translate(12 12)"/>
</clipPath>
</defs>
</svg>
