<svg width="49" height="48" viewBox="0 0 49 48" fill="none" xmlns="http://www.w3.org/2000/svg">
<rect x="0.5" width="48" height="48" rx="8" fill="#ED5729"/>
<g clip-path="url(#clip0_1_314)">
<path fill-rule="evenodd" clip-rule="evenodd" d="M12.3563 12.1113C12.2555 12.1723 12.1351 12.2935 12.0887 12.3806C12.0086 12.531 12.0042 12.8709 12.0023 19.0449C12.0004 25.3422 12.0032 25.5562 12.0893 25.7249C12.1414 25.8272 12.2554 25.9426 12.3652 26.0043L12.5522 26.1094H15.8153H19.0785V27.2363C19.0785 28.2731 19.0709 28.3779 18.9841 28.5481C18.8774 28.7572 18.6077 28.9219 18.3719 28.9219C18.0271 28.9219 17.6722 29.2785 17.6722 29.625C17.6722 29.8499 17.8283 30.1057 18.037 30.2231L18.224 30.3281H21.1844C23.9985 30.3281 24.1533 30.3237 24.319 30.2392C24.5223 30.1355 24.7035 29.8462 24.7035 29.625C24.7035 29.2769 24.3485 28.9219 24.0003 28.9219C23.7677 28.9219 23.4977 28.7561 23.3916 28.5481C23.3048 28.3779 23.2972 28.2731 23.2972 27.2363V26.1094H24.7269H26.1566V30.0915C26.1566 32.8279 26.1729 34.1512 26.2086 34.3219C26.3735 35.1094 27.0437 35.7793 27.8347 35.9473C28.1776 36.0201 33.9748 36.0207 34.3223 35.948C34.6812 35.8729 35.1674 35.603 35.4088 35.3449C35.6537 35.083 35.8742 34.6674 35.945 34.3341C35.9794 34.1718 36.0009 30.7189 36.0135 23.2951C36.0236 17.3535 36.0195 14.7071 36.0044 17.4141C35.9893 20.1211 35.9602 22.2425 35.9398 22.1283C35.8437 21.5897 35.3552 20.969 34.8256 20.7125C34.39 20.5015 34.1949 20.4844 32.2246 20.4844H30.3753V16.5181V12.5518L30.2702 12.3648C30.2086 12.2551 30.0932 12.1411 29.9909 12.0889C29.8216 12.0026 29.5676 12 21.178 12.0003L12.5394 12.0005L12.3563 12.1113ZM12.0231 19.0547C12.0231 22.6641 12.0287 24.1337 12.0355 22.3206C12.0423 20.5074 12.0423 17.5543 12.0355 15.7581C12.0287 13.9618 12.0231 15.4453 12.0231 19.0547ZM13.4066 19.0547V24.7031H19.7816H26.1566V23.557C26.1566 22.8979 26.1787 22.3053 26.2086 22.1625C26.2874 21.7863 26.5571 21.3092 26.8294 21.0644C27.2951 20.6456 27.7667 20.4844 28.5261 20.4844H28.9691V16.9453V13.4063H21.1878H13.4066V19.0547ZM15.1688 14.9707C14.8202 15.1818 14.817 15.1993 14.8148 16.9589C14.8126 18.7319 14.8198 18.7719 15.1777 18.9731L15.3647 19.0781H21.1844C26.806 19.0781 27.01 19.0751 27.1784 18.9892C27.2807 18.9371 27.3961 18.8231 27.4577 18.7133C27.5608 18.53 27.5628 18.4955 27.5628 16.9688C27.5628 15.442 27.5608 15.4075 27.4577 15.2242C27.3961 15.1145 27.2807 15.0005 27.1784 14.9483C27.01 14.8624 26.8061 14.8594 21.178 14.8596L15.3519 14.8599L15.1688 14.9707ZM16.2191 16.9688V17.6719H21.1878H26.1566V16.9688V16.2656H21.1878H16.2191V16.9688ZM15.1688 20.5957C14.7011 20.8788 14.7059 21.5204 15.1777 21.7856L15.3647 21.8906H19.7547C23.9726 21.8906 24.1515 21.8872 24.319 21.8017C24.5223 21.698 24.7035 21.4087 24.7035 21.1875C24.7035 20.9664 24.5223 20.6771 24.319 20.5733C24.1515 20.4879 23.9727 20.4844 19.7483 20.4846L15.3519 20.4849L15.1688 20.5957ZM27.9266 21.9873C27.8195 22.0439 27.7147 22.1517 27.6571 22.2646C27.5642 22.4468 27.5628 22.5313 27.5628 28.2422C27.5628 33.8374 27.5659 34.0409 27.6518 34.2093C27.7039 34.3116 27.8179 34.427 27.9277 34.4887L28.1147 34.5938H31.075C33.9494 34.5938 34.0407 34.5911 34.2203 34.4994C34.3394 34.4387 34.439 34.3391 34.4997 34.22C34.5928 34.0376 34.5941 33.9554 34.5941 28.2422C34.5941 22.529 34.5928 22.4469 34.4997 22.2644C34.439 22.1453 34.3394 22.0458 34.2203 21.985C34.0405 21.8933 33.9516 21.8907 31.0686 21.8927C28.2075 21.8947 28.0957 21.8981 27.9266 21.9873ZM29.325 23.4082C28.9764 23.6193 28.9733 23.6368 28.9711 25.3964C28.9688 27.1694 28.976 27.2094 29.3339 27.4106C29.5172 27.5135 29.5518 27.5156 31.075 27.5156C32.8405 27.5156 32.8819 27.5081 33.0827 27.1508C33.1858 26.9675 33.1878 26.933 33.1878 25.4063C33.1878 23.1472 33.3381 23.2968 31.0686 23.2971C29.5109 23.2974 29.5078 23.2976 29.325 23.4082ZM30.3753 25.4063V26.1094H31.0785H31.7816V25.4063V24.7031H31.0785H30.3753V25.4063ZM20.4708 27.3867C20.4595 28.0893 20.4344 28.7221 20.4151 28.793L20.38 28.9219H21.1878H21.9956L21.9606 28.793C21.9413 28.7221 21.9162 28.0893 21.9049 27.3867L21.8843 26.1094H21.1878H20.4914L20.4708 27.3867ZM29.325 29.0332C28.8574 29.3163 28.8622 29.9579 29.3339 30.2231C29.5172 30.326 29.5518 30.3281 31.075 30.3281C32.8405 30.3281 32.8819 30.3206 33.0827 29.9633C33.216 29.7263 33.216 29.5237 33.0827 29.2867C32.8818 28.9292 32.8413 28.9219 31.0686 28.9221C29.5109 28.9224 29.5078 28.9226 29.325 29.0332ZM30.7313 31.8457C30.3998 32.0464 30.2912 32.4168 30.4643 32.7562C30.5674 32.9583 30.857 33.1406 31.075 33.1406C31.4265 33.1406 31.7816 32.7873 31.7816 32.4375C31.7816 32.2164 31.6005 31.9271 31.3971 31.8233C31.1642 31.7045 30.9529 31.7116 30.7313 31.8457Z" fill="white"/>
</g>
<defs>
<clipPath id="clip0_1_314">
<rect width="24" height="24" fill="white" transform="translate(12 12)"/>
</clipPath>
</defs>
</svg>
