<svg width="48" height="48" viewBox="0 0 48 48" fill="none" xmlns="http://www.w3.org/2000/svg">
<rect width="48" height="48" rx="8" fill="#ED5729"/>
<g clip-path="url(#clip0_1_268)">
<path fill-rule="evenodd" clip-rule="evenodd" d="M22.8516 12.0493C19.1952 12.4246 15.9645 14.3873 13.9386 17.4643C12.1952 20.1121 11.6015 23.4092 12.2888 26.6251C12.5168 27.6919 13.1391 29.2579 13.4126 29.4534C13.7104 29.6661 14.1658 29.5725 14.378 29.2549C14.5417 29.0098 14.519 28.7677 14.2794 28.2067C12.2543 23.4625 13.8684 18.0372 18.1566 15.1743C21.6582 12.8366 26.3144 12.8276 29.8231 15.1519C30.2735 15.4503 30.3212 15.4942 30.2256 15.5234C30.1659 15.5416 29.7586 15.6021 29.3203 15.658C28.882 15.7138 28.4545 15.7917 28.3702 15.8309C28.0963 15.9584 27.9282 16.3167 28.0028 16.6138C28.049 16.7981 28.3029 17.0561 28.4927 17.1115C28.6329 17.1525 28.9868 17.1189 30.4362 16.9268C32.3712 16.6704 32.4499 16.649 32.5966 16.3399C32.7035 16.1147 32.6966 16.0088 32.4556 14.1804C32.2129 12.3394 32.1895 12.2574 31.8618 12.0987C31.5499 11.9478 31.3169 11.9839 31.0675 12.2217C30.8399 12.4389 30.826 12.569 30.9392 13.4316C30.9952 13.8592 31.0325 14.2176 31.0219 14.2281C31.0114 14.2387 30.8352 14.1358 30.6303 13.9996C29.1296 13.0015 27.3489 12.3374 25.5234 12.0948C25.0002 12.0252 23.3586 11.9973 22.8516 12.0493ZM22.0122 16.8458C21.7498 17.0046 21.6607 17.2007 21.6579 17.6251C21.6552 18.0616 21.6018 18.2591 21.4089 18.5464C21.1974 18.8614 20.8435 19.0395 20.4328 19.0376C20.1682 19.0363 20.0835 19.0104 19.7146 18.8176C19.3477 18.6259 19.2691 18.6017 19.0747 18.6204C18.9529 18.6321 18.7959 18.6834 18.7258 18.7344C18.5676 18.8497 16.8469 21.813 16.8034 22.0453C16.7492 22.3339 16.9055 22.5961 17.2561 22.805C17.8448 23.1558 18.0928 23.5101 18.0928 24.0001C18.0928 24.4901 17.8448 24.8443 17.2561 25.1952C16.9055 25.4041 16.7492 25.6662 16.8034 25.9549C16.8469 26.1871 18.5676 29.1505 18.7258 29.2657C18.7959 29.3167 18.9529 29.3681 19.0747 29.3798C19.2693 29.3985 19.3478 29.3742 19.7188 29.1803C20.0915 28.9855 20.1759 28.9594 20.4354 28.9594C20.8406 28.9594 21.1993 29.1416 21.4089 29.4537C21.6016 29.7408 21.6557 29.9402 21.656 30.3652C21.6563 30.7911 21.7581 31.0128 22.0211 31.1606C22.2057 31.2644 22.2306 31.2657 23.9965 31.2657C25.66 31.2657 25.7972 31.2595 25.9593 31.1768C26.2242 31.0416 26.3437 30.7906 26.344 30.3687C26.3444 29.9402 26.398 29.7413 26.5911 29.4537C26.8007 29.1416 27.1594 28.9594 27.5646 28.9594C27.8241 28.9594 27.9085 28.9855 28.2812 29.1803C28.6523 29.3742 28.7307 29.3985 28.9253 29.3798C29.0471 29.3681 29.2042 29.3167 29.2742 29.2657C29.351 29.2098 29.7559 28.5605 30.2946 27.6295C31.0921 26.2512 31.1878 26.0634 31.1881 25.8751C31.1885 25.5642 31.0759 25.3928 30.7391 25.1922C30.1555 24.8446 29.9072 24.4887 29.9072 24.0001C29.9072 23.5077 30.141 23.1747 30.7435 22.8087C31.0754 22.6071 31.1885 22.4331 31.1881 22.1251C31.1878 21.9367 31.0921 21.7489 30.2946 20.3707C29.7559 19.4396 29.351 18.7904 29.2742 18.7344C29.2042 18.6834 29.0471 18.6321 28.9253 18.6204C28.731 18.6017 28.6523 18.6259 28.2855 18.8176C27.9165 19.0104 27.8319 19.0363 27.5672 19.0376C27.1565 19.0395 26.8027 18.8614 26.5911 18.5464C26.398 18.2589 26.3444 18.06 26.344 17.6314C26.3437 17.2095 26.2242 16.9585 25.9593 16.8234C25.7971 16.7406 25.6602 16.7344 23.9902 16.7347L22.1953 16.7349L22.0122 16.8458ZM23.044 18.1993C23.0354 18.2315 23.0039 18.3634 22.9739 18.4923C22.7796 19.327 22.0613 20.0734 21.1875 20.3485C20.8066 20.4684 20.1541 20.4778 19.7813 20.3688C19.6395 20.3273 19.4928 20.2889 19.4554 20.2835C19.4123 20.2772 19.219 20.5638 18.928 21.0656C18.6754 21.5013 18.4688 21.8704 18.4688 21.8859C18.4688 21.9014 18.5416 21.9723 18.6306 22.0433C18.8657 22.2308 19.1993 22.7204 19.345 23.0918C19.4585 23.381 19.4715 23.4744 19.4715 24.0001C19.4715 24.5257 19.4585 24.6192 19.345 24.9084C19.1993 25.2798 18.8657 25.7693 18.6306 25.9569C18.5416 26.0279 18.4688 26.0991 18.4688 26.1151C18.4688 26.1311 18.6762 26.5002 18.9298 26.9354C19.2139 27.4229 19.4163 27.7228 19.4572 27.7167C19.4936 27.7112 19.6395 27.6729 19.7813 27.6315C20.1341 27.5285 20.7657 27.5277 21.1148 27.6297C22.0355 27.8989 22.7727 28.6437 22.9739 29.5079C23.0039 29.6368 23.0354 29.7687 23.044 29.8009C23.0558 29.8452 23.2872 29.8595 24 29.8595C24.7128 29.8595 24.9442 29.8452 24.956 29.8009C24.9646 29.7687 24.9962 29.6368 25.0262 29.5079C25.2273 28.6436 25.9656 27.8979 26.8853 27.63C27.2331 27.5287 27.8196 27.5254 28.1953 27.6226C28.35 27.6626 28.5059 27.7024 28.5418 27.711C28.5836 27.721 28.7727 27.4429 29.0691 26.9354C29.3233 26.5002 29.5313 26.1311 29.5313 26.1151C29.5313 26.0991 29.4584 26.0279 29.3694 25.9569C29.1307 25.7664 28.7986 25.2758 28.6597 24.9084C28.4963 24.4763 28.4556 23.8219 28.5655 23.3941C28.6866 22.9229 28.9082 22.5231 29.2371 22.1827C29.4009 22.0131 29.5246 21.8517 29.5119 21.8239C29.4992 21.7962 29.2914 21.436 29.0501 21.0235C28.778 20.5583 28.5872 20.279 28.5476 20.2879C28.5124 20.2959 28.366 20.3343 28.2223 20.3734C27.8396 20.4772 27.1848 20.4657 26.8125 20.3485C25.9388 20.0734 25.2204 19.327 25.0262 18.4923C24.9962 18.3634 24.9646 18.2315 24.956 18.1993C24.9335 18.1145 23.0665 18.1145 23.044 18.1993ZM33.8916 18.5014C33.8019 18.5479 33.6805 18.6577 33.622 18.7453C33.4583 18.9904 33.481 19.2325 33.7206 19.7935C34.9443 22.6602 34.8715 25.8578 33.5198 28.6173C32.4612 30.7784 30.8106 32.4365 28.6641 33.495C25.2929 35.1573 21.3284 34.9152 18.1911 32.8555C17.9059 32.6682 17.6809 32.5067 17.6912 32.4965C17.7014 32.4862 18.0862 32.4269 18.5463 32.3647C19.6323 32.2179 19.6195 32.2212 19.8052 32.0355C19.9921 31.8486 20.0507 31.6143 19.9742 31.3593C19.9128 31.1541 19.6628 30.9133 19.4664 30.8702C19.3926 30.854 18.5347 30.9464 17.5599 31.0757C15.6579 31.3278 15.5775 31.3487 15.4102 31.633C15.2934 31.8314 15.303 31.9878 15.5445 33.8198C15.7871 35.6607 15.8105 35.7427 16.1382 35.9014C16.4501 36.0524 16.6832 36.0163 16.9325 35.7784C17.1602 35.5613 17.174 35.4312 17.0609 34.5686C17.0048 34.141 16.9676 33.7825 16.9781 33.772C16.9886 33.7614 17.1438 33.8514 17.3229 33.9718C18.8231 34.9812 20.6604 35.6646 22.5469 35.9151C23.1221 35.9915 24.9305 35.9909 25.4766 35.9142C27.1937 35.6729 28.7281 35.1472 30.0943 34.3321C34.5984 31.6447 36.8139 26.5342 35.7112 21.3751C35.4832 20.3083 34.8609 18.7422 34.5874 18.5468C34.4083 18.4188 34.0908 18.3981 33.8916 18.5014ZM23.3438 21.0261C22.5023 21.2068 21.6707 21.8598 21.2876 22.6407C20.8447 23.5433 20.8447 24.4568 21.2876 25.3595C21.5619 25.9185 22.0816 26.4382 22.6406 26.7125C23.5433 27.1554 24.4568 27.1554 25.3594 26.7125C26.1506 26.3243 26.7965 25.4937 26.9766 24.6329C27.12 23.9474 27.0335 23.2951 26.7124 22.6407C26.4381 22.0816 25.9185 21.562 25.3594 21.2877C24.7074 20.9677 24.0267 20.8794 23.3438 21.0261ZM23.5447 22.4247C23.0602 22.5829 22.7199 22.883 22.5047 23.3417C22.4033 23.5579 22.3828 23.6688 22.3828 24.0011C22.3828 24.3572 22.3994 24.4341 22.5356 24.7108C22.7134 25.0721 22.9676 25.32 23.3381 25.4937C23.558 25.5968 23.6675 25.6173 24 25.6173C24.3325 25.6173 24.442 25.5968 24.6619 25.4937C25.0324 25.32 25.2866 25.0721 25.4644 24.7108C25.6007 24.4341 25.6172 24.3572 25.6172 24.0011C25.6172 23.6674 25.5969 23.5582 25.4937 23.3382C25.2215 22.7578 24.7041 22.4055 24.0806 22.3761C23.8767 22.3664 23.6637 22.3857 23.5447 22.4247Z" fill="white"/>
</g>
<defs>
<clipPath id="clip0_1_268">
<rect width="24" height="24" fill="white" transform="translate(12 12)"/>
</clipPath>
</defs>
</svg>
