<svg width="49" height="48" viewBox="0 0 49 48" fill="none" xmlns="http://www.w3.org/2000/svg">
<rect x="0.5" width="48" height="48" rx="8" fill="#ED5729"/>
<g clip-path="url(#clip0_1_281)">
<path fill-rule="evenodd" clip-rule="evenodd" d="M14.1172 12.0662C13.3469 12.2573 12.7128 12.9105 12.552 13.6781C12.4784 14.0294 12.4784 29.2832 12.552 29.6345C12.7169 30.4219 13.3871 31.0919 14.1781 31.2598C14.3485 31.296 15.4496 31.3125 17.6861 31.3125H20.9457L20.9151 31.5118C20.7686 32.4647 20.338 33.4715 19.7426 34.2526L19.5005 34.5704L18.6135 34.5938C17.6104 34.6203 17.489 34.6565 17.3237 34.9786C17.1486 35.3196 17.2651 35.7072 17.5992 35.895L17.7862 36H24.4965C30.9926 36 31.2124 35.9972 31.3811 35.9111C31.5845 35.8074 31.7656 35.5181 31.7656 35.2969C31.7656 35.2137 31.7184 35.0616 31.6607 34.9589C31.4856 34.6474 31.3912 34.6203 30.3865 34.5938L29.4995 34.5704L29.2573 34.2526C28.662 33.4715 28.2313 32.4647 28.0848 31.5118L28.0542 31.3125H31.3139C33.5211 31.3125 34.6537 31.2958 34.8219 31.2605C35.1809 31.1854 35.667 30.9155 35.9084 30.6574C36.151 30.3982 36.3905 29.9506 36.4347 29.6745C36.4516 29.5688 36.4838 29.471 36.5061 29.4572C36.5289 29.4431 36.5469 25.9829 36.5469 21.6039C36.5469 17.142 36.5292 13.7867 36.5058 13.8011C36.4833 13.815 36.4508 13.7386 36.4336 13.6313C36.4165 13.524 36.3266 13.2918 36.2338 13.1154C35.9514 12.5779 35.4209 12.1785 34.8219 12.0524C34.445 11.973 14.4388 11.9864 14.1172 12.0662ZM14.27 13.503C14.1629 13.5595 14.0581 13.6673 14.0005 13.7803C13.9075 13.9627 13.9062 14.0461 13.9062 20.2482V26.5313H24.5H35.0937V20.2482C35.0937 14.0436 35.0926 13.9628 34.9994 13.7801C34.9386 13.661 34.8391 13.5614 34.72 13.5007C34.5362 13.407 34.4669 13.4063 24.4901 13.4084C14.5818 13.4104 14.4429 13.4117 14.27 13.503ZM12.5229 21.6563C12.5229 25.9747 12.5284 27.7412 12.5351 25.5821C12.5419 23.4229 12.5419 19.8897 12.5351 17.7305C12.5284 15.5713 12.5229 17.3379 12.5229 21.6563ZM15.7153 16.0958C15.3573 16.3125 15.3635 16.2688 15.3613 18.5527C15.3591 20.8513 15.3558 20.8285 15.7242 21.0356C15.9099 21.1399 15.9252 21.1407 17.934 21.1407C20.2251 21.1407 20.2037 21.1438 20.4105 20.7758C20.5149 20.5901 20.5156 20.5749 20.5156 18.5625C20.5156 16.5502 20.5149 16.535 20.4105 16.3493C20.2036 15.9811 20.2259 15.9844 17.9276 15.9847L15.8984 15.9849L15.7153 16.0958ZM22.2778 16.0958C21.9198 16.3125 21.926 16.2688 21.9238 18.5527C21.9216 20.8513 21.9183 20.8285 22.2867 21.0356C22.4724 21.1399 22.4877 21.1407 24.4965 21.1407C26.7876 21.1407 26.7662 21.1438 26.973 20.7758C27.0774 20.5901 27.0781 20.5749 27.0781 18.5625C27.0781 16.5502 27.0774 16.535 26.973 16.3493C26.7661 15.9811 26.7884 15.9844 24.4901 15.9847L22.4609 15.9849L22.2778 16.0958ZM28.8403 16.0958C28.4823 16.3125 28.4885 16.2688 28.4863 18.5527C28.4841 20.8513 28.4808 20.8285 28.8492 21.0356C29.0349 21.1399 29.0502 21.1407 31.059 21.1407C33.3501 21.1407 33.3287 21.1438 33.5355 20.7758C33.6399 20.5901 33.6406 20.5749 33.6406 18.5625C33.6406 16.5502 33.6399 16.535 33.5355 16.3493C33.3286 15.9811 33.3509 15.9844 31.0526 15.9847L29.0234 15.9849L28.8403 16.0958ZM16.7656 18.5625V19.7344H17.9375H19.1094V18.5625V17.3907H17.9375H16.7656V18.5625ZM23.3281 18.5625V19.7344H24.5H25.6719V18.5625V17.3907H24.5H23.3281V18.5625ZM29.8906 18.5625V19.7344H31.0625H32.2344V18.5625V17.3907H31.0625H29.8906V18.5625ZM15.7153 22.6583C15.2477 22.9413 15.2524 23.583 15.7242 23.8481C15.9099 23.9524 15.9252 23.9532 17.934 23.9532C20.2251 23.9532 20.2037 23.9563 20.4105 23.5883C20.5437 23.3513 20.5437 23.1488 20.4105 22.9118C20.2036 22.5436 20.2259 22.5469 17.9276 22.5472L15.8984 22.5474L15.7153 22.6583ZM22.2778 22.6583C21.8102 22.9413 21.8149 23.583 22.2867 23.8481C22.4724 23.9524 22.4877 23.9532 24.4965 23.9532C26.3902 23.9532 26.5305 23.9475 26.6936 23.8643C26.897 23.7605 27.0781 23.4712 27.0781 23.25C27.0781 23.0289 26.897 22.7396 26.6936 22.6358C26.5304 22.5526 26.3903 22.5469 24.4901 22.5472L22.4609 22.5474L22.2778 22.6583ZM28.8403 22.6583C28.3727 22.9413 28.3774 23.583 28.8492 23.8481C29.0349 23.9524 29.0502 23.9532 31.059 23.9532C32.9527 23.9532 33.093 23.9475 33.2561 23.8643C33.4595 23.7605 33.6406 23.4712 33.6406 23.25C33.6406 23.0289 33.4595 22.7396 33.2561 22.6358C33.0929 22.5526 32.9528 22.5469 31.0526 22.5472L29.0234 22.5474L28.8403 22.6583ZM13.9062 28.6425C13.9062 29.4637 13.9569 29.6246 14.2711 29.8012L14.4581 29.9063H24.4965C34.4648 29.9063 34.5363 29.9056 34.72 29.8119C35.0366 29.6504 35.0937 29.4716 35.0937 28.6425V27.9375H24.5H13.9062V28.6425ZM22.3025 31.6993C22.1773 32.5427 21.8192 33.577 21.4098 34.2774L21.2248 34.5938H24.4985H27.7721L27.5667 34.2334C27.1519 33.5055 26.8245 32.5553 26.7017 31.7227L26.6411 31.3125H24.5006H22.36L22.3025 31.6993Z" fill="white"/>
</g>
<defs>
<clipPath id="clip0_1_281">
<rect width="24" height="24" fill="white" transform="translate(12.5 12)"/>
</clipPath>
</defs>
</svg>
