<svg width="48" height="48" viewBox="0 0 48 48" fill="none" xmlns="http://www.w3.org/2000/svg">
<rect width="48" height="48" rx="8" fill="#ED5729"/>
<g clip-path="url(#clip0_1_232)">
<g clip-path="url(#clip1_1_232)">
<path fill-rule="evenodd" clip-rule="evenodd" d="M21.4316 12.0754C21.347 12.1185 21.231 12.2194 21.1738 12.2996L21.0698 12.4453L21.058 19.8282C21.0464 27.1298 21.0473 27.2127 21.1396 27.3637C21.4261 27.8323 22.1037 27.8129 22.3476 27.329L22.4535 27.119L22.4414 19.7974C22.4292 12.485 22.4291 12.4755 22.3326 12.3462C22.0997 12.0343 21.73 11.9232 21.4316 12.0754ZM15.3366 15.5609C15.249 15.6159 15.1424 15.7444 15.0916 15.8565C15.0052 16.0466 15.0015 16.2082 15.0008 19.8282C15.0003 22.2486 15.0171 23.6632 15.0478 23.7735C15.1102 23.9983 15.3616 24.2161 15.6064 24.2574C15.7589 24.2832 15.8451 24.2671 16.0204 24.1802C16.4322 23.9758 16.4056 24.2737 16.4057 19.861C16.4058 15.6585 16.4179 15.8609 16.1518 15.6124C15.9781 15.4501 15.5556 15.4235 15.3366 15.5609ZM24.3697 15.5752C24.0262 15.8047 24.0443 15.5541 24.0577 19.9068C24.0697 23.762 24.0709 23.8071 24.1665 23.9351C24.3086 24.1255 24.4719 24.2333 24.6656 24.2647C24.9117 24.3047 25.2182 24.1466 25.3503 23.9116L25.4526 23.7295L25.4526 19.8687C25.4525 16.2865 25.4466 15.9961 25.3705 15.8447C25.2529 15.6105 25.0187 15.4688 24.7495 15.4688C24.5983 15.4688 24.479 15.5022 24.3697 15.5752ZM18.5386 17.2355C18.3842 17.2774 18.1902 17.4361 18.1146 17.5821C18.0537 17.7 18.0456 18.0289 18.0568 19.9184L18.0698 22.1175L18.187 22.2445C18.5234 22.6091 19.0245 22.5706 19.3311 22.1568C19.4273 22.027 19.4292 21.9824 19.4292 19.8833C19.4292 17.5225 19.4341 17.5642 19.132 17.3491C18.9907 17.2485 18.6974 17.1923 18.5386 17.2355ZM27.5316 17.2543C27.32 17.3156 27.1057 17.5795 27.0703 17.8223C27.0541 17.9329 27.0474 18.9237 27.0554 20.024C27.0694 21.9688 27.0726 22.0282 27.1679 22.1568C27.4947 22.5976 28.0587 22.6071 28.3462 22.1767L28.4526 22.0174L28.4525 19.8564C28.4523 17.772 28.4489 17.6899 28.3578 17.5403C28.2609 17.3815 27.9456 17.2025 27.773 17.2084C27.7214 17.2102 27.6128 17.2309 27.5316 17.2543ZM12.3229 18.9033C12.0458 19.0884 11.9938 19.2551 12.0093 19.9069C12.024 20.5223 12.0583 20.6185 12.3373 20.8268C12.503 20.9505 12.9023 20.9505 13.068 20.8268C13.347 20.6185 13.3813 20.5223 13.396 19.9069C13.4073 19.4319 13.3955 19.3086 13.3257 19.1728C13.2048 18.9379 12.9711 18.7969 12.7026 18.7969C12.5514 18.7969 12.4321 18.8303 12.3229 18.9033ZM30.4917 18.8419C30.4401 18.8633 30.3347 18.9477 30.2573 19.0294C30.1173 19.1772 30.1167 19.1805 30.1013 19.8115C30.0864 20.4232 30.0899 20.4514 30.2042 20.624C30.3692 20.8733 30.6744 20.9905 30.9464 20.909C31.3757 20.7804 31.5234 20.4588 31.4888 19.7279C31.4642 19.2081 31.3844 19.0227 31.1253 18.8842C30.9563 18.7939 30.6553 18.7737 30.4917 18.8419ZM28.0431 24.1179C27.4634 24.2438 26.9109 24.6387 26.6326 25.1261C26.5044 25.3505 26.4702 25.377 26.1852 25.4729C25.0825 25.844 24.4139 27.0592 24.7289 28.1199L24.8021 28.3662L24.6147 28.5695C23.8658 29.3819 23.8815 30.7199 24.6494 31.5404L24.7969 31.698L24.7264 31.9356C24.5856 32.4098 24.6656 33.0483 24.9269 33.535C25.1966 34.0376 25.8533 34.5506 26.3247 34.6271C26.4561 34.6484 26.5016 34.6895 26.5891 34.866C26.7126 35.115 27.043 35.469 27.3066 35.6346C27.695 35.8788 28.0199 35.9684 28.523 35.9705C29.1202 35.9729 29.4581 35.8557 29.9745 35.4666C30.0098 35.44 30.1147 35.4867 30.2699 35.5983C30.661 35.8792 30.9772 35.9729 31.523 35.9694C32.0652 35.9659 32.3726 35.8756 32.7938 35.5961C33.0616 35.4183 33.377 35.064 33.5041 34.7981C33.5561 34.6894 33.6145 34.6444 33.7273 34.6261C34.1982 34.5497 34.8514 34.038 35.1195 33.5356C35.3825 33.0427 35.4602 32.4093 35.3169 31.9268C35.244 31.6812 35.2442 31.6797 35.3617 31.5709C35.5326 31.4125 35.7883 30.9961 35.8807 30.7258C36.1262 30.0079 35.9446 29.1265 35.4381 28.577L35.2576 28.3812L35.3271 28.1242C35.422 27.7729 35.3862 27.1559 35.2501 26.7973C35.0191 26.1889 34.4325 25.637 33.8327 25.4637C33.575 25.3893 33.544 25.3654 33.4409 25.1631C33.0701 24.4348 32.0404 23.9434 31.1831 24.0855C30.8483 24.1409 30.2621 24.4019 30.1203 24.5585C30.0361 24.6515 30.0347 24.6513 29.8653 24.5158C29.5263 24.2448 28.9311 24.0412 28.5049 24.0506C28.4117 24.0527 28.2039 24.0829 28.0431 24.1179ZM28.1911 25.5395C27.9447 25.6547 27.8129 25.826 27.7199 26.152C27.5985 26.5774 27.3649 26.7657 26.958 26.7657C26.6722 26.7657 26.5022 26.8263 26.3258 26.9913C25.9783 27.3162 25.9769 27.7683 26.322 28.182C26.4919 28.3856 26.5143 28.6531 26.3828 28.9086C26.2944 29.0803 26.2165 29.1522 25.9926 29.2686C25.5631 29.4919 25.3784 29.8486 25.4934 30.2326C25.566 30.4748 25.7068 30.6409 25.9376 30.7565C26.216 30.896 26.3844 31.0701 26.4398 31.2759C26.5016 31.5054 26.45 31.6873 26.2321 32.0086C26.0248 32.3143 26.0076 32.5541 26.171 32.8638C26.3145 33.1358 26.5644 33.2795 26.8956 33.2805C27.3657 33.282 27.5912 33.4572 27.7278 33.927C27.832 34.2855 28.0717 34.5262 28.369 34.5708C28.73 34.6249 29.0712 34.4622 29.2387 34.1561C29.3133 34.0197 29.321 33.7091 29.3343 30.2813C29.3423 28.2317 29.3354 26.4236 29.319 26.2634C29.2709 25.7915 29.0272 25.5284 28.5892 25.4752C28.4417 25.4573 28.3275 25.4757 28.1911 25.5395ZM31.2503 25.5211C31.1519 25.5561 31.0277 25.6238 30.9743 25.6714C30.7455 25.8752 30.7495 25.7963 30.7495 30.0477C30.7495 34.3852 30.7376 34.1857 31.0094 34.3995C31.4972 34.7832 32.1421 34.5575 32.3146 33.9427C32.4494 33.4624 32.6763 33.2813 33.1433 33.2813C33.618 33.2813 33.9342 32.9901 33.9734 32.5167C33.9915 32.2968 33.9767 32.2487 33.8186 32.0157C33.4277 31.4395 33.5119 31.0783 34.113 30.752C34.4856 30.5497 34.6603 30.1742 34.5512 29.8101C34.4789 29.5685 34.3042 29.3696 34.0891 29.2835C33.7095 29.1317 33.5106 28.7715 33.6074 28.4117C33.6344 28.3116 33.6895 28.2023 33.7298 28.1688C33.8552 28.0647 33.9839 27.7623 33.9839 27.5718C33.9839 27.1175 33.6012 26.7657 33.107 26.7657C32.6788 26.7657 32.4532 26.5848 32.323 26.1369C32.232 25.8237 32.0968 25.6519 31.8548 25.542C31.6288 25.4394 31.4926 25.4347 31.2503 25.5211Z" fill="white"/>
</g>
</g>
<defs>
<clipPath id="clip0_1_232">
<rect width="24" height="24" fill="white" transform="translate(12 12)"/>
</clipPath>
<clipPath id="clip1_1_232">
<rect width="24" height="24" fill="white" transform="translate(12 12)"/>
</clipPath>
</defs>
</svg>
