<svg width="48" height="48" viewBox="0 0 48 48" fill="none" xmlns="http://www.w3.org/2000/svg">
<rect width="48" height="48" rx="8" fill="#EEF3ED"/>
<g clip-path="url(#clip0_359_3503)">
<path fill-rule="evenodd" clip-rule="evenodd" d="M28.5469 13.9219V14.7656H20.2734H12V22.875V30.9844H16.6232H21.2464L21.2252 31.7695C21.2075 32.4247 21.1884 32.5897 21.1096 32.7661C20.9429 33.1395 20.6206 33.3955 20.2347 33.4613L20.0391 33.4947L20.0261 34.2083L20.0132 34.9219H24H27.9868L27.9739 34.2083L27.9609 33.4947L27.7653 33.4613C27.3794 33.3955 27.0571 33.1395 26.8904 32.7661C26.8116 32.5897 26.7925 32.4247 26.7748 31.7698L26.7536 30.9848L31.3885 30.9729L36.0234 30.9609L36.0353 22.8516L36.0472 14.7422L34.4064 14.7551L32.7656 14.768V13.923V13.0781H30.6562H28.5469V13.9219ZM29.9531 18.3984V22.3125H30.6562H31.3594V18.3984V14.4844H30.6562H29.9531V18.3984ZM12.0229 22.875C12.0229 27.348 12.0284 29.1779 12.0352 26.9414C12.0419 24.7049 12.0419 21.0451 12.0352 18.8086C12.0284 16.572 12.0229 18.402 12.0229 22.875ZM13.4062 22.875V29.5781H24H34.5938V22.875V16.1719H33.6797H32.7656V20.848V25.5242L31.7109 26.5781L30.6562 27.632L29.6016 26.5781L28.5469 25.5242V20.848V16.1719H20.9766H13.4062V22.875ZM20.2338 20.8838C19.8269 22.371 19.505 23.5988 19.5185 23.6122C19.5437 23.6375 20.83 24 20.8409 23.985C20.8567 23.9631 22.3125 18.6053 22.3125 18.569C22.3125 18.532 21.4788 18.2809 21.1132 18.2078L20.9737 18.1799L20.2338 20.8838ZM16.3008 20.0458L15.4781 21.1977L16.296 22.341C16.7459 22.9699 17.1259 23.4844 17.1404 23.4844C17.1995 23.4844 18.2344 22.7234 18.2344 22.6799C18.2344 22.6403 17.692 21.8572 17.3113 21.347L17.2029 21.2018L17.5841 20.6673C17.7937 20.3733 18.0358 20.0359 18.1219 19.9175L18.2785 19.7021L17.7525 19.328C17.4632 19.1222 17.2034 18.9403 17.175 18.9238C17.1446 18.9061 16.7868 19.3653 16.3008 20.0458ZM24.1036 19.2954L23.5334 19.7013L23.6903 19.917C23.7766 20.0357 24.0187 20.3733 24.2284 20.6673L24.6096 21.2018L24.5012 21.347C24.1205 21.8572 23.5781 22.6403 23.5781 22.6799C23.5781 22.7234 24.613 23.4844 24.6721 23.4844C24.6866 23.4844 25.0667 22.9698 25.5166 22.3408L26.3348 21.1972L25.5372 20.0791C25.0986 19.4641 24.7249 18.9449 24.7068 18.9252C24.6887 18.9056 24.4173 19.0722 24.1036 19.2954ZM29.9531 24.3176V24.9164L30.3047 25.2656L30.6562 25.6148L31.0078 25.2656L31.3594 24.9164V24.3176V23.7188H30.6562H29.9531V24.3176ZM15.9844 27.0938V27.7969H16.6875H17.3906V27.0938V26.3906H16.6875H15.9844V27.0938ZM18.7969 27.0938V27.7969H19.5H20.2031V27.0938V26.3906H19.5H18.7969V27.0938ZM21.6094 27.0938V27.7969H22.3125H23.0156V27.0938V26.3906H22.3125H21.6094V27.0938ZM24.4219 27.0938V27.7969H25.125H25.8281V27.0938V26.3906H25.125H24.4219V27.0938ZM22.5841 31.957C22.5682 32.8258 22.5552 32.9572 22.4628 33.1875C22.406 33.3293 22.3594 33.4611 22.3594 33.4805C22.3594 33.4998 23.0977 33.5156 24 33.5156C24.9023 33.5156 25.6406 33.4998 25.6406 33.4805C25.6406 33.4611 25.594 33.3293 25.5372 33.1875C25.4448 32.9572 25.4318 32.8258 25.4159 31.957L25.398 30.9844H24H22.602L22.5841 31.957Z" fill="black" fill-opacity="0.5"/>
</g>
<defs>
<clipPath id="clip0_359_3503">
<rect width="24" height="24" fill="white" transform="translate(12 12)"/>
</clipPath>
</defs>
</svg>
