<svg width="48" height="48" viewBox="0 0 48 48" fill="none" xmlns="http://www.w3.org/2000/svg">
<rect width="48" height="48" rx="8" fill="#EEF3ED"/>
<g clip-path="url(#clip0_1_502)">
<path fill-rule="evenodd" clip-rule="evenodd" d="M23.4375 12.085C22.6313 12.2958 21.966 12.9764 21.7753 13.7856C21.5255 14.8454 22.0127 15.8875 22.9933 16.3904L23.3439 16.5703L23.3321 19.5L23.3203 22.4297L22.5352 22.4425L21.75 22.4554V20.9899V19.5244L20.975 18.7484L20.1999 17.9723L20.2934 17.7609C20.4372 17.436 20.4979 16.9483 20.4398 16.585C20.3439 15.9845 20.1446 15.6018 19.7175 15.1978C19.0057 14.5246 17.956 14.3835 17.0548 14.8399C16.5476 15.0967 16.0454 15.7289 15.8926 16.3028C15.8061 16.628 15.8264 17.2315 15.9357 17.5852C16.3211 18.8311 17.6844 19.5087 18.9247 19.0708L19.2222 18.9658L19.783 19.5252L20.3438 20.0845V21.2688V22.4531H16.1719H12V24.4687V26.4844L13.0664 26.4853L14.1328 26.4861L14.3578 27.183C14.4932 27.6025 14.7151 28.1447 14.9155 28.5457L15.2483 29.2116L14.5056 29.9553C13.7733 30.6887 13.7642 30.7004 13.849 30.7941C13.9606 30.9173 16.8488 33.8094 17.1039 34.0533L17.2986 34.2394L18.0435 33.4956L18.7884 32.7517L19.4413 33.078C19.8247 33.2696 20.3872 33.4999 20.8039 33.6358L21.5135 33.8672L21.5145 34.9336L21.5156 36H24H26.4844L26.4853 34.9336L26.4861 33.8672L27.183 33.6422C27.6025 33.5068 28.1447 33.2849 28.5457 33.0845L29.2116 32.7517L29.9462 33.4852C30.3502 33.8887 30.7017 34.2187 30.7273 34.2187C30.7879 34.2187 34.2188 30.7875 34.2188 30.7268C34.2188 30.7015 33.8887 30.3502 33.4852 29.9462L32.7518 29.2116L33.0845 28.5457C33.2843 28.146 33.5072 27.6014 33.6422 27.1837L33.8672 26.4877L34.9453 26.4743L36.0234 26.4609L36.0357 24.4453L36.0479 22.4297L31.8286 22.4419L27.6094 22.4541V21.2693V20.0845L28.1669 19.5284L28.7243 18.9724L29.0223 19.0734C29.8816 19.3647 30.8088 19.1569 31.4334 18.533C32.1631 17.8042 32.3221 16.7262 31.8403 15.7747C31.6887 15.4754 31.212 14.9988 30.9128 14.8472C30.1361 14.4539 29.1989 14.4944 28.5234 14.9503C27.615 15.5636 27.2349 16.8006 27.6599 17.7613L27.7532 17.9723L26.9788 18.7479L26.2044 19.5234L26.192 20.9766L26.1797 22.4297L25.4648 22.4426L24.75 22.4556V19.5042V16.5527L25.0664 16.3975C25.8408 16.0175 26.3417 15.2014 26.3432 14.3171C26.3457 12.8156 24.8978 11.7033 23.4375 12.085ZM23.6484 13.4948C23.4215 13.5996 23.2787 13.748 23.1819 13.9796C22.9365 14.5671 23.3838 15.2344 24.0231 15.2344C24.2961 15.2344 24.4998 15.1464 24.6885 14.947C24.8726 14.7525 24.9375 14.5878 24.9375 14.3154C24.9375 13.6639 24.2418 13.221 23.6484 13.4948ZM17.7422 16.0624C17.4137 16.236 17.2366 16.5291 17.2366 16.8991C17.2366 17.2729 17.4549 17.586 17.8227 17.7397C18.486 18.0167 19.2152 17.3764 19.0298 16.6797C18.9142 16.2452 18.5741 15.9829 18.1308 15.9862C17.9944 15.9873 17.8195 16.0215 17.7422 16.0624ZM29.4018 16.0619C29.0993 16.211 28.8751 16.5774 28.8757 16.9219C28.8758 16.9863 28.9268 17.1485 28.9891 17.2822C29.2499 17.8422 29.9363 17.9775 30.4095 17.5622C30.6182 17.3789 30.7031 17.18 30.7031 16.8742C30.7031 16.3475 30.334 15.9832 29.8027 15.9854C29.6663 15.986 29.4859 16.0204 29.4018 16.0619ZM12.0215 24.4687C12.0215 25.5902 12.0276 26.049 12.0351 25.4883C12.0426 24.9276 12.0426 24.01 12.0351 23.4492C12.0276 22.8885 12.0215 23.3473 12.0215 24.4687ZM13.4062 24.4687V25.0781H14.3429C15.276 25.0781 15.2796 25.0785 15.3029 25.1836C15.3157 25.2416 15.3811 25.5397 15.4481 25.8461C15.6868 26.9367 16.1107 27.9387 16.7346 28.8872L17.0664 29.3916L16.4045 30.0552L15.7426 30.7188L16.5195 31.4957L17.2965 32.2726L17.9646 31.6071L18.6328 30.9415L19.125 31.2697C20.0434 31.8821 21.0605 32.3126 22.1539 32.5519C22.4603 32.6189 22.7584 32.6843 22.8164 32.6971C22.9215 32.7204 22.9219 32.724 22.9219 33.6571V34.5937H24H25.0781V33.6571C25.0781 32.724 25.0785 32.7204 25.1836 32.6971C25.2416 32.6843 25.5397 32.6189 25.8461 32.5519C26.9319 32.3143 27.8596 31.9248 28.8472 31.2918L29.4052 30.9341L30.0628 31.5949L30.7204 32.2558L31.4965 31.4797L32.2726 30.7035L31.6087 30.0354L30.9448 29.3672L31.2711 28.875C31.8855 27.9481 32.3134 26.9362 32.5519 25.8461C32.6189 25.5397 32.6843 25.2416 32.6971 25.1836C32.7204 25.0785 32.724 25.0781 33.6571 25.0781H34.5938V24.4687V23.8594H32.5605H30.5273L30.498 24.0059C30.4819 24.0864 30.4688 24.2524 30.4688 24.3747C30.4688 24.497 30.4366 24.7844 30.3973 25.0134C29.9445 27.65 27.942 29.7228 25.3008 30.2887C24.6644 30.425 23.4351 30.4372 22.8155 30.3132C20.1118 29.7725 18.0622 27.6885 17.6027 25.0134C17.5634 24.7844 17.5312 24.497 17.5312 24.3747C17.5312 24.2524 17.5181 24.0864 17.502 24.0059L17.4727 23.8594H15.4395H13.4062V24.4687ZM18.9149 24.1992C19.0315 25.5224 19.4745 26.5384 20.3169 27.4154C21.2509 28.3876 22.3963 28.9208 23.7188 28.999C25.1202 29.0818 26.4618 28.5877 27.4837 27.6124C28.4595 26.6811 28.9605 25.6134 29.0851 24.1992L29.115 23.8594H24H18.885L18.9149 24.1992Z" fill="black" fill-opacity="0.5"/>
</g>
<defs>
<clipPath id="clip0_1_502">
<rect width="24" height="24" fill="white" transform="translate(12 12)"/>
</clipPath>
</defs>
</svg>
