<svg width="48" height="48" viewBox="0 0 48 48" fill="none" xmlns="http://www.w3.org/2000/svg">
<rect width="48" height="48" rx="8" fill="#EEF3ED"/>
<g clip-path="url(#clip0_359_3499)">
<path fill-rule="evenodd" clip-rule="evenodd" d="M12 21.8908V31.0312H16.2422H20.4844V31.9333V32.8353L19.2777 34.0426L18.071 35.25H24H29.929L28.7223 34.0426L27.5156 32.8353V31.9335V31.0318L31.7695 31.0198L36.0234 31.0078L36.0353 21.8672L36.0471 12.7266L24.0236 12.7385L12 12.7504V21.8908ZM12.023 21.8906C12.023 26.9309 12.0285 28.9928 12.0352 26.4727C12.0419 23.9525 12.0419 19.8287 12.0352 17.3086C12.0285 14.7885 12.023 16.8504 12.023 21.8906ZM13.4062 21.8906V29.625H24H34.5938V21.8906V14.1562H24H13.4062V21.8906ZM21.8895 16.5117L21.8885 17.4609L21.5649 17.6429C21.387 17.7429 21.2277 17.8248 21.2109 17.8248C21.1942 17.8248 20.8219 17.619 20.3837 17.3673C19.9455 17.1157 19.5708 16.9284 19.5509 16.951C19.5028 17.0058 17.4844 20.5144 17.4844 20.5433C17.4844 20.5556 17.843 20.7711 18.2812 21.0221L19.0781 21.4785V21.8906V22.3028L18.2812 22.7592C17.843 23.0102 17.4844 23.2257 17.4844 23.238C17.4844 23.2668 19.5028 26.7755 19.5509 26.8302C19.5708 26.8529 19.9499 26.663 20.3934 26.4083C20.8369 26.1537 21.2092 25.9478 21.2206 25.9509C21.232 25.9539 21.387 26.0383 21.5649 26.1384L21.8885 26.3203L21.8895 27.2695L21.8906 28.2188H24H26.1094L26.1105 27.2695L26.1115 26.3203L26.4464 26.1328C26.6306 26.0297 26.7953 25.9494 26.8124 25.9544C26.8295 25.9594 27.1965 26.1678 27.6281 26.4176C28.0596 26.6674 28.4288 26.8531 28.4485 26.8304C28.4988 26.7724 30.5156 23.2664 30.5156 23.2369C30.5156 23.2237 30.157 23.0075 29.7188 22.7565L28.9219 22.3001V21.8906V21.4812L29.7188 21.0248C30.157 20.7738 30.5156 20.5577 30.5156 20.5446C30.5156 20.5148 28.4986 17.0073 28.449 16.9508C28.429 16.9281 28.0596 17.1139 27.6281 17.3637C27.1965 17.6134 26.8295 17.8219 26.8124 17.8269C26.7953 17.8319 26.6306 17.7516 26.4464 17.6484L26.1115 17.4609L26.1105 16.5117L26.1094 15.5625H24H21.8906L21.8895 16.5117ZM23.2863 17.6987L23.2734 18.4286L22.8728 18.5793C22.3946 18.7591 22.1242 18.9124 21.7619 19.2089C21.6135 19.3303 21.4592 19.4553 21.419 19.4866C21.3585 19.5338 21.2414 19.4833 20.7394 19.194C20.4058 19.0018 20.1196 18.8444 20.1034 18.8442C20.0748 18.8438 19.4062 19.9777 19.4062 20.0266C19.4062 20.04 19.6752 20.2049 20.0039 20.3928C20.3326 20.5808 20.6091 20.7404 20.6183 20.7474C20.6276 20.7544 20.6012 20.9591 20.5597 21.2023C20.5183 21.4455 20.4844 21.7552 20.4844 21.8906C20.4844 22.026 20.5183 22.3358 20.5597 22.579C20.6012 22.8222 20.6276 23.0269 20.6183 23.0339C20.6091 23.0409 20.3326 23.2004 20.0039 23.3884C19.6752 23.5764 19.4062 23.7412 19.4062 23.7547C19.4062 23.8035 20.0748 24.9375 20.1034 24.9371C20.1196 24.9369 20.4058 24.7794 20.7394 24.5872C21.2414 24.2979 21.3585 24.2475 21.419 24.2946C21.4592 24.3259 21.611 24.4488 21.7562 24.5677C22.1034 24.8518 22.4632 25.0543 22.9096 25.2169L23.2734 25.3495L23.2863 26.081L23.2993 26.8125H24H24.7007L24.7137 26.081L24.7266 25.3495L25.0904 25.2169C25.5592 25.0461 25.8875 24.8565 26.3054 24.515C26.5962 24.2774 26.655 24.247 26.7389 24.291C26.7922 24.319 27.0702 24.4759 27.3565 24.6397C27.6428 24.8035 27.888 24.9375 27.9015 24.9375C27.9277 24.9375 28.5938 23.7973 28.5938 23.7525C28.5938 23.7378 28.3248 23.5731 27.9961 23.3865C27.6674 23.1998 27.3909 23.0413 27.3817 23.0341C27.3724 23.027 27.3988 22.8222 27.4403 22.579C27.5349 22.0234 27.5349 21.7579 27.4403 21.2023C27.3988 20.9591 27.3724 20.7543 27.3817 20.7471C27.3909 20.74 27.6674 20.5815 27.9961 20.3948C28.3248 20.2082 28.5938 20.0435 28.5938 20.0288C28.5938 19.9839 27.9277 18.8438 27.9015 18.8438C27.888 18.8438 27.6428 18.9778 27.3565 19.1415C27.0702 19.3053 26.7922 19.4623 26.7389 19.4903C26.655 19.5343 26.5955 19.5033 26.299 19.2611C25.8631 18.9049 25.6256 18.7667 25.1272 18.5793L24.7266 18.4286L24.7137 17.6987L24.7007 16.9688H24H23.2993L23.2863 17.6987ZM23.5078 19.8474C22.4469 20.1107 21.7471 21.1648 21.929 22.2255C22.1254 23.3712 23.2109 24.1544 24.3349 23.9617C25.4819 23.765 26.264 22.6811 26.071 21.5557C25.8634 20.3447 24.6804 19.5563 23.5078 19.8474ZM23.6607 21.2842C23.4628 21.3886 23.2969 21.6652 23.2969 21.8906C23.2969 22.2371 23.6517 22.5938 23.9965 22.5938C24.3566 22.5938 24.7031 22.2489 24.7031 21.8906C24.7031 21.658 24.5373 21.388 24.3293 21.2819C24.0984 21.1641 23.8868 21.1648 23.6607 21.2842ZM21.8906 32.2365V33.4417L21.6934 33.6427L21.4961 33.8438H24H26.5039L26.3066 33.6427L26.1094 33.4417V32.2365V31.0312H24H21.8906V32.2365Z" fill="black" fill-opacity="0.5"/>
</g>
<defs>
<clipPath id="clip0_359_3499">
<rect width="24" height="24" fill="white" transform="translate(12 12)"/>
</clipPath>
</defs>
</svg>
