<svg width="48" height="48" viewBox="0 0 48 48" fill="none" xmlns="http://www.w3.org/2000/svg">
<rect width="48" height="48" rx="8" fill="#EEF3ED"/>
<g clip-path="url(#clip0_4_59)">
<path fill-rule="evenodd" clip-rule="evenodd" d="M23.2969 14.8359V17.6719H22.5938H21.8906V15.5391V13.4062H21.1875H20.4844V15.5391V17.6719H18.7266H16.9688V19.0781V20.4844H15.1875H13.4062V21.1875V21.8906H15.1875H16.9688V22.5938V23.2969H14.4844H12V24V24.7031H14.4844H16.9688V25.4062V26.1094H15.1875H13.4062V26.8125V27.5156H15.1875H16.9688V28.9219V30.3281H18.7266H20.4844V32.4609V34.5938H21.1875H21.8906V32.4609V30.3281H22.5938H23.2969V33.1641V36H24H24.7031V33.1641V30.3281H25.4062H26.1094V32.4609V34.5938H26.8125H27.5156V32.4609V30.3281H29.2734H31.0312V28.9219V27.5156H32.8125H34.5938V26.8125V26.1094H32.8125H31.0312V25.4067V24.704L33.5273 24.6918L36.0234 24.6797L36.0363 23.9766L36.0492 23.2734L33.5402 23.286L31.0312 23.2985V22.5945V21.8906H32.8125H34.5938V21.1875V20.4844H32.8125H31.0312V19.0781V17.6719H29.2734H27.5156V15.5391V13.4062H26.8125H26.1094V15.5391V17.6719H25.4062H24.7031V14.8359V12H24H23.2969V14.8359ZM18.375 24V28.9219H24H29.625V24V19.0781H24H18.375V24ZM20.4844 24V26.8125H21.1875H21.8906V26.1094V25.4062H22.5938H23.2969V26.1094V26.8125H24H24.7031V24V21.1875H22.5938H20.4844V24ZM26.1094 24V26.8125H26.8125H27.5156V24V21.1875H26.8125H26.1094V24ZM21.8906 23.2969V24H22.5938H23.2969V23.2969V22.5938H22.5938H21.8906V23.2969ZM12.0188 24C12.0188 24.3996 12.0261 24.5631 12.0348 24.3633C12.0436 24.1635 12.0436 23.8365 12.0348 23.6367C12.0261 23.4369 12.0188 23.6004 12.0188 24Z" fill="black" fill-opacity="0.5"/>
</g>
<defs>
<clipPath id="clip0_4_59">
<rect width="24" height="24" fill="white" transform="translate(12 12)"/>
</clipPath>
</defs>
</svg>
