<svg width="48" height="48" viewBox="0 0 48 48" fill="none" xmlns="http://www.w3.org/2000/svg">
<rect width="48" height="48" rx="8" fill="white"/>
<g clip-path="url(#clip0_1_97)">
<path fill-rule="evenodd" clip-rule="evenodd" d="M17.273 13.494C16.7064 13.945 16.202 14.386 16.0845 14.5333C15.2957 15.5217 15.1545 16.865 15.7212 17.9902C15.8122 18.171 16.0563 18.5319 16.2635 18.7919C16.4707 19.052 16.6402 19.2793 16.6402 19.2971C16.6402 19.3264 16.1789 20.2496 16.1436 20.291C16.1353 20.3006 15.9988 20.191 15.8401 20.0474C15.5331 19.7695 14.9723 19.4518 14.6246 19.3585C14.3369 19.2815 12.5413 18.8976 12.5277 18.9103C12.4812 18.9534 12.0354 21.1974 12.0147 21.4922C11.9411 22.5442 12.462 23.6362 13.3343 24.2588C13.7536 24.5579 14.0905 24.6933 14.8095 24.8515C15.1562 24.9278 15.4532 24.9985 15.4696 25.0087C15.486 25.0188 15.5267 25.1797 15.56 25.3662C15.5933 25.5526 15.6591 25.8399 15.7062 26.0046L15.7918 26.3039L15.5012 26.2735C15.1885 26.2408 14.6973 26.3019 14.3199 26.4204C14.0293 26.5117 12.1416 27.5217 12.1414 27.586C12.1409 27.6939 13.306 29.7377 13.4996 29.9685C14.1295 30.7197 14.9528 31.0982 15.9605 31.1001C16.607 31.1013 17.0294 30.974 17.8089 30.5434L18.3448 30.2473L18.5995 30.4547C18.7395 30.5687 18.936 30.7163 19.0362 30.7826C19.2482 30.9229 19.257 30.9517 19.1085 31.0194C18.9171 31.1066 18.4162 31.6045 18.2086 31.9139C18.0282 32.1829 17.1624 34.195 17.208 34.2392C17.2499 34.2798 19.3307 35.1125 19.5794 35.1882C19.7766 35.2482 20.0053 35.2703 20.4136 35.2688C20.902 35.267 21.0256 35.2498 21.3511 35.1378C21.8615 34.9622 22.1735 34.7751 22.5536 34.4165C22.9731 34.0207 23.1801 33.6955 23.4772 32.9652L23.7212 32.3657H23.9996H24.2779L24.5219 32.9652C24.819 33.6955 25.026 34.0207 25.4456 34.4165C25.8256 34.7751 26.1377 34.9622 26.648 35.1378C26.9735 35.2498 27.0972 35.267 27.5855 35.2688C27.9991 35.2703 28.2224 35.2484 28.4293 35.1858C28.8131 35.0697 30.7964 34.2576 30.7964 34.2165C30.7964 34.0998 29.9582 32.1727 29.8037 31.9342C29.6064 31.6297 29.0867 31.1088 28.8913 31.0197C28.8292 30.9914 28.7842 30.9529 28.7913 30.9342C28.7984 30.9155 28.9951 30.753 29.2283 30.5732L29.6523 30.2462L30.1892 30.5429C30.9697 30.974 31.392 31.1013 32.0386 31.1001C32.9899 31.0983 33.6212 30.8362 34.2886 30.1659C34.6903 29.7626 34.7381 29.6914 35.2847 28.6843C35.6006 28.1024 35.8589 27.6067 35.8588 27.5827C35.8587 27.5205 34.0603 26.5523 33.7414 26.4427C33.3555 26.3101 32.8006 26.2367 32.4716 26.2749C32.2206 26.304 32.1919 26.299 32.218 26.2308C32.2342 26.1885 32.3044 25.8936 32.3739 25.5755L32.5003 24.997L33.1132 24.8703C33.4503 24.8006 33.8678 24.684 34.041 24.6113C34.4486 24.4402 34.8973 24.118 35.201 23.7782C35.4997 23.444 35.8224 22.8112 35.9006 22.4063C35.933 22.2387 35.979 22.065 36.0029 22.0202C36.0632 21.9074 36.0599 21.1879 35.9996 21.2813C35.9635 21.337 35.9539 21.3273 35.9531 21.2344C35.9522 21.1286 35.4976 18.9348 35.4715 18.91C35.4654 18.9043 34.9753 19.0037 34.3824 19.1309C33.1174 19.4022 32.6667 19.5873 32.1655 20.0413C32.0032 20.1882 31.8638 20.3006 31.8555 20.291C31.8202 20.2496 31.3589 19.3264 31.3589 19.2971C31.3589 19.2793 31.5284 19.052 31.7356 18.7919C31.9428 18.5319 32.1869 18.171 32.278 17.9902C32.7382 17.0762 32.7395 16.0187 32.2813 15.1109C31.9764 14.507 31.7803 14.3177 30.0419 12.9498L29.7327 12.7065L29.047 13.5748C28.0792 14.8004 27.8849 15.2346 27.8849 16.1719C27.8849 16.7579 27.9601 17.0802 28.2214 17.614C28.3769 17.9317 28.5096 18.1046 28.9592 18.5755C29.7675 19.4221 30.1804 20.0206 30.5601 20.8961C30.9668 21.8336 31.1422 22.7057 31.1422 23.7891C31.1422 24.5989 31.0768 25.076 30.8663 25.8021C30.2162 28.0439 28.4135 29.8988 26.2027 30.6004C25.4331 30.8446 25.108 30.8973 24.2105 30.9233C23.4963 30.9441 23.2804 30.933 22.8043 30.8516C21.3913 30.6101 20.1058 29.9688 19.0917 28.9995C17.9405 27.8992 17.2803 26.6977 16.937 25.0782C16.8083 24.4708 16.8203 23.0211 16.9594 22.3759C17.1748 21.3768 17.6164 20.36 18.1724 19.5834C18.3223 19.3741 18.6989 18.9355 19.0094 18.6088C19.407 18.1904 19.6247 17.9183 19.7452 17.6888C20.2448 16.7382 20.2465 15.5795 19.7496 14.6728C19.619 14.4343 18.5624 13.0356 18.3089 12.7655C18.2703 12.7243 18.0106 12.9069 17.273 13.494ZM17.6011 15.0381C17.3949 15.2122 17.1574 15.4568 17.0734 15.5817C16.6199 16.2556 16.7054 17.1412 17.2885 17.8115L17.4711 18.0213L17.7433 17.8115C18.4325 17.28 18.6607 16.9145 18.6935 16.2899C18.7206 15.7727 18.6296 15.474 18.3157 15.0512C18.1805 14.869 18.0488 14.7203 18.023 14.7207C17.9972 14.7211 17.8074 14.8639 17.6011 15.0381ZM29.6834 15.0512C29.3696 15.474 29.2785 15.7727 29.3056 16.2899C29.3384 16.9136 29.5758 17.295 30.2529 17.8115L30.528 18.0213L30.7106 17.8115C31.2937 17.1412 31.3792 16.2556 30.9258 15.5817C30.7784 15.3627 30.0719 14.7222 29.9761 14.7207C29.9503 14.7203 29.8186 14.869 29.6834 15.0512ZM23.0624 19.7315L22.1606 21.2754L21.7558 21.3677C21.5332 21.4184 20.7394 21.5921 19.9918 21.7537C19.2441 21.9152 18.625 22.0529 18.616 22.0597C18.607 22.0664 19.1396 22.6766 19.7996 23.4157C20.7037 24.4282 20.9996 24.789 20.9996 24.8791C20.9996 24.9449 20.925 25.738 20.8339 26.6414C20.7427 27.545 20.6742 28.3102 20.6815 28.342C20.6901 28.3791 21.2883 28.1401 22.349 27.676L24.0032 26.9521L25.6537 27.6743C26.6814 28.124 27.3093 28.3754 27.3176 28.3404C27.325 28.3094 27.2564 27.545 27.1653 26.6414C27.0741 25.738 26.9996 24.9448 26.9996 24.8788C26.9996 24.7881 27.2931 24.4299 28.1993 23.4151C28.8592 22.6761 29.3918 22.0658 29.3829 22.0591C29.374 22.0523 28.7128 21.9046 27.9136 21.7309C27.1144 21.5572 26.3203 21.3838 26.1489 21.3455L25.8373 21.2759L24.9362 19.7317C24.4407 18.8824 24.0192 18.1875 23.9997 18.1875C23.9802 18.1875 23.5583 18.8823 23.0624 19.7315ZM13.5933 20.5951C13.5933 20.6044 13.5486 20.831 13.4941 21.0986C13.3291 21.9073 13.4449 22.3902 13.9254 22.8982C14.1889 23.1769 14.5025 23.3493 14.8964 23.4322C15.3181 23.5209 15.2992 23.5356 15.3954 23.0462C15.5965 22.0236 15.3332 21.3094 14.5958 20.8772C14.3703 20.7451 13.5933 20.5264 13.5933 20.5951ZM33.9418 20.6742C33.5268 20.7828 33.2797 20.9206 33.0092 21.1942C32.5635 21.6449 32.4395 22.2112 32.6038 23.0462C32.7 23.5357 32.6812 23.5212 33.1027 23.4317C33.8864 23.2652 34.4968 22.614 34.5755 21.8602C34.609 21.5407 34.4323 20.5762 34.3411 20.5807C34.3123 20.5822 34.1325 20.6242 33.9418 20.6742ZM23.519 21.7424L23.0617 22.5307L22.2299 22.7081C21.7723 22.8057 21.3707 22.9003 21.3374 22.9184C21.2955 22.9412 21.4629 23.1612 21.8795 23.6311L22.4822 24.3108L22.4 25.1047C22.3547 25.5412 22.3164 25.9551 22.3149 26.0243L22.3121 26.1502L23.1582 25.7803L24.0043 25.4103L24.8339 25.7751C25.4935 26.065 25.6662 26.1247 25.676 26.0661C25.6828 26.0255 25.6498 25.614 25.6024 25.1518L25.5164 24.3113L26.1187 23.6321C26.45 23.2585 26.7046 22.9389 26.6846 22.9219C26.6645 22.9049 26.2623 22.8085 25.7908 22.7076L24.9336 22.5242L24.4783 21.7392C24.2279 21.3074 24.0125 20.9541 23.9996 20.9541C23.9867 20.9541 23.7704 21.3089 23.519 21.7424ZM12.0159 21.6563C12.0159 21.8754 12.024 21.9651 12.0339 21.8555C12.0438 21.7459 12.0438 21.5667 12.0339 21.4571C12.024 21.3475 12.0159 21.4372 12.0159 21.6563ZM14.9527 27.7069C14.7358 27.7484 14.0338 28.0875 14.0448 28.1455C14.067 28.2626 14.4873 28.9657 14.6359 29.1346C15.0059 29.555 15.7459 29.7959 16.2886 29.6726C16.4731 29.6308 17.1134 29.3475 17.1958 29.2713C17.2049 29.2628 17.1206 29.0824 17.0083 28.8703C16.6442 28.1821 16.2324 27.8379 15.6184 27.7086C15.3387 27.6497 15.2529 27.6495 14.9527 27.7069ZM32.3199 27.7196C31.7412 27.868 31.3261 28.2261 30.9908 28.8663C30.8786 29.0806 30.7942 29.2628 30.8033 29.2713C30.8857 29.3475 31.526 29.6308 31.7105 29.6726C32.0347 29.7463 32.4651 29.6918 32.7952 29.5354C33.2618 29.3142 33.443 29.1193 33.8089 28.4445L33.9788 28.1311L33.7156 27.9826C33.2108 27.6976 32.7466 27.6102 32.3199 27.7196ZM20.265 32.0103C19.9523 32.1258 19.6433 32.3397 19.4802 32.5536C19.3075 32.7801 19.0129 33.4239 19.062 33.4674C19.0835 33.4865 19.3015 33.5834 19.5464 33.6829C19.9429 33.8439 20.0355 33.8637 20.3907 33.8634C20.7383 33.8632 20.8295 33.8444 21.0996 33.7181C21.563 33.5012 21.768 33.2902 22.0145 32.7768C22.1308 32.5343 22.2191 32.3298 22.2105 32.3223C22.2019 32.3148 21.9945 32.2277 21.7496 32.1286C21.1952 31.9044 20.666 31.8623 20.265 32.0103ZM26.2964 32.1148C26.0257 32.2222 25.7964 32.3168 25.7869 32.3249C25.7773 32.333 25.8664 32.5387 25.9848 32.7823C26.2321 33.2906 26.4318 33.4938 26.9053 33.7186C27.1707 33.8447 27.2603 33.8632 27.6084 33.8635C27.9626 33.8639 28.0574 33.8437 28.4527 33.6845C28.6976 33.5857 28.9159 33.4885 28.9377 33.4683C29.0127 33.3989 28.6136 32.6413 28.3849 32.419C28.047 32.0906 27.717 31.9547 27.2105 31.9354C26.8075 31.92 26.7666 31.928 26.2964 32.1148Z" fill="black"/>
</g>
<defs>
<clipPath id="clip0_1_97">
<rect width="24" height="24" fill="white" transform="translate(12 12)"/>
</clipPath>
</defs>
</svg>
