<svg width="24" height="24" viewBox="0 0 24 24" fill="none" xmlns="http://www.w3.org/2000/svg">
<mask id="path-1-inside-1_41_44" fill="white">
<path d="M0 4C0 1.79086 1.79086 0 4 0H20C22.2091 0 24 1.79086 24 4V20C24 22.2091 22.2091 24 20 24H4C1.79086 24 0 22.2091 0 20V4Z"/>
</mask>
<path d="M0 0H24H0ZM24 20C24 22.7614 21.7614 25 19 25H5C2.23858 25 0 22.7614 0 20C0 21.6569 1.79086 23 4 23H20C22.2091 23 24 21.6569 24 20ZM0 24V0V24ZM24 0V24V0Z" fill="#ED5729" mask="url(#path-1-inside-1_41_44)"/>
<g clip-path="url(#clip0_41_44)">
<path d="M11.7705 18L9.72305 16.8112V9.80156L6.63867 11.5838L6.64617 8.92875L11.7705 6V18ZM12.2309 6V18L14.2784 16.8112V13.4353L15.8243 14.3287L15.8149 12.0197L14.2784 11.1422V9.80156L17.3618 11.5838L17.3543 8.92875L12.2309 6Z" fill="#6A6A6A"/>
</g>
<defs>
<clipPath id="clip0_41_44">
<rect width="12" height="12" fill="white" transform="translate(6 6)"/>
</clipPath>
</defs>
</svg>
