<svg width="48" height="48" viewBox="0 0 48 48" fill="none" xmlns="http://www.w3.org/2000/svg">
<g opacity="0.5">
<path fill-rule="evenodd" clip-rule="evenodd" d="M12.2835 0.16425C11.7343 0.440156 11.5314 0.849281 11.5328 1.67794C11.5386 4.96294 13.6796 8.22647 16.7941 9.6975C18.2142 10.3683 18.9 10.5143 20.8855 10.5694L22.5989 10.6167L22.573 12.0311L22.5472 13.4454L21.627 13.5608C19.027 13.8871 16.2098 14.9943 13.9691 16.5704C12.8235 17.3763 10.6536 19.5458 9.82021 20.7188C8.69877 22.297 7.67052 24.5495 7.16689 26.5312C6.53868 29.0033 6.51074 31.9007 7.09011 34.4926C8.98864 42.9858 17.0271 48.7775 25.7014 47.902C32.3611 47.2298 38.1217 42.6712 40.302 36.3481C41.0406 34.2061 41.3072 32.3589 41.218 30C41.1331 27.7525 40.7304 25.9257 39.8801 23.9305C37.5514 18.4662 32.5363 14.5347 26.749 13.6366C26.1912 13.5501 25.6399 13.462 25.5238 13.4409C25.3161 13.4032 25.3129 13.3808 25.3129 11.9982V10.5938L26.7425 10.5925C29.7362 10.5899 31.9107 9.72872 33.7574 7.81434C35.4352 6.07509 36.248 4.2555 36.3485 2.01347L36.3991 0.886313L36.1338 0.571031C35.6882 0.0415313 35.4783 0 33.2445 0C30.3305 0 29.3933 0.167438 27.7035 0.990188C26.3609 1.64381 25.2966 2.56134 24.1854 4.023L23.9487 4.33444L23.4626 3.68072C22.0286 1.75238 19.7977 0.434438 17.4037 0.101438C17.0026 0.0456562 15.7597 9.375e-05 14.642 0.0001875C12.8943 0.00028125 12.5641 0.02325 12.2835 0.16425ZM14.495 3.07031C14.8626 4.63312 16.1839 6.26484 17.7465 7.086C18.7661 7.62178 19.4586 7.78209 21.0345 7.84697L22.428 7.90425L22.3656 7.58494C22.3313 7.40934 22.1098 6.86484 21.8734 6.375C21.5094 5.62125 21.318 5.35987 20.6275 4.674C19.9743 4.02516 19.6545 3.78769 19.0232 3.48263C17.9193 2.94909 17.2607 2.8155 15.7251 2.81391L14.4343 2.8125L14.495 3.07031ZM30.2737 2.95519C28.037 3.49828 26.0831 5.43009 25.5586 7.61719L25.4968 7.875L26.4595 7.87313C28.2177 7.86975 29.3403 7.60594 30.4973 6.92409C31.8942 6.10106 33.0459 4.57969 33.4296 3.05072L33.4895 2.8125L32.1433 2.82028C31.3583 2.82488 30.579 2.88112 30.2737 2.95519ZM22.5472 16.2247C21.0404 16.3735 19.3955 16.8108 18.0677 17.4154C17.6664 17.5981 17.35 17.7793 17.3646 17.8181C17.4885 18.149 20.6237 22.514 20.821 22.6305C21.007 22.7404 21.3167 22.7812 21.963 22.7812C23.0338 22.7812 23.6811 22.8947 24.3453 23.1988C24.9274 23.4653 25.7736 24.2314 26.0974 24.7851C26.3878 25.2817 26.6254 26.085 26.6256 26.5718C26.6256 27.031 26.864 27.5304 27.2006 27.7771C27.5345 28.0217 28.1887 28.0856 28.5998 27.9139C28.857 27.8064 34.6863 22.9756 35.4765 22.215C35.6524 22.0458 35.6454 22.0297 35.1171 21.384C32.7726 18.5183 29.0862 16.5801 25.3072 16.2261C24.1222 16.1151 23.6586 16.1149 22.5472 16.2247ZM14.225 19.9122C13.8468 20.242 13.4189 20.6672 13.2741 20.857C13.022 21.1877 13.0182 21.2075 13.1853 21.3268C13.2813 21.3954 13.863 21.8667 14.478 22.3742C16.0353 23.6591 16.5546 24.4648 16.7856 25.9537C16.9276 26.8687 16.7778 27.6248 16.1208 29.3087C15.3541 31.2737 15.3732 31.6518 16.2966 32.779C17.2024 33.8845 17.5356 34.7773 17.5363 36.0992C17.5367 37.0142 17.3199 37.8357 16.8821 38.5781C16.7301 38.8359 16.118 39.6136 15.5218 40.3062C14.9256 40.9988 14.4379 41.5908 14.4379 41.6216C14.4379 41.7351 15.8791 42.7827 16.7124 43.2752C18.2206 44.1664 20.3091 44.8759 22.0811 45.0989C23.3414 45.2575 25.861 45.1643 26.9717 44.9181C30.6971 44.0918 33.9517 41.886 36.0271 38.7806C38.6085 34.918 39.1986 30.0685 37.615 25.7297C37.465 25.3186 37.283 24.8708 37.2104 24.7347L37.0785 24.4872L33.8441 27.2439C31.3356 29.382 30.453 30.0795 29.9115 30.3519C29.2155 30.702 29.2093 30.7031 28.0365 30.7031C26.9144 30.7031 26.8314 30.6896 26.2504 30.4128C24.8971 29.7679 24.0787 28.6172 23.9091 27.1208C23.7634 25.8348 23.4772 25.5938 22.0959 25.5938C20.5305 25.5938 19.5911 25.293 18.7764 24.5309C18.5297 24.3001 17.5896 23.0334 16.6875 21.7161C15.7853 20.3988 15.017 19.3191 14.9799 19.3167C14.9429 19.3144 14.6031 19.5824 14.225 19.9122ZM10.8808 24.3868C10.3333 25.5373 10.0038 26.4916 9.72552 27.7328C9.44568 28.9809 9.42392 32.2446 9.68718 33.4665C9.94743 34.6743 10.3763 35.9454 10.8742 36.9844C11.344 37.9647 12.3638 39.5828 12.4851 39.5403C12.6559 39.4805 14.4826 37.2336 14.6373 36.8932C14.9879 36.1212 14.8212 35.3319 14.1375 34.5262C13.3343 33.5801 12.9575 32.7502 12.8008 31.5831C12.7059 30.8763 12.9128 29.9588 13.5159 28.4132C14.0402 27.0696 14.081 26.9123 14.0353 26.4088C14.0021 26.0428 13.9069 25.7433 13.7467 25.5013C13.5576 25.2156 12.5448 24.3303 11.4611 23.5038C11.3736 23.437 11.226 23.6617 10.8808 24.3868Z" fill="black"/>
</g>
</svg>
