<svg width="48" height="48" viewBox="0 0 48 48" fill="none" xmlns="http://www.w3.org/2000/svg">
<g opacity="0.5">
<path fill-rule="evenodd" clip-rule="evenodd" d="M8.81529 1.27348C8.40776 1.45029 8.17667 1.65729 7.99517 2.00829C7.82267 2.34195 7.8101 3.07742 7.97182 3.38445C8.24848 3.90973 10.2423 6.55639 10.4775 6.71061C10.8768 6.97236 11.6104 6.99664 12.0679 6.7632C12.7622 6.40901 13.1162 5.46973 12.8159 4.77851C12.7382 4.59955 12.1953 3.79929 11.6095 3.00008C10.7385 1.8117 10.4684 1.50851 10.1273 1.33601C9.64536 1.09226 9.27401 1.07454 8.81529 1.27348ZM37.8726 1.33601C37.5316 1.50851 37.2615 1.8117 36.3905 3.00008C35.8047 3.79929 35.2618 4.59955 35.1841 4.77851C34.8838 5.46973 35.2378 6.40901 35.932 6.7632C36.3896 6.99664 37.1232 6.97236 37.5225 6.71061C37.7569 6.55695 39.7512 3.91039 40.0263 3.38801C40.1827 3.09064 40.1679 2.32386 39.9994 1.99789C39.8195 1.65017 39.5843 1.44504 39.1637 1.26926C38.6899 1.07136 38.3625 1.08823 37.8726 1.33601ZM22.9219 3.78251C22.2729 3.99739 21.8114 4.28258 21.3553 4.75029C20.9872 5.12783 20.5957 5.84286 19.0025 9.04695L17.0914 12.8907L12.9819 13.4842C10.4268 13.8533 8.68273 14.1488 8.37073 14.2655C6.42317 14.9943 5.4701 17.3167 6.31892 19.2657C6.53885 19.7707 6.88535 20.1444 9.70873 22.922L12.8536 26.0157L12.1456 30.1189C11.7561 32.3756 11.4385 34.3795 11.4397 34.572C11.4546 36.84 13.7104 38.6427 15.9362 38.1653C16.2688 38.0941 17.7061 37.3938 20.1456 36.1145C22.183 35.0461 23.8976 34.1597 23.9557 34.1448C24.0139 34.1298 25.7457 35.0035 27.8042 36.0864C31.8111 38.1944 32.1172 38.3159 33.1736 38.2172C34.4402 38.0989 35.5715 37.3119 36.144 36.1509C36.692 35.0395 36.6846 34.8828 35.8624 30.1407L35.1472 26.0157L38.2922 22.922C41.9827 19.2915 41.9393 19.3527 41.948 17.7657C41.9527 16.9021 41.9298 16.7788 41.6564 16.202C41.0766 14.978 40.116 14.2685 38.7111 14.0263C38.3286 13.9604 36.4166 13.6779 34.4622 13.3985L30.9089 12.8907L28.9976 9.04695C27.3292 5.69173 27.0256 5.14151 26.6076 4.71767C25.9143 4.01445 25.2132 3.7213 24.1406 3.68605C23.6178 3.66889 23.1543 3.70554 22.9219 3.78251ZM23.5885 7.04923C23.5105 7.16829 22.5585 9.06504 21.4728 11.2643C19.4154 15.4318 19.2178 15.7488 18.5929 15.8825C18.4473 15.9138 16.5773 16.193 14.4375 16.5032C12.2976 16.8134 10.2937 17.1077 9.98435 17.1571C9.40292 17.2501 9.18748 17.4115 9.18748 17.7544C9.18748 17.9541 9.49695 18.2704 13.4062 22.0657C14.7211 23.3422 15.8706 24.5205 15.9609 24.6841C16.0512 24.8477 16.125 25.1659 16.125 25.3911C16.125 25.6165 15.7859 27.779 15.3714 30.1969C14.7915 33.5799 14.6409 34.6359 14.7179 34.7797C14.9525 35.2181 15.0885 35.1639 19.295 32.9538C21.5168 31.7864 23.4838 30.79 23.6659 30.7398C23.8851 30.6792 24.1164 30.6808 24.35 30.7445C24.5443 30.7974 26.5142 31.7933 28.7276 32.9576C31.7353 34.5396 32.8065 35.0609 32.9671 35.0206C33.4307 34.9042 33.4271 34.853 32.6286 30.2032C32.2142 27.7892 31.875 25.6266 31.875 25.3978C31.875 25.1689 31.9489 24.8476 32.039 24.6838C32.1292 24.5201 33.6577 22.9731 35.4356 21.2463C37.2136 19.5194 38.7073 18.0189 38.755 17.9119C38.8817 17.628 38.6912 17.279 38.3732 17.2122C38.228 17.1817 36.2109 16.8837 33.8906 16.5499C31.5703 16.216 29.5224 15.9005 29.3398 15.8485C29.1573 15.7967 28.8854 15.6265 28.7359 15.4703C28.5859 15.3139 27.5358 13.325 26.396 11.0386C24.3555 6.94564 24.3242 6.89033 24.0292 6.86173C23.8012 6.8397 23.6966 6.88414 23.5885 7.04923ZM2.63717 27.5182C0.712573 28.1471 0.391292 28.3295 0.129073 28.9424C-0.288021 29.9171 0.493948 31.1251 1.54189 31.1251C1.92176 31.1251 5.18323 30.1054 5.61017 29.8533C6.42167 29.3739 6.57889 28.1707 5.9261 27.4355C5.70242 27.1837 5.07045 26.909 4.73435 26.9177C4.57967 26.9216 3.63589 27.1919 2.63717 27.5182ZM42.6094 27.0827C42.1584 27.2898 41.9635 27.4964 41.7602 27.983C41.4927 28.6232 41.779 29.4944 42.3707 29.8407C42.8005 30.0922 46.0817 31.1251 46.451 31.1251C46.9792 31.1251 47.5638 30.7482 47.8035 30.253C48.1355 29.5672 48.0391 28.9813 47.5028 28.4254C47.249 28.1623 46.9246 28.0261 45.3248 27.5113C44.291 27.1786 43.3414 26.9073 43.2147 26.9084C43.088 26.9095 42.8156 26.9879 42.6094 27.0827ZM23.4844 40.5192C23.1093 40.6499 22.694 41.0403 22.5353 41.4111C22.3748 41.7862 22.3506 45.4034 22.506 45.8143C22.728 46.4018 23.4008 46.8751 24.0142 46.8751C24.459 46.8751 25.0458 46.5506 25.3125 46.1571C25.5409 45.8202 25.5476 45.762 25.5761 43.8823C25.5921 42.8213 25.58 41.8174 25.5489 41.6512C25.4733 41.2464 25.0761 40.7929 24.6132 40.5826C24.1903 40.3904 23.9004 40.3742 23.4844 40.5192Z" fill="black"/>
</g>
</svg>
