<svg width="48" height="48" viewBox="0 0 48 48" fill="none" xmlns="http://www.w3.org/2000/svg">
<g opacity="0.5" clip-path="url(#clip0_1_379)">
<path fill-rule="evenodd" clip-rule="evenodd" d="M15.2812 0.105034C14.6687 0.348597 14.2727 1.04357 14.3897 1.6701C14.4419 1.95013 14.6869 2.25069 15.6834 3.25766L16.9128 4.49975L15.7345 5.69516C14.5092 6.93828 14.2693 7.32266 14.3864 7.85563C14.5444 8.57488 15.0859 9.0156 15.8119 9.0156C16.3543 9.0156 16.5265 8.89419 17.7876 7.6236C18.3668 7.04 18.8711 6.56244 18.9082 6.56244C18.9454 6.56244 19.5296 7.11088 20.2066 7.78119C21.4779 9.04007 21.5128 9.06116 22.2187 9.0006C22.771 8.95316 23.2574 8.49416 23.3863 7.89866C23.5114 7.32116 23.2946 6.96135 22.0728 5.71869L20.9205 4.54682L22.0751 3.36013C22.8429 2.57103 23.2677 2.0585 23.3429 1.8305C23.6671 0.848378 22.7431 -0.154466 21.6952 0.0421281C21.4056 0.0965031 21.1166 0.329097 20.1116 1.31713L18.8823 2.52575L17.7634 1.40394C16.3822 0.0192531 16 -0.180809 15.2812 0.105034ZM39.0469 11.1197C36.9488 11.4254 35.3873 12.1943 34.0312 13.5894C32.3782 15.2901 31.5133 17.7338 31.7818 19.9453C32.0634 22.2644 33.0485 24.196 34.6086 25.4878C35.2717 26.0369 36.7812 26.8143 37.6406 27.0493C38.5164 27.2887 40.5745 27.3398 41.5397 27.1459C43.1607 26.8204 44.7532 25.9548 45.7887 24.8362C47.6826 22.7907 48.438 19.6661 47.675 17.0346C46.6809 13.6068 43.7667 11.2878 40.2446 11.122C39.7405 11.0983 39.2016 11.0972 39.0469 11.1197ZM18.1669 13.9272C17.7762 14.1391 13.7771 18.3778 13.6192 18.7471C13.3159 19.4571 13.6534 20.2909 14.3584 20.573C15.0853 20.8638 15.3879 20.7358 16.4164 19.7021L17.3171 18.7968L17.3707 21.5156C17.4131 23.6674 17.4651 24.4676 17.6197 25.3528C18.2137 28.7533 20.0366 32.0299 22.5682 34.2478C23.608 35.1587 24.837 35.9548 26.71 36.9308C28.5208 37.8743 29.091 38.2737 29.9229 39.1811C31.5506 40.9563 32.7594 43.5934 33.1918 46.3124C33.2533 46.6992 33.361 47.1279 33.4312 47.2651C33.848 48.0804 35.0069 48.2253 35.6599 47.5438C36.0532 47.1331 36.1006 46.7467 35.8996 45.5858C35.2881 42.0537 33.7066 38.9186 31.4406 36.746C30.4088 35.7568 29.9623 35.4562 28.0144 34.4392C25.9942 33.3844 25.1777 32.8391 24.1178 31.8367C21.8845 29.7243 20.551 26.9396 20.2532 23.7656C20.1449 22.6123 20.1202 18.6562 20.2212 18.6562C20.2569 18.6562 20.7105 19.0734 21.229 19.5832C21.9301 20.2725 22.2673 20.5365 22.5439 20.6126C23.5622 20.8926 24.5002 19.9301 24.2394 18.8728C24.1573 18.5397 19.7701 14.0982 19.3389 13.9117C18.9532 13.7448 18.4914 13.7509 18.1669 13.9272ZM38.184 14.1958C35.9287 14.9263 34.5742 16.8267 34.5703 19.2656C34.5681 20.7411 35.0603 21.9353 36.0994 22.9743C37.0487 23.9236 38.5584 24.5648 39.8353 24.5608C42.2985 24.5532 44.5471 22.7404 45.0528 20.3545C45.3133 19.1255 45.1481 17.9682 44.5344 16.723C43.915 15.4663 42.6817 14.4778 41.2834 14.1172C40.4044 13.8906 39.0178 13.9258 38.184 14.1958ZM7.16925 31.7851C2.57287 32.3862 -0.611347 36.5908 0.13734 41.0704C0.453372 42.9616 1.13915 44.3631 2.33531 45.5623C3.1439 46.3728 3.87825 46.8832 4.78312 47.2634C8.23237 48.7126 12.3176 47.7527 14.484 44.984C15.7728 43.3368 16.4631 40.9243 16.2163 38.9296C15.9863 37.0712 15.1962 35.4538 13.8712 34.1287C12.5535 32.8109 10.9312 32.0152 9.09618 31.7864C8.2184 31.677 7.99687 31.6768 7.16925 31.7851ZM6.41878 34.8535C5.47425 35.1744 4.82559 35.5884 4.20468 36.2668C3.39009 37.1566 2.81578 38.6552 2.81578 39.8906C2.81578 42.4548 4.81331 44.739 7.38281 45.113C10.5582 45.5753 13.4431 43.1098 13.4391 39.9374C13.4358 37.3945 11.9002 35.3593 9.51609 34.7383C8.60409 34.5008 7.31615 34.5487 6.41878 34.8535Z" fill="black"/>
</g>
<defs>
<clipPath id="clip0_1_379">
<rect width="48" height="48" fill="white"/>
</clipPath>
</defs>
</svg>
