<svg width="48" height="48" viewBox="0 0 48 48" fill="none" xmlns="http://www.w3.org/2000/svg">
<g opacity="0.5" clip-path="url(#clip0_1_385)">
<path fill-rule="evenodd" clip-rule="evenodd" d="M0.711544 0.222696C-0.0513939 0.684509 0.00804359 -0.361647 0.00363734 12.6835C-0.000206411 23.8975 0.00569984 24.3005 0.177544 24.6374C0.281887 24.8419 0.509887 25.0727 0.729356 25.1961L1.10332 25.4063H6.21748H11.3315L11.3615 28.3829C11.3913 31.3368 11.3934 31.3649 11.6433 32.0715C12.0216 33.1421 12.5088 33.9028 13.3502 34.7366C14.2256 35.6042 15.2063 36.1693 16.379 36.4816C17.0131 36.6505 17.4747 36.6825 19.8885 36.7253L22.6678 36.7744L22.8235 37.6294C23.2528 39.9866 24.47 42.338 26.1953 44.1433C27.5298 45.5395 29.862 46.9499 31.7092 47.4779C36.8941 48.9597 42.3267 47.1153 45.5315 42.7852C46.5836 41.3637 47.3666 39.6011 47.7237 37.8501C48.2915 35.0663 47.9394 32.3167 46.6865 29.7495C44.9266 26.1432 41.692 23.6492 37.7341 22.8466L36.7028 22.6376L36.6507 19.6391C36.6067 17.109 36.5723 16.5601 36.4307 16.125C35.7497 14.0344 34.1384 12.3679 32.1091 11.6552L31.3591 11.3919L28.3825 11.3619L25.4059 11.3319V6.21782V1.10366L25.1958 0.729696C25.0724 0.510228 24.8416 0.282228 24.637 0.177884C24.3003 0.00613376 23.8934 4.00166e-05 12.6831 0.000508767L1.07782 0.000977517L0.711544 0.222696ZM2.8122 12.7032V22.5938H7.07192H11.3315L11.361 19.6172L11.3903 16.6407L11.6795 15.8327C12.3803 13.8755 13.9263 12.3511 15.9282 11.6436C16.6349 11.3938 16.6629 11.3916 19.6169 11.3619L22.5934 11.3319V7.07226V2.81254H12.7028H2.8122V12.7032ZM16.6558 14.3857C15.2153 14.9779 14.344 16.0964 14.1499 17.6024C14.0426 18.434 14.0442 29.5782 14.1516 30.4124C14.3907 32.2679 15.7923 33.6292 17.6979 33.8568C18.0959 33.9044 19.37 33.9314 20.5294 33.917L22.6371 33.8907L22.8463 32.8594C23.3667 30.2934 24.4945 28.1918 26.343 26.3433C28.1914 24.4949 30.293 23.367 32.8591 22.8466L33.8903 22.6375L33.9167 20.5297C33.9311 19.3704 33.9041 18.0962 33.8565 17.6983C33.7055 16.4333 33.0773 15.3788 32.1091 14.7644C31.1133 14.1326 31.4295 14.156 23.9596 14.1585L17.2028 14.1607L16.6558 14.3857ZM33.6091 25.5552C31.6365 25.9023 29.7299 26.8949 28.3122 28.3125C24.4249 32.1999 24.4589 38.5075 28.3878 42.3468C29.6288 43.5596 31.1464 44.4155 32.88 44.8803C33.6884 45.0972 33.9736 45.1261 35.2966 45.1261C36.6262 45.1261 36.9031 45.0976 37.7341 44.8755C39.4779 44.4093 41.0304 43.5205 42.2752 42.2756C43.5201 41.0308 44.409 39.4783 44.8752 37.7344C45.0973 36.9034 45.1258 36.6266 45.1258 35.2969C45.1258 33.9684 45.0972 33.6898 44.8756 32.8594C43.8485 29.0109 40.8041 26.2199 36.9015 25.5494C35.89 25.3755 34.6166 25.3778 33.6091 25.5552Z" fill="black"/>
</g>
<defs>
<clipPath id="clip0_1_385">
<rect width="48" height="48" fill="white"/>
</clipPath>
</defs>
</svg>
