<svg width="48" height="48" viewBox="0 0 48 48" fill="none" xmlns="http://www.w3.org/2000/svg">
<g opacity="0.5" clip-path="url(#clip0_1_381)">
<path fill-rule="evenodd" clip-rule="evenodd" d="M22.4957 4.39024C17.3188 7.09878 11.74 10.1408 11.5954 10.334C11.5017 10.459 11.3867 10.7268 11.3397 10.929C11.2928 11.1313 11.2535 14.1534 11.2523 17.6447L11.25 23.9927L10.8516 24.0932C7.95919 24.8229 5.22853 25.944 3.375 27.1629C2.29575 27.8726 1.08112 29.1146 0.63375 29.9659C-1.19494 33.446 1.04194 36.8089 6.73481 39.138C9.24159 40.1636 13.4325 41.1838 16.4062 41.4926C16.7414 41.5273 17.0483 41.5745 17.0884 41.5974C17.1284 41.6202 17.0545 41.7657 16.9243 41.9204C16.794 42.0752 16.6612 42.3067 16.629 42.4347C16.5384 42.7957 16.6482 43.3689 16.8667 43.6757C17.1228 44.0354 17.7839 44.2937 18.2327 44.2095C18.5979 44.141 21.7433 41.8545 22.1053 41.3943C22.3433 41.0918 22.4484 40.6241 22.3644 40.2417C22.2741 39.8305 19.7589 36.5104 19.3952 36.3223C18.961 36.0978 18.1707 36.1767 17.8497 36.4765C17.2602 37.0272 17.1832 37.852 17.6625 38.4804C17.9746 38.8895 18.0389 38.8837 16.1477 38.6191C13.2626 38.2155 10.1394 37.4437 8.00316 36.6064C4.57041 35.2608 2.62725 33.5307 2.85366 32.0213C3.11681 30.2665 6.43997 28.1921 10.8912 27.0042L11.9764 26.7146L17.7635 30.1854C23.2291 33.4634 23.5755 33.6562 24 33.6562C24.4245 33.6562 24.7709 33.4634 30.2365 30.1854L36.0236 26.7146L37.0665 26.9929C39.3233 27.5951 41.6525 28.567 43.0181 29.4762C43.7303 29.9503 44.5544 30.7507 44.8717 31.2762C45.399 32.1501 45.2205 33.0321 44.3221 33.9926C41.9649 36.5124 35.6399 38.4701 28.125 39.0058C26.4091 39.1282 26.1173 39.2337 25.8047 39.8456C25.5436 40.3565 25.54 40.6111 25.7869 41.1209C25.9303 41.4173 26.0887 41.5725 26.4022 41.7242C26.8145 41.9239 26.8591 41.9261 28.3418 41.8182C38.2472 41.0973 45.6298 38.2211 47.4873 34.3593C47.6609 33.9984 47.8317 33.5229 47.8669 33.3026C47.9021 33.0822 47.9676 32.8794 48.0123 32.8517C48.0571 32.8241 48.0938 32.5271 48.0938 32.192C48.0938 31.8568 48.0563 31.6058 48.0105 31.6341C47.9647 31.6624 47.8985 31.4937 47.8633 31.2591C47.7458 30.4755 47.0952 29.3817 46.2188 28.494C44.3873 26.6393 41.387 25.1841 37.1484 24.0951L36.75 23.9927L36.7477 17.6447C36.7465 14.1534 36.7072 11.1313 36.6603 10.929C36.6133 10.7268 36.4971 10.457 36.4019 10.3295C36.1648 10.012 24.5929 3.84246 24.1137 3.77824C23.8062 3.73699 23.583 3.82137 22.4957 4.39024ZM19.7612 9.02674C17.5072 10.2237 15.6615 11.2287 15.6596 11.2599C15.6577 11.2911 17.537 12.4448 19.8355 13.8236L24.0149 16.3305L28.1793 13.8326C30.4698 12.4586 32.3423 11.3049 32.3407 11.2688C32.3363 11.1766 24.1534 6.84293 23.9916 6.84706C23.9189 6.84893 22.0152 7.82984 19.7612 9.02674ZM14.1562 19.2547V24.7282L18.3143 27.2234C20.6013 28.5958 22.4997 29.7187 22.5331 29.7187C22.5665 29.7187 22.5938 27.2568 22.5938 24.2478V18.7769L18.4296 16.2791C16.1392 14.9052 14.2408 13.7812 14.2108 13.7812C14.1808 13.7812 14.1562 16.2443 14.1562 19.2547ZM29.5547 16.2831L25.4062 18.7771V24.2579C25.4062 29.2493 25.4197 29.7336 25.5566 29.681C25.6393 29.6493 27.5378 28.5246 29.7754 27.1816L33.8438 24.7398V19.2605C33.8438 16.2469 33.8122 13.783 33.7734 13.7851C33.7347 13.7873 31.8363 14.9114 29.5547 16.2831ZM0.0307499 32.2968C0.0312187 32.6577 0.0480937 32.7939 0.0684374 32.5994C0.0886874 32.4049 0.0884062 32.1096 0.0676874 31.9432C0.0469687 31.7767 0.0303749 31.9359 0.0307499 32.2968Z" fill="black"/>
</g>
<defs>
<clipPath id="clip0_1_381">
<rect width="48" height="48" fill="white"/>
</clipPath>
</defs>
</svg>
