<svg width="48" height="48" viewBox="0 0 48 48" fill="none" xmlns="http://www.w3.org/2000/svg">
<g opacity="0.5" clip-path="url(#clip0_1_373)">
<path fill-rule="evenodd" clip-rule="evenodd" d="M11.0113 3.41822C8.41373 3.89007 6.17413 5.07404 4.26595 6.98391C2.23288 9.01885 0.933416 11.4638 0.309697 14.4279C0.0928533 15.4585 0.0608846 15.8309 0.0593846 17.3438C0.0579783 18.7907 0.0925721 19.2413 0.268166 20.0625C0.97326 23.3611 2.76679 26.7008 5.7561 30.2813C7.32745 32.1634 10.4806 35.2133 13.1024 37.3873C15.5984 39.4568 20.0333 42.6126 22.5867 44.1359C23.661 44.7769 24.0978 44.8661 24.6847 44.5646C25.2138 44.2927 27.474 42.8444 28.8753 41.8793C37.7101 35.7946 44.0636 29.2068 46.5422 23.5606C47.2775 21.8858 47.9066 19.6502 47.9066 18.7119C47.9066 18.5266 47.9488 18.375 48.0003 18.375C48.0574 18.375 48.0941 17.9531 48.0941 17.2969C48.0941 16.6406 48.0574 16.2188 48.0003 16.2188C47.9488 16.2188 47.9066 16.0522 47.9066 15.8485C47.9066 14.7568 47.2563 12.3937 46.5396 10.8807C44.7917 7.19082 41.5812 4.53507 37.6878 3.55838C36.5536 3.27385 34.2231 3.20288 33.0003 3.4156C29.3859 4.04438 26.3655 6.12197 24.1175 9.52566C24.0026 9.69976 23.9981 9.69976 23.8831 9.52566C21.9979 6.67135 19.6026 4.76494 16.759 3.85576C16.2567 3.69516 15.4813 3.50016 15.0358 3.42254C14.0558 3.25163 11.9408 3.24938 11.0113 3.41822ZM11.2503 6.2281C8.84985 6.73116 6.6982 8.14557 5.1082 10.2656C4.21307 11.4593 3.39923 13.3521 3.03229 15.0938C2.78498 16.2677 2.80317 18.5962 3.06867 19.741C3.86376 23.1692 6.1611 26.8144 10.0274 30.7826C13.235 34.0748 17.915 37.8137 22.561 40.7961L24.0139 41.7287L26.0462 40.3777C29.1594 38.3079 31.8423 36.289 34.4066 34.0866C35.9143 32.7915 39.1409 29.5333 40.2639 28.1719C43.3964 24.374 45.0184 20.9083 45.156 17.7188C45.3509 13.1986 42.9553 8.96035 39.1409 7.07729C37.5752 6.30432 36.8461 6.14063 34.9691 6.14063C33.6424 6.14063 33.3088 6.17157 32.6253 6.35813C29.4747 7.21829 26.8745 9.6211 25.63 12.8225C25.435 13.324 25.1962 13.851 25.0993 13.9936C24.6087 14.7152 23.392 14.7152 22.9014 13.9936C22.8044 13.851 22.569 13.3326 22.3782 12.8415C21.1409 9.65766 18.5201 7.21969 15.4222 6.37097C14.4676 6.10951 12.1889 6.03141 11.2503 6.2281ZM0.0361346 17.3906C0.0363221 18.0094 0.0515096 18.2503 0.0697908 17.926C0.0881658 17.6018 0.088072 17.0955 0.0695095 16.801C0.050947 16.5066 0.0359471 16.7719 0.0361346 17.3906Z" fill="black"/>
</g>
<defs>
<clipPath id="clip0_1_373">
<rect width="48" height="48" fill="white"/>
</clipPath>
</defs>
</svg>
