<svg width="48" height="48" viewBox="0 0 48 48" fill="none" xmlns="http://www.w3.org/2000/svg">
<g opacity="0.5" clip-path="url(#clip0_1_369)">
<path fill-rule="evenodd" clip-rule="evenodd" d="M3.4064 1.07083C1.75772 1.47068 0.40959 2.88658 0.0968403 4.5468C0.020434 4.95274 -0.00131597 8.78843 0.018934 18.3281C0.0450903 30.7268 0.0572778 31.5773 0.214215 32.0378C0.60609 33.1875 1.70006 34.321 2.87587 34.7952L3.42187 35.0156L10.1016 35.042L16.7812 35.0684V36.1402C16.7812 40.5761 19.4987 44.5805 23.6425 46.2511C24.077 46.4262 24.8308 46.6694 25.3177 46.7915C26.1931 47.011 26.2678 47.0139 31.924 47.0431C36.6304 47.0676 37.8109 47.048 38.5803 46.933C43.3742 46.2159 47.0977 42.5214 47.8694 37.7158C47.998 36.915 48.0235 34.7308 48.0677 20.729C48.1015 9.96752 48.0871 4.68049 48.024 4.71949C47.9694 4.75324 47.9031 4.61158 47.8666 4.38349C47.628 2.89137 46.0855 1.37946 44.4563 1.04074C43.6944 0.882304 4.06378 0.911366 3.4064 1.07083ZM3.79687 3.88277C3.44747 4.03877 3.04397 4.46205 2.91225 4.81071C2.84353 4.99249 2.8125 9.09827 2.8125 18.009C2.8125 28.7835 2.83406 30.9939 2.94159 31.2451C3.09768 31.61 3.51412 32.0145 3.87328 32.1502C4.04306 32.2144 5.4225 32.2499 7.74047 32.2499H11.3437V17.9999V3.74993L7.71093 3.75359C4.88475 3.75649 4.01568 3.78518 3.79687 3.88277ZM14.1562 17.9999V32.2499H15.4622H16.7681L16.7981 30.2109L16.8281 28.1718L17.1772 27.4575C17.9925 25.79 19.8752 24.7916 21.6038 25.11C21.9281 25.1697 22.2401 25.2187 22.297 25.2187C22.3716 25.2187 22.408 23.2096 22.4269 18.0702L22.4531 10.9218L22.7069 10.3803C23.2787 9.16005 24.1506 8.33974 25.2727 7.96633C25.7871 7.79515 26.0482 7.76637 26.8083 7.79683C27.6364 7.83012 27.7912 7.86677 28.4238 8.17943C29.6457 8.78337 30.5345 9.97718 30.7522 11.3074C30.802 11.611 30.8429 13.1152 30.8432 14.6501L30.8437 17.441L31.1016 17.3689C31.2433 17.3292 31.8047 17.2968 32.349 17.2968C33.3037 17.2968 33.3637 17.3092 34.05 17.6486C34.9392 18.0883 35.6683 18.8409 36.0469 19.7098L36.3111 20.3164L36.7415 20.1822C37.0372 20.09 37.4505 20.0607 38.0625 20.0885C39.1761 20.139 39.9607 20.4641 40.7338 21.1952C41.2729 21.705 41.846 22.6924 41.9621 23.3115C42.023 23.6361 42.0293 23.64 42.3636 23.5628C42.8012 23.4616 44.4874 23.4611 44.8828 23.562L45.1875 23.6398V14.3573C45.1875 8.02662 45.1558 4.99071 45.0877 4.81071C44.9521 4.45155 44.5476 4.03512 44.1827 3.87902C43.9308 3.77121 41.4302 3.74993 29.0186 3.74993H14.1562V17.9999ZM0.045559 17.9999C0.045559 25.296 0.0567153 28.2807 0.070309 24.6327C0.0839028 20.9846 0.0839028 15.0151 0.070309 11.3671C0.0567153 7.71902 0.045559 10.7038 0.045559 17.9999ZM26.2673 10.595C26.0963 10.6342 25.8498 10.7659 25.7194 10.8878C25.1896 11.3826 25.2189 10.6763 25.2167 22.9874C25.2147 33.9451 25.2082 34.3736 25.0371 34.7504C24.6265 35.6546 23.5104 35.8352 22.7892 35.1143L22.4531 34.7785L22.4048 31.8501C22.3735 29.9499 22.3188 28.8366 22.2489 28.6791C22.0937 28.3295 21.6104 27.955 21.2201 27.8817C20.7515 27.7938 20.0831 28.0826 19.8069 28.4925L19.5937 28.8089V32.924C19.5937 36.2628 19.6209 37.1709 19.738 37.7375C20.3545 40.7222 22.6403 43.1326 25.6758 43.9989C26.3764 44.1987 26.5105 44.2029 32.3906 44.2028H38.3906L39.2153 43.9442C42.0613 43.0521 43.9953 41.1175 44.8803 38.2778L45.1372 37.4531L45.1389 32.3273C45.1406 27.2719 45.1379 27.1977 44.9445 26.9366C44.2551 26.0057 43.0275 26.0054 42.3367 26.936C42.1638 27.169 42.1351 27.3694 42.0937 28.6309C42.0486 30.0109 42.0378 30.0734 41.7906 30.3973C41.1217 31.2742 39.9066 31.1356 39.3864 30.1233C39.3154 29.985 39.2806 28.965 39.2792 26.9827C39.2773 24.2905 39.2622 24.0139 39.0971 23.6503C38.6585 22.6839 37.2763 22.5971 36.6847 23.4988C36.5328 23.7305 36.5108 24.0768 36.4687 26.9093L36.4219 30.0618L36.1656 30.3975C35.8144 30.8578 35.2216 31.0812 34.714 30.9446C34.3096 30.8357 33.8729 30.4623 33.7389 30.111C33.6935 29.9917 33.6553 27.9456 33.6542 25.5641C33.6522 21.4972 33.6412 21.2102 33.4721 20.8378C33.214 20.2691 32.8115 20.0431 32.1341 20.0866C31.7241 20.1129 31.5382 20.1754 31.3518 20.3496C30.8344 20.833 30.8437 20.7388 30.8437 25.4285C30.8437 29.7472 30.8425 29.7751 30.6328 30.191C30.2393 30.9714 29.3841 31.2057 28.6271 30.7406C27.9992 30.3547 28.0312 30.887 28.0312 20.8416V11.7584L27.8203 11.3423C27.5143 10.7385 26.91 10.4477 26.2673 10.595ZM6.39759 15.0876C6.2295 15.1931 6.00703 15.4169 5.90306 15.585C5.7254 15.8723 5.71565 16.0236 5.73984 18.1157L5.76562 20.3409L6.10818 20.6833C6.74006 21.3148 7.8059 21.2004 8.27193 20.4509C8.46806 20.1356 8.4869 19.9806 8.51709 18.4333C8.56153 16.161 8.5125 15.8231 8.06925 15.3479C7.75772 15.0139 7.65993 14.9667 7.2104 14.9334C6.81581 14.9041 6.63525 14.9383 6.39759 15.0876Z" fill="black"/>
</g>
<defs>
<clipPath id="clip0_1_369">
<rect width="48" height="48" fill="white"/>
</clipPath>
</defs>
</svg>
