<svg width="48" height="48" viewBox="0 0 48 48" fill="none" xmlns="http://www.w3.org/2000/svg">
<g opacity="0.5" clip-path="url(#clip0_1_377)">
<path fill-rule="evenodd" clip-rule="evenodd" d="M10.5466 10.8383C8.71453 11.1652 6.77072 11.9889 5.25356 13.0813C4.30763 13.7624 2.83266 15.2811 2.20331 16.2219C1.24566 17.6537 0.602813 19.2032 0.219938 21.0024C-0.0111562 22.0878 -0.0125625 24.5571 0.217219 25.7102C0.998531 29.6322 3.50878 32.9249 7.0905 34.7262C9.79603 36.0868 12.8567 36.3957 15.9309 35.6186C16.5274 35.4677 17.0153 35.3444 17.0153 35.3444C17.0153 35.3444 17.0153 35.6178 17.0153 35.9521C17.0153 36.5265 17.0341 36.5785 17.3579 36.9022C17.6369 37.1811 17.7868 37.253 18.1651 37.2893C19.0281 37.3723 19.1107 37.292 20.9549 34.5803C21.8663 33.2402 22.6519 31.9996 22.7005 31.8234C22.8735 31.1969 22.4724 30.4423 21.8393 30.2033C21.7083 30.1538 20.2528 30.0993 18.605 30.0823C15.8781 30.0542 15.5813 30.0663 15.3003 30.2178C14.8558 30.4573 14.6255 30.8867 14.6251 31.4764C14.6247 31.9102 14.6648 32.0127 14.9637 32.3436C15.1502 32.5501 15.3696 32.7189 15.4512 32.7189C15.8019 32.7189 15.3724 32.9015 14.7185 33.0304C13.5835 33.2541 12.7282 33.2987 11.7139 33.1872C9.35109 32.9271 7.44544 32.0149 5.75391 30.3343C4.42884 29.0177 3.59578 27.5832 3.11616 25.7926C2.90606 25.0079 2.874 24.6961 2.86931 23.3908C2.86491 22.1488 2.89903 21.7518 3.06778 21.0829C4.20947 16.5566 8.09316 13.5002 12.7028 13.5002C16.2586 13.5002 19.3817 15.2764 21.22 18.3442C22.0987 19.8106 22.4743 21.1985 22.5956 23.4277C22.6913 25.1881 22.8964 26.3324 23.3447 27.6095C24.8367 31.86 28.6604 35.0809 33.1403 35.861C34.9234 36.1714 37.1954 36.0389 38.9326 35.523C42.7356 34.3936 45.9367 31.3473 47.2485 27.6095C47.5815 26.6606 47.9023 25.2537 47.9045 24.7322C47.9053 24.5419 47.9482 24.3602 47.9997 24.3283C48.0531 24.2954 48.0935 23.8255 48.0935 23.2391C48.0935 22.6719 48.0572 22.2302 48.0129 22.2576C47.9687 22.285 47.9056 22.0238 47.8729 21.6772C47.8003 20.9096 47.4408 19.5423 47.0574 18.5762C45.9701 15.836 43.6308 13.3273 40.8827 11.9545C39.9285 11.4778 38.4856 11.0196 37.3313 10.8268C36.1763 10.6338 33.8151 10.6765 32.7653 10.9093C30.9099 11.3207 28.8292 12.249 28.4232 12.8463C28.1213 13.2905 28.1632 14.1256 28.5056 14.4921C29.092 15.1199 29.6151 15.1487 30.6815 14.6119C32.2342 13.8305 33.6054 13.5002 35.2966 13.5002C39.9189 13.5002 43.7261 16.4935 44.9193 21.0659C45.1018 21.7653 45.1339 22.1189 45.1302 23.3908C45.1264 24.6994 45.095 25.0058 44.8838 25.7926C44.4027 27.5848 43.5702 29.018 42.2455 30.3343C41.7752 30.8016 41.1161 31.3623 40.781 31.5803C37.3818 33.7915 33.2114 33.7915 29.8122 31.5803C28.9873 31.0437 27.5908 29.6371 27.0486 28.7964C25.9497 27.0929 25.5323 25.6944 25.4048 23.2883C25.2501 20.367 24.6812 18.5057 23.2981 16.3948C21.3854 13.4756 18.2475 11.4267 14.7765 10.8306C13.7377 10.6522 11.5673 10.6562 10.5466 10.8383ZM0.0351562 23.3439C0.0351562 23.9369 0.0504375 24.1795 0.069 23.883C0.0875625 23.5865 0.0875625 23.1013 0.069 22.8048C0.0504375 22.5084 0.0351562 22.7509 0.0351562 23.3439Z" fill="black"/>
</g>
<defs>
<clipPath id="clip0_1_377">
<rect width="48" height="48" fill="white"/>
</clipPath>
</defs>
</svg>
