<svg width="48" height="48" viewBox="0 0 48 48" fill="none" xmlns="http://www.w3.org/2000/svg">
<g opacity="0.5" clip-path="url(#clip0_1_371)">
<path fill-rule="evenodd" clip-rule="evenodd" d="M23.625 1.57333C23.2699 1.62189 21.6017 2.45983 20.8448 2.96992C17.296 5.3612 15.0175 9.26917 14.6617 13.5748C14.5975 14.3503 14.5966 14.3525 14.3533 14.3045C13.2409 14.0846 12.7102 14.0348 11.4844 14.0348C9.78883 14.0349 8.6357 14.2152 7.11517 14.7183C4.52392 15.5757 2.1902 17.1566 0.643044 19.1027C-0.038706 19.9603 -0.0832373 20.182 0.169888 21.4607C0.6647 23.9611 1.70486 26.0861 3.38026 28.019C4.42379 29.2229 5.56773 30.12 7.66717 31.381C7.75876 31.436 7.70992 31.5988 7.46261 32.0626C6.65757 33.5726 6.09526 35.4794 5.9027 37.3518C5.66148 39.6983 6.09358 42.2365 7.11686 44.4841C7.51567 45.3603 7.78426 45.6205 8.52761 45.8515C13.0318 47.2503 18.054 46.1694 21.7576 43.004C22.4035 42.452 23.4388 41.3471 23.8477 40.7737L24.0093 40.547L24.2155 40.8265C25.112 42.0406 26.4522 43.2779 27.8681 44.1982C31.2595 46.4024 35.5173 47.0218 39.4395 45.8815C39.7146 45.8016 40.0681 45.6281 40.225 45.496C40.7844 45.0254 41.6129 42.9774 41.9675 41.1888C42.2032 40.0003 42.202 37.4066 41.9653 36.1407C41.7271 34.8665 41.2705 33.5056 40.6994 32.3676L40.2233 31.4187L41.1855 30.8455C44.1504 29.0795 46.4011 26.2677 47.4228 23.0536C47.5801 22.5589 47.76 21.8628 47.8226 21.5067C47.8853 21.1508 47.9719 20.8194 48.0151 20.7704C48.1286 20.6418 48.1147 19.9449 48 20.0157C47.9484 20.0476 47.9063 20.0107 47.9063 19.9337C47.9063 19.8566 47.6581 19.485 47.3549 19.1079C45.714 17.0667 43.4398 15.5281 40.8281 14.6919C39.3403 14.2156 38.1679 14.0355 36.5625 14.0366C35.3528 14.0376 33.7251 14.2154 33.2469 14.3989C33.1185 14.4482 33.0938 14.386 33.0938 14.0143C33.0938 13.7706 33.0283 13.1306 32.9485 12.5923C32.287 8.13827 29.5462 4.27614 25.5752 2.20305C24.596 1.69183 24.0493 1.5153 23.625 1.57333ZM23.2914 4.76514C21.8577 5.55574 20.2791 6.96442 19.4382 8.20342C18.529 9.54292 17.837 11.2825 17.5718 12.8948C17.3778 14.0742 17.44 16.0843 17.7068 17.2501C18.1975 19.3958 19.353 21.4436 20.892 22.8955C21.5206 23.4885 22.7603 24.4322 22.8197 24.363C22.8361 24.3439 22.9455 24.0329 23.0628 23.672C24.0909 20.5072 26.6994 17.3643 29.5655 15.8371L30.3066 15.4422L30.2555 14.1665C30.1751 12.1604 29.6169 10.3212 28.5874 8.6718C28.0321 7.78202 26.7468 6.35533 25.9392 5.73217C25.3951 5.31245 24.0216 4.49899 23.8616 4.5018C23.8089 4.50274 23.5522 4.62124 23.2914 4.76514ZM10.125 16.8805C8.58498 17.072 7.09773 17.5804 5.73995 18.3796C4.83573 18.9117 3.61773 19.8944 3.18498 20.4409C2.89501 20.807 2.89342 20.8149 3.00414 21.3505C3.48573 23.6806 5.07217 26.14 7.07814 27.6661C10.4057 30.1975 14.8902 30.7395 18.6779 29.0681C19.507 28.7021 20.7402 27.9269 21.4139 27.3479L21.781 27.0325L21.2069 26.6838C19.7455 25.796 18.0333 24.1294 17.022 22.6104C16.0516 21.1526 15.2941 19.4035 14.9847 17.9056C14.8814 17.4052 14.8387 17.3361 14.5795 17.2506C13.537 16.9065 11.366 16.7261 10.125 16.8805ZM35.2501 16.887C31.0168 17.377 27.3736 20.1812 25.9064 24.079L25.6802 24.6802L25.8948 24.6163C26.0128 24.5812 26.7422 24.5284 27.5156 24.499C31.4065 24.3507 34.9732 25.7066 37.8295 28.4198L38.5299 29.0852L39.0404 28.8355C40.0424 28.3453 41.0299 27.6187 41.965 26.6837C43.4523 25.1966 44.4459 23.4909 44.9235 21.6045L45.1223 20.8198L44.7774 20.3989C44.0015 19.452 42.2489 18.238 40.8125 17.6524C39.0218 16.9224 37.1594 16.666 35.2501 16.887ZM0.0255127 20.4376C0.0255127 20.6696 0.0437939 20.7646 0.0662002 20.6485C0.0885127 20.5325 0.0885127 20.3427 0.0662002 20.2267C0.0437939 20.1106 0.0255127 20.2056 0.0255127 20.4376ZM26.4049 27.3739C26.155 27.419 25.9291 27.4772 25.903 27.5033C25.8771 27.5293 25.9451 27.8194 26.0545 28.1478C26.9458 30.8264 26.8735 34.1237 25.8603 37.0076C25.5425 37.9122 25.5292 37.8634 26.4165 39.0543C28.1161 41.3355 30.6359 42.9178 33.443 43.4665C35.0625 43.783 38.0766 43.5881 38.4164 43.1449C38.4822 43.0592 38.6617 42.5966 38.8153 42.1171C39.6427 39.5344 39.5487 36.8856 38.5405 34.3678C37.4464 31.6352 35.0955 29.2572 32.3644 28.1202C31.0021 27.5531 30.0207 27.3578 28.3594 27.3231C27.5344 27.3058 26.6549 27.3287 26.4049 27.3739ZM22.875 29.7736C22.1931 30.3326 20.8319 31.1773 20.0156 31.5482C19.1506 31.9413 17.7702 32.3892 16.7813 32.5977C15.637 32.839 12.4719 32.8371 11.3457 32.5945L10.5509 32.4232L10.3742 32.6413C10.1005 32.9793 9.61286 33.9966 9.30339 34.8751C8.40339 37.43 8.42982 40.126 9.37923 42.6085L9.63058 43.2657L10.4169 43.434C11.4912 43.6639 13.4654 43.6799 14.551 43.4677C20.8991 42.2261 25.0334 35.991 23.6067 29.8102C23.5475 29.5537 23.4746 29.3455 23.4448 29.3474C23.415 29.3494 23.1586 29.5412 22.875 29.7736Z" fill="black"/>
</g>
<defs>
<clipPath id="clip0_1_371">
<rect width="48" height="48" fill="white"/>
</clipPath>
</defs>
</svg>
