<svg width="39" height="40" viewBox="0 0 39 40" fill="none" xmlns="http://www.w3.org/2000/svg">
<path d="M12.3638 17.3647C12.204 17.3709 12.0471 17.4085 11.9021 17.4754C11.7571 17.5424 11.6269 17.6373 11.5191 17.7547C11.4114 17.872 11.3282 18.0095 11.2744 18.1591C11.2206 18.3087 11.1973 18.4675 11.2058 18.6261C11.2058 19.4111 11.6491 19.8905 12.4362 19.9085C13.2836 19.9294 13.7963 19.4471 13.7691 18.5992C13.7329 17.8291 13.2474 17.4067 12.3638 17.3647Z" fill="black"/>
<path d="M38.73 19.98C38.73 19.7793 38.73 19.5785 38.7149 19.3808C38.7149 19.2669 38.7149 19.1531 38.7149 19.0392C38.7149 18.9254 38.6938 18.7576 38.6848 18.6198C38.4724 15.9003 37.6833 13.2563 36.3694 10.8614C35.0555 8.4664 33.2465 6.37471 31.0612 4.72367C30.9044 4.60382 30.7415 4.48997 30.5817 4.37612C30.4943 4.3102 30.4038 4.24728 30.3133 4.18437L29.9364 3.93269C29.8037 3.8458 29.668 3.75891 29.5293 3.67502L29.2277 3.48926C29.0558 3.38739 28.8779 3.28552 28.6999 3.18965L28.4768 3.0668C28.2416 2.94097 28.0063 2.82112 27.7651 2.70427L27.6927 2.66832C27.4424 2.54847 27.2072 2.43762 26.969 2.33575L26.8091 2.26384L26.5377 2.16197L26.1789 2.02115L25.8019 1.88033C25.5516 1.79345 25.3013 1.70656 25.048 1.62866L24.9817 1.61068C24.7072 1.52679 24.4328 1.44889 24.1554 1.37698L24.0528 1.35002C23.7784 1.28111 23.504 1.21819 23.2235 1.16126L23.1331 1.14029C22.8315 1.08036 22.5088 1.02344 22.1922 0.975499C21.8755 0.927561 21.5589 0.885615 21.2392 0.855654H21.188C20.9075 0.8197 20.621 0.798727 20.3345 0.783746H20.0963C19.8701 0.783746 19.6439 0.783746 19.4148 0.765769H19.1132C18.9081 0.750789 18.697 0.750789 18.492 0.768766L18.1693 0.78075C17.9009 0.78075 17.6325 0.816704 17.3671 0.840673C17.1771 0.85865 16.9872 0.882619 16.8002 0.906588L16.4986 0.942542C16.3056 0.969507 16.1156 0.999468 15.9226 1.03243L15.6814 1.08036L15.1175 1.19122L14.7767 1.26313L14.2791 1.38297C14.0017 1.45488 13.7242 1.53278 13.4498 1.61667L13.3895 1.64963C9.59946 2.8012 6.26114 5.09014 3.83289 8.20219C3.66718 8.4138 3.51412 8.63489 3.37451 8.86434C1.63878 11.2707 0.484107 14.0418 0 16.9629C1.61337 17.1217 3.082 16.6213 4.54157 16.097C9.88229 14.1825 14.8189 14.9675 19.3002 18.7486C21.2513 19.0212 23.1843 19.3718 25.1505 19.7014C25.0962 19.8452 25.0902 19.9051 25.0631 19.9171C24.9475 19.9775 24.825 20.0237 24.6982 20.0549C19.6379 21.0736 16.0191 23.9169 13.9172 28.5939C12.6235 31.4612 11.4504 34.3825 10.2019 37.2827C12.0148 38.224 13.9658 38.8752 15.9829 39.2122C16.1719 39.2442 16.3619 39.2742 16.5529 39.3021C16.773 39.3321 16.9932 39.365 17.2164 39.386H17.2797C17.9189 39.4519 18.561 39.4849 19.2037 39.4849H19.2399H19.5052H19.9727C20.235 39.4849 20.4974 39.4579 20.7597 39.4369L21.1669 39.401L21.381 39.38C21.4292 39.38 21.4745 39.38 21.5227 39.362C21.8001 39.3291 22.0746 39.2901 22.346 39.2482L22.6475 39.2002C23.0004 39.1373 23.3532 39.0714 23.7 38.9905L23.8387 38.9576C24.0528 38.9066 24.2669 38.8497 24.478 38.7928L24.671 38.7388C24.8791 38.6789 25.0872 38.616 25.2953 38.5471L25.434 38.5022C25.6541 38.4272 25.8683 38.3523 26.0854 38.2714C26.1849 38.2355 26.2844 38.1935 26.3869 38.1546L26.7187 38.0228C26.8483 37.9718 26.975 37.9149 27.1017 37.858L27.3369 37.7561C27.4816 37.6902 27.6264 37.6213 27.7711 37.5494L27.934 37.4715C28.0968 37.3906 28.2566 37.3067 28.4165 37.2228L28.516 37.1719C28.6939 37.076 28.8688 36.9771 29.0407 36.8722L29.0769 36.8513C31.5837 35.3971 33.732 33.405 35.365 31.0206C36.998 28.6362 38.0745 25.9196 38.5159 23.069C38.5159 23.069 38.5159 23.0511 38.5159 23.0451C38.5159 22.9492 38.543 22.8533 38.5551 22.7455C38.5672 22.6376 38.5913 22.4998 38.6064 22.3769C38.6335 22.1432 38.6576 21.9095 38.6757 21.6728C38.6757 21.541 38.6968 21.4092 38.7059 21.2743C38.7149 21.1395 38.721 21.0077 38.724 20.8759C38.724 20.6841 38.724 20.4954 38.724 20.3036C38.724 20.2377 38.724 20.1748 38.724 20.1088C38.724 20.0429 38.73 20.028 38.73 19.98ZM25.4611 19.0812V18.5389C25.4513 17.957 25.2915 17.3873 24.9969 16.8842C24.7023 16.3812 24.2827 15.9616 23.7784 15.6656C23.1883 15.302 22.7335 14.7572 22.483 14.1138C22.2324 13.4704 22.1998 12.7634 22.39 12.0999C22.5803 11.4363 22.983 10.8525 23.5371 10.4368C24.0913 10.0211 24.7668 9.7962 25.4611 9.79614V10.3534C25.4709 10.935 25.6305 11.5044 25.9245 12.0073C26.2185 12.5103 26.6373 12.9301 27.1409 13.2267C27.7315 13.5894 28.187 14.1336 28.4381 14.7768C28.6893 15.42 28.7223 16.127 28.5323 16.7906C28.3423 17.4541 27.9397 18.038 27.3854 18.4536C26.8311 18.8691 26.1555 19.0937 25.4611 19.0932V19.0812ZM28.0697 8.46285C27.8776 8.58095 27.7191 8.74591 27.6093 8.94205C27.4995 9.13819 27.4421 9.35898 27.4424 9.58341V9.79614C27.1756 9.79535 26.9162 9.70838 26.7034 9.54835C26.4907 9.38832 26.336 9.1639 26.2628 8.90892C26.1897 8.65395 26.2019 8.38225 26.2977 8.1348C26.3936 7.88734 26.5677 7.67755 26.7941 7.53705C26.9862 7.4239 27.1464 7.2643 27.2598 7.07309C27.3732 6.88188 27.436 6.66528 27.4424 6.44345V6.23073C27.7093 6.23152 27.9687 6.31848 28.1814 6.47851C28.3942 6.63855 28.5488 6.86297 28.622 7.11794C28.6952 7.37291 28.6829 7.64461 28.5871 7.89206C28.4913 8.13952 28.3171 8.34932 28.0908 8.48982L28.0697 8.46285Z" fill="black"/>
<path d="M38.73 19.98C38.73 19.7793 38.73 19.5785 38.7149 19.3808C38.7149 19.2669 38.7149 19.1531 38.7149 19.0392C38.7149 18.9254 38.6938 18.7576 38.6848 18.6198C38.4724 15.9003 37.6833 13.2563 36.3694 10.8614C35.0555 8.4664 33.2465 6.37471 31.0612 4.72367C30.9044 4.60382 30.7415 4.48997 30.5817 4.37612C30.4943 4.3102 30.4038 4.24728 30.3133 4.18437L29.9364 3.93269C29.8037 3.8458 29.668 3.75891 29.5293 3.67502L29.2277 3.48926C29.0558 3.38739 28.8779 3.28552 28.6999 3.18965L28.4768 3.0668C28.2416 2.94097 28.0063 2.82112 27.7651 2.70427L27.6927 2.66832C27.4424 2.54847 27.2072 2.43762 26.969 2.33575L26.8091 2.26384L26.5377 2.16197L26.1789 2.02115L25.8019 1.88033C25.5516 1.79345 25.3013 1.70656 25.048 1.62866L24.9817 1.61068C24.7072 1.52679 24.4328 1.44889 24.1554 1.37698L24.0528 1.35002C23.7784 1.28111 23.504 1.21819 23.2235 1.16126L23.1331 1.14029C22.8315 1.08036 22.5088 1.02344 22.1922 0.975499C21.8755 0.927561 21.5589 0.885615 21.2392 0.855654H21.188C20.9075 0.8197 20.621 0.798727 20.3345 0.783746H20.0963C19.8701 0.783746 19.6439 0.783746 19.4148 0.765769H19.1132C18.9081 0.750789 18.697 0.750789 18.492 0.768766L18.1693 0.78075C17.9009 0.78075 17.6325 0.816704 17.3671 0.840673C17.1771 0.85865 16.9872 0.882619 16.8002 0.906588L16.4986 0.942542C16.3056 0.969507 16.1156 0.999468 15.9226 1.03243L15.6814 1.08036L15.1175 1.19122L14.7767 1.26313L14.2791 1.38297C14.0017 1.45488 13.7242 1.53278 13.4498 1.61667L13.3895 1.64963C9.59946 2.8012 6.26114 5.09014 3.83289 8.20219C3.66718 8.4138 3.51412 8.63489 3.37451 8.86434C1.63878 11.2707 0.484107 14.0418 0 16.9629C1.61337 17.1217 3.082 16.6213 4.54157 16.097C9.88229 14.1825 14.8189 14.9675 19.3002 18.7486C21.2513 19.0212 23.1843 19.3718 25.1505 19.7014C25.0962 19.8452 25.0902 19.9051 25.0631 19.9171C24.9475 19.9775 24.825 20.0237 24.6982 20.0549C19.6379 21.0736 16.0191 23.9169 13.9172 28.5939C12.6235 31.4612 11.4504 34.3825 10.2019 37.2827C12.0148 38.224 13.9658 38.8752 15.9829 39.2122C16.1719 39.2442 16.3619 39.2742 16.5529 39.3021C16.773 39.3321 16.9932 39.365 17.2164 39.386H17.2797C17.9189 39.4519 18.561 39.4849 19.2037 39.4849H19.2399H19.5052H19.9727C20.235 39.4849 20.4974 39.4579 20.7597 39.4369L21.1669 39.401L21.381 39.38C21.4292 39.38 21.4745 39.38 21.5227 39.362C21.8001 39.3291 22.0746 39.2901 22.346 39.2482L22.6475 39.2002C23.0004 39.1373 23.3532 39.0714 23.7 38.9905L23.8387 38.9576C24.0528 38.9066 24.2669 38.8497 24.478 38.7928L24.671 38.7388C24.8791 38.6789 25.0872 38.616 25.2953 38.5471L25.434 38.5022C25.6541 38.4272 25.8683 38.3523 26.0854 38.2714C26.1849 38.2355 26.2844 38.1935 26.3869 38.1546L26.7187 38.0228C26.8483 37.9718 26.975 37.9149 27.1017 37.858L27.3369 37.7561C27.4816 37.6902 27.6264 37.6213 27.7711 37.5494L27.934 37.4715C28.0968 37.3906 28.2566 37.3067 28.4165 37.2228L28.516 37.1719C28.6939 37.076 28.8688 36.9771 29.0407 36.8722L29.0769 36.8513C31.5837 35.3971 33.732 33.405 35.365 31.0206C36.998 28.6362 38.0745 25.9196 38.5159 23.069C38.5159 23.069 38.5159 23.0511 38.5159 23.0451C38.5159 22.9492 38.543 22.8533 38.5551 22.7455C38.5672 22.6376 38.5913 22.4998 38.6064 22.3769C38.6335 22.1432 38.6576 21.9095 38.6757 21.6728C38.6757 21.541 38.6968 21.4092 38.7059 21.2743C38.7149 21.1395 38.721 21.0077 38.724 20.8759C38.724 20.6841 38.724 20.4954 38.724 20.3036C38.724 20.2377 38.724 20.1748 38.724 20.1088C38.724 20.0429 38.73 20.028 38.73 19.98ZM25.4611 19.0812V18.5389C25.4513 17.957 25.2915 17.3873 24.9969 16.8842C24.7023 16.3812 24.2827 15.9616 23.7784 15.6656C23.1883 15.302 22.7335 14.7572 22.483 14.1138C22.2324 13.4704 22.1998 12.7634 22.39 12.0999C22.5803 11.4363 22.983 10.8525 23.5371 10.4368C24.0913 10.0211 24.7668 9.7962 25.4611 9.79614V10.3534C25.4709 10.935 25.6305 11.5044 25.9245 12.0073C26.2185 12.5103 26.6373 12.9301 27.1409 13.2267C27.7315 13.5894 28.187 14.1336 28.4381 14.7768C28.6893 15.42 28.7223 16.127 28.5323 16.7906C28.3423 17.4541 27.9397 18.038 27.3854 18.4536C26.8311 18.8691 26.1555 19.0937 25.4611 19.0932V19.0812ZM28.0697 8.46285C27.8776 8.58095 27.7191 8.74591 27.6093 8.94205C27.4995 9.13819 27.4421 9.35898 27.4424 9.58341V9.79614C27.1756 9.79535 26.9162 9.70838 26.7034 9.54835C26.4907 9.38832 26.336 9.1639 26.2628 8.90892C26.1897 8.65395 26.2019 8.38225 26.2977 8.1348C26.3936 7.88734 26.5677 7.67755 26.7941 7.53705C26.9862 7.4239 27.1464 7.2643 27.2598 7.07309C27.3732 6.88188 27.436 6.66528 27.4424 6.44345V6.23073C27.7093 6.23152 27.9687 6.31848 28.1814 6.47851C28.3942 6.63855 28.5488 6.86297 28.622 7.11794C28.6952 7.37291 28.6829 7.64461 28.5871 7.89206C28.4913 8.13952 28.3171 8.34932 28.0908 8.48982L28.0697 8.46285Z" fill="black"/>
</svg>
